<svg version="1.1" id="Layer_1" xmlns="http://www.w3.org/2000/svg" x="0px" y="0px"
     viewBox="0 0 81 62.5" enable-background="new 0 0 81 62.5" xml:space="preserve">
<g>
	<g>
		<path fill="#3D6F96" d="M43.581,1.553c0.262-0.222,0.617-0.128,0.93-0.148c0.555,0.325,0.674,1.027,0.668,1.618
			c-0.096,1.515-0.375,3.011-0.684,4.496c-0.115,0.513-0.232,1.029-0.41,1.526c-0.197,0.554-0.752,0.932-1.326,1.001
			c-0.57,0.076-1.184-0.244-1.416-0.776c-0.156-0.312-0.125-0.668-0.102-1.004c0.158-1.712,0.76-3.335,1.307-4.951
			C42.782,2.679,43.015,1.975,43.581,1.553"/>
        <path fill="#3D6F96" d="M31.124,2.708c1.312-0.004,2.619-0.071,3.933-0.057c1.223,0.004,2.446-0.019,3.671-0.012
			c0.584-0.015,1.201,0.083,1.68,0.438c0.262,0.181,0.434,0.493,0.398,0.815c-0.004,0.31-0.225,0.576-0.482,0.728
			c-0.373,0.22-0.813,0.288-1.238,0.305c-1.8,0.012-3.599-0.013-5.397-0.018c-0.576-0.048-1.153-0.023-1.73-0.028
			c-1.225-0.02-2.45-0.013-3.674-0.022c-1.846-0.003-3.689,0.102-5.536,0.101c-0.513,0.026-1.067-0.044-1.476-0.385
			c-0.285-0.222-0.379-0.661-0.185-0.971c0.19-0.3,0.54-0.446,0.87-0.54c0.702-0.19,1.438-0.13,2.154-0.163
			c0.984-0.066,1.971-0.042,2.953-0.102C28.418,2.772,29.77,2.737,31.124,2.708"/>
        <path fill="#3D6F96" d="M48.702,2.805C52.8,2.696,56.894,2.91,60.981,3.138c0.742,0.048,1.486,0.094,2.225,0.18
			c0.631,0.06,1.287,0.088,1.875,0.356c0.426,0.205,0.797,0.712,0.6,1.196c-0.201,0.448-0.699,0.645-1.15,0.73
			c-0.648,0.134-1.316,0.064-1.975,0.04c-2.256-0.156-4.512-0.354-6.773-0.445c-2.277-0.114-4.557-0.192-6.834-0.29
			c-0.598-0.043-1.236-0.073-1.752-0.414c-0.311-0.203-0.467-0.62-0.34-0.973c0.092-0.209,0.291-0.344,0.492-0.439
			C47.772,2.891,48.241,2.84,48.702,2.805"/>
        <path fill="#3D6F96" d="M17.372,3.287c0.476-0.107,0.923,0.164,1.271,0.459c0.709,0.626,1.187,1.46,1.744,2.216
			c1.146,1.656,2.373,3.278,3.241,5.107c0.255,0.554,0.572,1.122,0.543,1.752c-0.011,0.485-0.461,0.879-0.93,0.904
			c-0.627,0.016-1.157-0.413-1.579-0.833c-1.305-1.508-2.335-3.227-3.329-4.95c-0.416-0.738-0.849-1.467-1.226-2.228
			c-0.217-0.433-0.364-0.904-0.42-1.386C16.643,3.882,16.915,3.388,17.372,3.287"/>
        <path fill="#3D6F96" d="M13.793,4.043c0.284-0.036,0.591-0.05,0.854,0.084c0.301,0.147,0.5,0.48,0.477,0.815
			c-0.068,0.437-0.404,0.778-0.775,0.989c-0.408,0.234-0.893,0.368-1.209,0.736c-0.381,0.444-0.49,1.044-0.568,1.607
			c-0.187,1.848-0.366,3.697-0.457,5.551c-0.094,1.514-0.182,3.028-0.271,4.542c-0.001,0.408-0.092,0.82-0.291,1.176
			c-0.17,0.297-0.525,0.52-0.871,0.434c-0.42-0.121-0.66-0.557-0.709-0.965c-0.056-0.553-0.01-1.105-0.004-1.658
			c0.113-2.786,0.319-5.566,0.544-8.345c0.066-0.735,0.087-1.48,0.271-2.198c0.164-0.621,0.432-1.229,0.867-1.707
			C12.193,4.492,12.986,4.14,13.793,4.043"/>
        <path fill="#3D6F96" d="M67.485,5.446c0.377-0.128,0.855-0.088,1.109,0.251c0.17,0.195,0.152,0.47,0.146,0.711
			c-0.018,0.427-0.285,0.782-0.525,1.115c-0.801,1.061-1.779,1.969-2.707,2.916c-1.055,1.063-2.145,2.1-3.369,2.97
			c-0.713,0.499-1.459,0.952-2.217,1.378c-0.402,0.222-0.865,0.316-1.322,0.309c-0.678-0.027-1.344-0.632-1.289-1.339
			c-0.012-0.634,0.381-1.2,0.855-1.583c1.172-0.936,2.42-1.768,3.639-2.636c1.16-0.788,2.23-1.698,3.322-2.576
			C65.854,6.379,66.571,5.717,67.485,5.446"/>
        <path fill="#3D6F96" d="M69.065,8.25c0.354-0.073,0.715,0.115,0.904,0.41c0.234,0.352,0.367,0.758,0.502,1.154
			c0.572,1.859,0.707,3.81,0.836,5.739c0.035,1.019,0.238,2.107-0.205,3.068c-0.211,0.482-0.803,0.807-1.309,0.586
			c-0.473-0.26-0.699-0.791-0.859-1.279c-0.227-0.646-0.254-1.339-0.338-2.012c-0.109-1.149-0.168-2.302-0.24-3.453
			c0.008-0.566-0.08-1.13-0.021-1.695c0.016-0.587,0.035-1.181,0.164-1.756C68.577,8.703,68.731,8.345,69.065,8.25"/>
        <path fill="#3D6F96" d="M38.818,10.685c3.37-0.104,6.749,0.454,9.944,1.516c2.912,0.933,5.738,2.126,8.465,3.504
			c2.572,1.25,5.066,2.647,7.57,4.024c3.463,1.893,6.912,3.824,10.502,5.469c0.422,0.211,0.904,0.361,1.209,0.744
			c0.18,0.189,0.213,0.52,0.043,0.727c-0.227,0.293-0.578,0.451-0.914,0.58c-0.873,0.322-1.793,0.486-2.707,0.645
			c-0.826,0.135-1.645-0.098-2.42-0.361c-1.318-0.43-2.584-1.01-3.834-1.609c-5.168-2.469-10.098-5.396-15.217-7.961
			c-2.373-1.176-4.738-2.423-7.316-3.096c-1.926-0.525-3.914-0.883-5.917-0.866c-1.684,0.003-3.355,0.29-4.991,0.68
			c-3.735,0.9-7.278,2.434-10.731,4.097c-5.053,2.434-9.939,5.193-14.99,7.629c-0.684,0.311-1.366,0.674-2.119,0.785
			c-0.301,0.021-0.654,0.07-0.891-0.158c-0.211-0.158-0.197-0.461-0.117-0.684c0.201-0.504,0.636-0.865,1.09-1.133
			c1.32-0.725,2.665-1.406,3.982-2.137c2.572-1.424,5.116-2.9,7.672-4.355c4.133-2.354,8.295-4.732,12.805-6.295
			C32.797,11.452,35.791,10.801,38.818,10.685"/>
        <path fill="#3D6F96" d="M37.04,14.798c0.633-0.204,1.305-0.242,1.966-0.231c0.665,0.018,1.339,0.027,1.993,0.169
			c0.271,0.072,0.6,0.168,0.719,0.454c0.008,0.309-0.352,0.429-0.59,0.522c-1.436,0.442-2.945,0.741-4.235,1.55
			c-0.861,0.551-1.707,1.148-2.414,1.893c-0.535,0.566-0.928,1.246-1.293,1.932c-0.15,0.26-0.271,0.545-0.475,0.771
			c-0.105,0.129-0.281,0.08-0.425,0.082c-0.062-0.23-0.056-0.469,0.013-0.697c0.559-2.111,1.682-4.098,3.323-5.555
			C36.043,15.319,36.502,14.971,37.04,14.798"/>
        <path fill="#3D6F96" d="M33.362,15.107c0.424-0.039,0.885-0.198,1.293-0.011c0.228,0.092,0.192,0.382,0.131,0.572
			c-0.178,0.423-0.491,0.806-0.914,1.003c-0.479,0.225-1.001,0.33-1.493,0.521c-1.729,0.683-3.301,1.791-4.461,3.248
			c-0.972,1.199-1.648,2.652-1.832,4.189c-0.238,1.738,0.234,3.529,1.148,5.012c1.238,2.037,3.289,3.502,5.531,4.254
			c1.634,0.551,3.385,0.697,5.094,0.52c2.528-0.311,4.991-1.465,6.673-3.406c0.912-1.045,1.58-2.307,1.893-3.66
			c0.18-0.799,0.211-1.621,0.184-2.438c0.002-0.627-0.078-1.254-0.238-1.861c-0.041-0.197-0.125-0.447,0.053-0.604
			c0.127-0.059,0.293-0.043,0.402,0.053c0.35,0.275,0.48,0.725,0.6,1.137c0.377,1.508,0.324,3.104-0.051,4.607
			c-0.549,2.281-1.805,4.375-3.539,5.947c-2.107,1.938-4.984,3.029-7.849,2.91c-1.148-0.08-2.271-0.377-3.35-0.779
			c-2.306-0.908-4.311-2.533-5.722-4.564c-0.94-1.373-1.573-2.955-1.815-4.604c-0.231-1.717-0.037-3.488,0.539-5.121
			c0.302-0.895,0.711-1.758,1.26-2.529c0.896-1.355,2.049-2.571,3.467-3.388C31.279,15.572,32.323,15.3,33.362,15.107"/>
        <path fill="#3D6F96" d="M41.579,16.271c1.48-0.113,2.982-0.055,4.424,0.322c2.461,0.655,4.701,2.13,6.258,4.147
			c1.111,1.455,1.883,3.17,2.215,4.971c0.031,0.248,0.1,0.564-0.113,0.75c-0.197,0.08-0.375-0.066-0.467-0.23
			c-0.305-0.453-0.432-0.994-0.648-1.492c-1.072-2.271-3.045-4.047-5.313-5.086c-2.352-1.055-5.047-1.371-7.568-0.799
			c-1.164,0.287-2.299,0.721-3.326,1.346c-1.813,1.107-3.282,2.775-4.136,4.723c-0.184,0.445-0.299,0.916-0.51,1.35
			c-0.082,0.154-0.258,0.348-0.449,0.25c-0.229-0.174-0.198-0.492-0.165-0.744c0.239-1.498,0.687-2.992,1.521-4.271
			c0.643-0.943,1.336-1.873,2.221-2.604c0.873-0.727,1.824-1.387,2.884-1.811C39.421,16.675,40.487,16.375,41.579,16.271"/>
        <path fill="#3D6F96" d="M2.253,17.316c0.356-0.149,0.763-0.053,1.078,0.148c0.746,0.465,1.421,1.035,2.142,1.537
			c0.659,0.471,1.336,0.918,2.006,1.373c0.295,0.201,0.646,0.371,0.809,0.711c0.193,0.346,0.129,0.818-0.166,1.084
			c-0.369,0.361-0.941,0.436-1.419,0.285c-0.897-0.354-1.72-0.885-2.46-1.498c-0.734-0.605-1.498-1.203-2.051-1.984
			c-0.254-0.357-0.428-0.805-0.334-1.248C1.939,17.551,2.07,17.389,2.253,17.316"/>
        <path fill="#3D6F96" d="M31.731,18.26c0.427-0.191,0.847-0.418,1.312-0.492c0.205,0.053,0.211,0.297,0.135,0.455
			c-0.178,0.436-0.467,0.822-0.59,1.283c-0.069,0.25-0.154,0.545-0.43,0.637c-2.107,0.93-3.809,2.609-5.046,4.525
			c-0.098,0.162-0.258,0.264-0.417,0.357c-0.056-0.055-0.111-0.109-0.156-0.172c-0.037-0.408,0.094-0.805,0.223-1.186
			c0.283-0.754,0.596-1.506,1.059-2.168C28.819,20.109,30.172,18.971,31.731,18.26"/>
        <path fill="#3D6F96" d="M77.933,18.563c0.426-0.068,0.928-0.084,1.262,0.232c0.252,0.238,0.219,0.635,0.082,0.926
			c-0.227,0.48-0.699,0.768-1.111,1.074c-1.57,1.016-3.311,1.813-5.168,2.125c-0.248,0.031-0.52,0.053-0.746-0.074
			c-0.365-0.201-0.613-0.609-0.613-1.029c-0.039-0.566,0.279-1.105,0.715-1.449c0.213-0.176,0.48-0.258,0.738-0.342
			c1.068-0.344,2.131-0.699,3.201-1.037C76.829,18.818,77.374,18.66,77.933,18.563"/>
        <path fill="#3D6F96" d="M39.875,19.635c1.255-0.4,2.583-0.504,3.896-0.461c1.053-0.018,2.09,0.24,3.094,0.545
			c2.203,0.74,4.125,2.229,5.482,4.107c0.727,0.998,1.232,2.143,1.586,3.324c0.484,1.627,0.572,3.367,0.271,5.037
			c-0.35,1.746-0.979,3.48-2.096,4.883c-0.703,0.689-1.621,1.152-2.582,1.348c-0.244,0.076-0.5-0.232-0.32-0.441
			c0.193-0.256,0.451-0.449,0.686-0.666c0.92-0.768,1.762-1.648,2.371-2.686c0.842-1.393,1.287-3.039,1.182-4.668
			c-0.133-1.332-0.523-2.666-1.297-3.773c-1.24-1.959-3.271-3.332-5.465-4.014c-1.91-0.629-3.982-0.707-5.947-0.311
			c-1.024,0.203-2.022,0.549-2.931,1.066c-1.102,0.625-2.134,1.4-2.935,2.387c-0.826,0.996-1.433,2.182-1.705,3.449
			c-0.288,1.41-0.296,2.893,0.08,4.287c0.063,0.182,0.022,0.369-0.044,0.539c-0.172-0.004-0.363,0.012-0.489-0.129
			c-0.419-0.402-0.56-1-0.663-1.553c-0.423-2.717,0.28-5.563,1.805-7.838C35.266,21.955,37.426,20.338,39.875,19.635"/>
        <path fill="#3D6F96" d="M31.315,21.248c0.172-0.104,0.39-0.184,0.585-0.1c0.12,0.084,0.178,0.236,0.137,0.377
			c-0.082,0.514-0.152,1.031-0.25,1.541c-0.658,0.451-1.351,0.857-1.963,1.373c-0.771,0.666-1.475,1.416-2.064,2.248
			c-0.198,0.264-0.379,0.563-0.684,0.713c-0.05-0.021-0.146-0.063-0.195-0.084c-0.158-0.572,0.154-1.137,0.365-1.654
			C28.069,23.791,29.594,22.311,31.315,21.248"/>
        <path fill="#3D6F96" d="M38.842,23.973c0.937-0.23,1.956-0.111,2.813,0.33c0.836,0.418,1.523,1.127,1.916,1.973
			c0.424,0.891,0.504,1.939,0.223,2.883c-0.322,1.139-1.166,2.111-2.234,2.615c-0.764,0.373-1.645,0.473-2.477,0.332
			c-1.279-0.219-2.419-1.088-2.996-2.244c-0.491-0.967-0.57-2.127-0.226-3.154C36.305,25.369,37.468,24.299,38.842,23.973"/>
        <path fill="#3D6F96" d="M52.235,28.627c0.107-0.16,0.293-0.221,0.479-0.23c0.182,0.248,0.154,0.563,0.082,0.846
			c-0.166,0.742-0.488,1.447-0.902,2.082c-0.721,0.971-1.416,1.984-2.363,2.752c-0.375,0.305-0.773,0.598-1.227,0.775
			c-0.186,0.092-0.43-0.078-0.42-0.283c-0.004-0.416,0.131-0.818,0.164-1.23c0.023-0.242,0.018-0.492,0.107-0.723
			c0.17-0.223,0.441-0.328,0.666-0.486c0.857-0.533,1.631-1.205,2.268-1.992C51.487,29.646,51.849,29.125,52.235,28.627"/>
        <path fill="#3D6F96" d="M9.617,29.379c0.336-0.039,0.671,0.074,0.977,0.203c0.642,0.303,1.188,0.766,1.726,1.219
			c1.036,0.908,2.188,1.672,3.333,2.432c2.236,1.5,4.523,2.939,6.938,4.135c3.024,1.514,6.248,2.66,9.588,3.234
			c2.181,0.393,4.403,0.529,6.618,0.441c1.33-0.055,2.662-0.145,3.99-0.281c3.02-0.363,5.932-1.334,8.727-2.504
			c4.539-1.914,8.764-4.471,13.23-6.537c1.1-0.469,2.164-1.031,3.309-1.396c1.014-0.334,2.104-0.297,3.154-0.18
			c0.637,0.088,1.275,0.24,1.848,0.545c0.256,0.146,0.516,0.342,0.619,0.631c0.092,0.32-0.078,0.652-0.314,0.867
			c-0.35,0.316-0.791,0.508-1.234,0.66c-1.863,0.646-3.766,1.191-5.588,1.949c-4.264,1.746-8.223,4.125-12.357,6.139
			c-2.359,1.127-4.799,2.121-7.354,2.711c-2.461,0.598-4.988,0.9-7.52,0.941c-2.95,0.039-5.902-0.299-8.784-0.93
			c-3.016-0.666-5.926-1.766-8.68-3.152c-2.336-1.174-4.548-2.586-6.615-4.186c-1.273-0.969-2.494-2.01-3.648-3.121
			c-0.82-0.785-1.684-1.543-2.357-2.463c-0.187-0.258-0.377-0.57-0.303-0.898C9.02,29.549,9.34,29.424,9.617,29.379"/>
        <path fill="#3D6F96" d="M47.466,29.482c0.201-0.064,0.369,0.133,0.369,0.32c0.016,0.293-0.047,0.584-0.094,0.869
			c-0.24,1.342-0.734,2.629-1.395,3.814c-1.25,2.086-3.113,3.83-5.35,4.814c-1.649,0.736-3.505,1.01-5.298,0.768
			c-2.383-0.352-4.629-1.447-6.473-2.986c-1.029-0.84-1.91-1.854-2.658-2.947c-0.576-0.885-1.015-1.857-1.317-2.867
			c-0.109-0.428-0.236-0.867-0.237-1.313c-0.02-0.199,0.268-0.281,0.377-0.131c0.27,0.344,0.348,0.789,0.553,1.172
			c0.977,2.203,2.713,4.012,4.752,5.27c1.369,0.848,2.899,1.453,4.5,1.672c2.584,0.379,5.212-0.488,7.345-1.926
			c2.014-1.381,3.691-3.35,4.469-5.686C47.118,30.033,47.155,29.637,47.466,29.482"/>
        <path fill="#3D6F96" d="M52.71,31.123c0.094-0.078,0.283-0.047,0.313,0.082c0.053,0.326-0.027,0.654-0.129,0.961
			c-0.303,0.85-0.605,1.721-1.154,2.449c-1.047,1.395-2.344,2.629-3.895,3.449c-0.328,0.168-0.639,0.381-0.992,0.492
			c-0.148,0.061-0.32-0.01-0.371-0.164c-0.006-0.205,0.107-0.385,0.199-0.561c0.332-0.58,0.648-1.168,0.992-1.742
			c0.193-0.355,0.617-0.441,0.932-0.652c1.582-0.969,2.789-2.434,3.793-3.971C52.489,31.344,52.577,31.211,52.71,31.123"/>
        <path fill="#3D6F96" d="M47.093,33.988c0.135-0.119,0.35,0.047,0.328,0.209c0.012,0.527-0.197,1.027-0.348,1.523
			c-0.416,1.266-1.139,2.434-2.115,3.348c-0.605,0.572-1.355,1.014-2.188,1.152c-0.371,0.053-0.807,0.172-1.141-0.064
			c-0.123-0.072-0.135-0.223-0.109-0.35c0.082-0.225,0.314-0.328,0.512-0.434c1.584-0.787,3.01-1.951,3.951-3.463
			c0.305-0.459,0.537-0.957,0.781-1.449C46.851,34.289,46.937,34.105,47.093,33.988"/>
        <path fill="#3D6F96" d="M70.374,34.406c0.314-0.098,0.703-0.072,0.928,0.199c0.395,0.465,0.523,1.09,0.588,1.68
			c0.15,1.129-0.016,2.262-0.021,3.391c-0.084,1.922-0.205,3.842-0.355,5.76c-0.113,1.057-0.223,2.199-0.922,3.059
			c-0.689,0.859-1.826,1.178-2.883,1.271c-6.486,0.35-12.98,0.547-19.475,0.627c-0.432,0-0.867-0.018-1.299,0.025
			c-3.766,0.047-7.533,0.018-11.298,0.027c-2.02-0.023-4.035-0.074-6.056-0.1c-0.981-0.059-1.969-0.039-2.952-0.098
			c-3.727-0.133-7.449-0.359-11.16-0.744c-1.32-0.143-2.606-0.717-3.529-1.684c-0.758-0.719-1.187-1.721-1.367-2.734
			c-0.352-1.928-0.385-3.891-0.443-5.842c0-1.063-0.088-2.141,0.141-3.186c0.072-0.281,0.131-0.602,0.373-0.793
			c0.233-0.199,0.609-0.246,0.858-0.049c0.274,0.205,0.377,0.547,0.466,0.861c0.278,1.104,0.206,2.252,0.279,3.381
			c0.01,1.104,0.064,2.207,0.159,3.307c0.069,1.082,0.225,2.264,0.978,3.104c0.899,0.961,2.271,1.227,3.53,1.303
			c1.872,0.076,3.742,0.209,5.614,0.285c2.494,0.115,4.988,0.209,7.484,0.258c3.526,0.105,7.059,0.076,10.589,0.08
			c8.77-0.039,17.533-0.471,26.285-1.041c0.418-0.033,0.867-0.127,1.184-0.422c0.285-0.27,0.398-0.662,0.449-1.037
			c0.166-1.16,0.281-2.326,0.373-3.492c0.131-1.236,0.221-2.471,0.26-3.711c0.057-0.971,0.094-1.971,0.473-2.879
			C69.774,34.875,70.009,34.533,70.374,34.406"/>
        <path fill="#3D6F96" d="M28.162,37.316c0.307-0.133,0.592,0.117,0.811,0.305c0.698,0.625,1.504,1.113,2.318,1.57
			c0.176,0.104,0.434,0.227,0.359,0.479c-0.146,0.195-0.428,0.131-0.635,0.107c-0.938-0.199-1.857-0.607-2.545-1.289
			c-0.217-0.217-0.464-0.443-0.513-0.758C27.928,37.568,28.004,37.379,28.162,37.316"/>
        <path display="none" fill="#3D6F96" d="M42.716,53.781c0.014-0.127-0.031-0.311,0.125-0.361c0.303-0.037,0.615-0.043,0.92,0
			c0.184,0.102,0.221,0.33,0.311,0.502c0.258,0.566,0.479,1.152,0.771,1.703c0.246-0.539,0.48-1.08,0.721-1.621
			c0.084-0.178,0.145-0.373,0.27-0.529c0.146-0.121,0.354-0.064,0.527-0.08c0.174,0.018,0.387-0.043,0.531,0.088
			c0.045,0.219,0.023,0.443,0.027,0.664c-0.002,1.488-0.002,2.977,0,4.463c-0.004,0.227,0.02,0.459-0.027,0.684
			c-0.074,0.1-0.207,0.07-0.311,0.082c-0.225-0.002-0.455,0.014-0.678-0.018c-0.119-0.059-0.092-0.205-0.104-0.313
			c-0.01-1.021,0.016-2.043-0.014-3.066c-0.248,0.549-0.418,1.129-0.645,1.688c-0.076,0.264-0.563,0.254-0.633-0.012
			c-0.223-0.576-0.418-1.162-0.639-1.736c-0.047,0.727-0.008,1.459-0.021,2.188c-0.014,0.379,0.037,0.764-0.029,1.139
			c-0.006,0.096-0.115,0.127-0.195,0.125c-0.275,0.014-0.553,0-0.832,0.002c-0.109-0.242-0.074-0.51-0.076-0.764
			C42.718,56.998,42.718,55.389,42.716,53.781"/>
	</g>
</g>
    <g>
	<path fill="#3D6F96" d="M11.632,56.922v-0.743c0-0.045,0.018-0.087,0.054-0.126c0.035-0.039,0.072-0.06,0.113-0.06h1.504
		c0.111,0,0.166,0.063,0.166,0.188v1.645c0,0.418-0.075,0.761-0.227,1.026c-0.257,0.446-0.711,0.67-1.361,0.67
		c-0.523,0-0.917-0.108-1.179-0.323c-0.413-0.34-0.62-0.961-0.62-1.861v-1.794c0-0.884,0.244-1.487,0.733-1.811
		c0.298-0.198,0.724-0.297,1.278-0.297c0.488,0,0.813,0.045,0.975,0.136c0.091,0.051,0.137,0.139,0.137,0.264v0.722
		c0,0.074-0.003,0.119-0.008,0.137c-0.021,0.057-0.063,0.085-0.129,0.085c-0.146-0.04-0.299-0.075-0.457-0.106
		c-0.159-0.031-0.322-0.047-0.488-0.047c-0.402,0-0.67,0.134-0.801,0.399c-0.081,0.165-0.121,0.437-0.121,0.816v1.207
		c0,0.431,0.02,0.726,0.061,0.884c0.08,0.323,0.26,0.484,0.537,0.484c0.201,0,0.348-0.076,0.438-0.229
		c0.076-0.13,0.113-0.306,0.113-0.527v-0.391c0-0.045-0.007-0.085-0.021-0.119c-0.016-0.034-0.057-0.051-0.121-0.051h-0.416
		C11.686,57.099,11.632,57.04,11.632,56.922z"/>
        <path fill="#3D6F96" d="M15.064,57.056v2.159c0,0.103-0.019,0.168-0.057,0.195c-0.037,0.029-0.09,0.043-0.154,0.043h-0.605
		c-0.091,0-0.148-0.021-0.174-0.063c-0.025-0.043-0.038-0.101-0.038-0.175v-4.25c0-0.102,0.019-0.167,0.057-0.195
		c0.037-0.028,0.089-0.042,0.153-0.042h0.684c0.09,0,0.135,0.039,0.135,0.118v0.094c0,0.022,0.013,0.046,0.038,0.068l0.106-0.077
		c0.107-0.09,0.193-0.152,0.26-0.187c0.116-0.057,0.258-0.085,0.426-0.085c0.076,0,0.133,0.013,0.172,0.038
		c0.037,0.025,0.057,0.081,0.057,0.166v0.824c0,0.068-0.02,0.113-0.057,0.136c-0.038,0.023-0.08,0.034-0.125,0.034h-0.144
		c-0.121,0-0.217,0.018-0.287,0.051c-0.071,0.034-0.142,0.091-0.212,0.171c-0.111,0.124-0.178,0.26-0.2,0.407
		S15.064,56.824,15.064,57.056z"/>
        <path fill="#3D6F96" d="M19.162,56.002v3.153c0,0.091-0.008,0.153-0.022,0.188c-0.036,0.073-0.104,0.11-0.204,0.11h-0.635
		c-0.096,0-0.145-0.045-0.145-0.136c0-0.04-0.02-0.06-0.061-0.06c-0.035,0.017-0.058,0.031-0.067,0.042
		c-0.065,0.068-0.157,0.122-0.276,0.162c-0.118,0.039-0.232,0.06-0.344,0.06c-0.293,0-0.531-0.119-0.719-0.357
		c-0.206-0.267-0.31-0.643-0.31-1.131c0-0.577,0.167-1.028,0.499-1.352c0.197-0.187,0.527-0.376,0.99-0.569l0.189-0.076
		c0.051-0.022,0.075-0.068,0.075-0.136c0-0.119-0.046-0.201-0.14-0.247c-0.094-0.045-0.208-0.067-0.344-0.067
		c-0.142,0-0.25,0.008-0.325,0.025c-0.086,0.028-0.16,0.051-0.224,0.067c-0.063,0.018-0.111,0.034-0.146,0.052
		c-0.096,0.039-0.156,0.06-0.182,0.06c-0.096,0-0.145-0.052-0.145-0.153v-0.527c0-0.107,0.057-0.198,0.167-0.271
		c0.187-0.119,0.501-0.179,0.944-0.179c0.575,0,0.973,0.147,1.195,0.442C19.086,55.305,19.162,55.605,19.162,56.002z M18.134,58.178
		V57.09c0-0.028-0.01-0.048-0.03-0.06c-0.02-0.011-0.045-0.005-0.075,0.018l-0.129,0.094c-0.151,0.107-0.257,0.209-0.317,0.306
		c-0.086,0.136-0.129,0.309-0.129,0.519c0,0.147,0.027,0.271,0.084,0.369c0.055,0.1,0.139,0.149,0.249,0.149
		c0.101,0,0.185-0.031,0.249-0.094C18.102,58.328,18.134,58.258,18.134,58.178z"/>
        <path fill="#3D6F96" d="M20.795,59.325v1.114c0,0.102-0.018,0.167-0.057,0.195c-0.037,0.028-0.089,0.042-0.154,0.042h-0.605
		c-0.09,0-0.148-0.021-0.174-0.063c-0.025-0.042-0.037-0.101-0.037-0.174v-5.475c0-0.102,0.019-0.167,0.057-0.195
		c0.037-0.028,0.088-0.042,0.153-0.042h0.683c0.09,0,0.135,0.039,0.135,0.118v0.068c0,0.04,0.019,0.06,0.054,0.06
		c0.005,0,0.028-0.014,0.068-0.043c0.086-0.085,0.162-0.144,0.228-0.178c0.117-0.063,0.264-0.094,0.44-0.094
		c0.425,0,0.714,0.198,0.866,0.595c0.086,0.227,0.129,0.559,0.129,0.995v1.717c0,0.425-0.053,0.756-0.159,0.994
		c-0.166,0.374-0.461,0.562-0.884,0.562c-0.172,0-0.311-0.025-0.416-0.077c-0.096-0.057-0.191-0.116-0.287-0.178
		C20.809,59.289,20.795,59.309,20.795,59.325z M20.795,56.257v1.666c0,0.147,0.018,0.264,0.054,0.349
		c0.06,0.142,0.166,0.213,0.317,0.213s0.257-0.071,0.317-0.213c0.035-0.085,0.054-0.201,0.054-0.349v-1.666
		c0-0.147-0.019-0.264-0.054-0.349c-0.061-0.142-0.166-0.212-0.317-0.212s-0.258,0.07-0.317,0.212
		C20.813,55.993,20.795,56.109,20.795,56.257z"/>
        <path fill="#3D6F96" d="M23.184,59.215v-5.474c0-0.103,0.02-0.167,0.058-0.195s0.089-0.043,0.155-0.043h0.604
		c0.091,0,0.148,0.021,0.174,0.063c0.024,0.043,0.038,0.102,0.038,0.175v1.122v0.051c0,0.028,0.022,0.048,0.068,0.06
		c0.055,0,0.139-0.053,0.252-0.157c0.114-0.104,0.27-0.157,0.466-0.157c0.267,0,0.486,0.091,0.657,0.271
		c0.207,0.222,0.311,0.553,0.311,0.995v3.289c0,0.103-0.02,0.168-0.057,0.195c-0.038,0.029-0.09,0.043-0.155,0.043H25.15
		c-0.092,0-0.148-0.021-0.174-0.063c-0.025-0.043-0.038-0.101-0.038-0.175v-3.043c0-0.113-0.032-0.208-0.095-0.284
		c-0.063-0.077-0.15-0.115-0.261-0.115c-0.161,0-0.27,0.079-0.325,0.238c-0.03,0.091-0.045,0.221-0.045,0.391v2.813
		c0,0.103-0.02,0.168-0.057,0.195c-0.038,0.029-0.09,0.043-0.155,0.043h-0.604c-0.092,0-0.149-0.021-0.174-0.063
		C23.197,59.347,23.184,59.289,23.184,59.215z"/>
        <path fill="#3D6F96" d="M27.6,53.613v0.519c0,0.074-0.013,0.132-0.037,0.175c-0.025,0.042-0.084,0.063-0.174,0.063h-0.605
		c-0.091,0-0.148-0.021-0.174-0.063c-0.025-0.043-0.038-0.101-0.038-0.175v-0.519c0-0.073,0.013-0.132,0.038-0.174
		c0.025-0.043,0.083-0.063,0.174-0.063h0.605c0.064,0,0.117,0.014,0.154,0.042C27.581,53.446,27.6,53.512,27.6,53.613z M27.6,54.965
		v4.25c0,0.103-0.019,0.168-0.057,0.195c-0.037,0.029-0.09,0.043-0.154,0.043h-0.605c-0.091,0-0.148-0.021-0.174-0.063
		c-0.025-0.043-0.038-0.101-0.038-0.175v-4.25c0-0.102,0.019-0.167,0.058-0.195c0.037-0.028,0.089-0.042,0.154-0.042h0.605
		c0.064,0,0.117,0.014,0.154,0.042C27.581,54.798,27.6,54.863,27.6,54.965z"/>
        <path fill="#3D6F96" d="M29.195,56.461v1.258c0,0.199,0.025,0.349,0.076,0.451c0.09,0.181,0.256,0.271,0.498,0.271l0.34-0.042
		c0.035-0.006,0.081-0.016,0.137-0.03c0.056-0.014,0.098-0.021,0.129-0.021c0.055,0,0.092,0.018,0.109,0.052
		s0.026,0.073,0.026,0.119v0.68c0,0.102-0.032,0.173-0.099,0.212c-0.115,0.074-0.355,0.111-0.718,0.111
		c-0.671,0-1.119-0.216-1.346-0.646c-0.121-0.232-0.182-0.595-0.182-1.088v-1.462c0-0.499,0.081-0.873,0.241-1.122
		c0.238-0.362,0.666-0.544,1.286-0.544c0.362,0,0.603,0.037,0.718,0.11c0.066,0.04,0.099,0.11,0.099,0.213v0.68
		c0,0.113-0.046,0.17-0.136,0.17c-0.086,0-0.188-0.016-0.307-0.047c-0.118-0.031-0.218-0.047-0.299-0.047
		c-0.231,0-0.393,0.08-0.483,0.238C29.226,56.084,29.195,56.246,29.195,56.461z"/>
        <path fill="#3D6F96" d="M30.889,59.104v-0.553c0-0.136,0.04-0.204,0.12-0.204c0.025,0,0.095,0.019,0.207,0.056
		s0.241,0.069,0.384,0.098s0.262,0.043,0.357,0.043c0.155,0,0.269-0.037,0.338-0.11c0.07-0.074,0.105-0.165,0.105-0.272
		c0-0.158-0.104-0.323-0.31-0.493c-0.151-0.113-0.257-0.195-0.317-0.246c-0.263-0.21-0.451-0.392-0.567-0.544
		c-0.212-0.278-0.317-0.59-0.317-0.936c0-0.328,0.083-0.604,0.25-0.824c0.227-0.306,0.584-0.459,1.073-0.459
		c0.383,0,0.664,0.037,0.843,0.11c0.179,0.074,0.269,0.182,0.269,0.323v0.535c0,0.028,0,0.054,0,0.077
		c-0.016,0.067-0.063,0.102-0.144,0.102c-0.242,0-0.414-0.037-0.515-0.11c-0.056-0.04-0.169-0.06-0.34-0.06
		c-0.126,0-0.213,0.029-0.261,0.089s-0.072,0.124-0.072,0.191c0,0.147,0.121,0.314,0.363,0.502c0.11,0.085,0.224,0.17,0.34,0.255
		c0.263,0.215,0.451,0.411,0.567,0.586c0.161,0.25,0.242,0.544,0.242,0.885c0,0.431-0.134,0.768-0.4,1.011
		c-0.266,0.244-0.62,0.366-1.063,0.366c-0.487,0-0.821-0.057-1.003-0.17C30.939,59.289,30.889,59.207,30.889,59.104z"/>
        <path fill="#3D6F96" d="M38.88,56.197h0.529c0.091,0,0.148,0.021,0.174,0.064c0.025,0.042,0.038,0.101,0.038,0.174v0.255v0.222
		c0,0.142-0.003,0.268-0.008,0.378s-0.018,0.224-0.038,0.34c-0.02,0.116-0.045,0.226-0.075,0.327
		c-0.03,0.103-0.051,0.188-0.061,0.255v0.068c0.005,0.034,0.028,0.065,0.071,0.094s0.082,0.042,0.117,0.042h0.091
		c0.061,0,0.104,0.024,0.129,0.072s0.038,0.084,0.038,0.106v0.688c0,0.073-0.013,0.132-0.038,0.174
		c-0.025,0.043-0.083,0.064-0.174,0.064h-0.25c-0.176,0-0.34-0.077-0.491-0.229c-0.056-0.057-0.101-0.085-0.136-0.085
		c-0.005,0-0.028,0.011-0.068,0.033c-0.131,0.091-0.291,0.16-0.48,0.209c-0.188,0.048-0.371,0.072-0.548,0.072
		c-0.555,0-0.965-0.213-1.232-0.638c-0.217-0.346-0.325-0.808-0.325-1.386c0-0.38,0.081-0.726,0.242-1.037
		c0.11-0.215,0.242-0.388,0.394-0.519c0.045-0.034,0.067-0.064,0.067-0.093c0-0.091-0.053-0.225-0.158-0.4
		c-0.106-0.175-0.159-0.402-0.159-0.68c0-0.419,0.117-0.755,0.352-1.007s0.554-0.379,0.956-0.379c0.277,0,0.523,0.031,0.737,0.094
		c0.215,0.063,0.326,0.139,0.337,0.229v0.076v0.511c0,0.107-0.018,0.178-0.053,0.212s-0.073,0.051-0.113,0.051
		c-0.021,0-0.043-0.002-0.068-0.008s-0.07-0.02-0.136-0.043c-0.102-0.039-0.186-0.066-0.254-0.08
		c-0.068-0.015-0.145-0.021-0.23-0.021c-0.146,0-0.264,0.035-0.352,0.106c-0.088,0.07-0.132,0.174-0.132,0.31
		c0,0.153,0.024,0.313,0.075,0.477c0.05,0.164,0.118,0.325,0.204,0.484l0.62,1.156c0.056,0.107,0.089,0.168,0.102,0.183
		c0.013,0.014,0.032,0.021,0.057,0.021c0.016,0,0.028-0.018,0.038-0.052v-0.654c0-0.073,0.013-0.132,0.038-0.174
		C38.731,56.219,38.789,56.197,38.88,56.197z M38.116,58.263l-0.62-1.155c-0.021-0.04-0.045-0.082-0.075-0.128
		c-0.006-0.011-0.016-0.025-0.03-0.042c-0.035,0-0.073,0.064-0.113,0.195c-0.041,0.13-0.061,0.267-0.061,0.408
		c0,0.3,0.053,0.535,0.158,0.705c0.106,0.17,0.257,0.255,0.454,0.255c0.075,0,0.149-0.011,0.223-0.034
		c0.073-0.022,0.109-0.051,0.109-0.085L38.116,58.263z"/>
        <path fill="#3D6F96" d="M43.727,56.036v3.119c0,0.131-0.021,0.213-0.064,0.247s-0.11,0.051-0.2,0.051h-0.59
		c-0.091,0-0.151-0.012-0.182-0.034c-0.056-0.045-0.083-0.133-0.083-0.264v-5.354c0-0.103,0.01-0.17,0.03-0.204
		c0.04-0.063,0.118-0.094,0.234-0.094h0.673c0.075,0,0.141,0.028,0.196,0.085c0.03,0.028,0.056,0.068,0.075,0.119l0.817,1.836
		c0.01,0.028,0.023,0.06,0.041,0.094s0.034,0.051,0.049,0.051c0.021,0,0.039-0.021,0.058-0.063c0.018-0.043,0.026-0.066,0.026-0.072
		l0.816-1.819c0.04-0.085,0.083-0.145,0.128-0.179c0.046-0.033,0.099-0.051,0.159-0.051h0.635c0.116,0,0.189,0.024,0.22,0.072
		c0.03,0.049,0.045,0.123,0.045,0.226v5.354c0,0.131-0.021,0.213-0.064,0.247c-0.042,0.034-0.109,0.051-0.2,0.051h-0.59
		c-0.115,0-0.188-0.024-0.219-0.072s-0.046-0.123-0.046-0.226V56.13c-0.01-0.034-0.02-0.051-0.029-0.051l-0.023,0.017l-0.59,1.598
		c-0.03,0.091-0.061,0.15-0.091,0.179c-0.029,0.028-0.067,0.043-0.113,0.043h-0.257c-0.086,0-0.153-0.074-0.204-0.222l-0.604-1.666
		C43.759,56.033,43.741,56.036,43.727,56.036z"/>
        <path fill="#3D6F96" d="M50.055,57.396h-1.52c-0.036,0-0.06,0.01-0.072,0.029c-0.013,0.021-0.019,0.045-0.019,0.073v0.274
		c0,0.229,0.065,0.403,0.196,0.526s0.313,0.185,0.544,0.185c0.161,0,0.308-0.014,0.438-0.04c0.132-0.027,0.27-0.07,0.416-0.13
		c0.126-0.046,0.189,0,0.189,0.137v0.702c0,0.045-0.009,0.081-0.026,0.106c-0.018,0.026-0.057,0.053-0.117,0.081
		c-0.167,0.069-0.336,0.116-0.507,0.142c-0.172,0.025-0.325,0.039-0.461,0.039c-0.438,0-0.794-0.091-1.066-0.272
		c-0.424-0.283-0.635-0.765-0.635-1.445v-1.437c0-0.453,0.078-0.815,0.234-1.088c0.236-0.413,0.638-0.62,1.202-0.62
		c0.343,0,0.625,0.079,0.847,0.237c0.378,0.271,0.566,0.76,0.566,1.466v0.797c0,0.102-0.019,0.166-0.057,0.194
		C50.172,57.382,50.12,57.396,50.055,57.396z M48.52,56.461h0.643c0.03,0,0.056-0.028,0.076-0.084v-0.186
		c0-0.162-0.019-0.286-0.054-0.37c-0.065-0.151-0.176-0.228-0.332-0.228c-0.132,0-0.232,0.05-0.303,0.147
		c-0.07,0.099-0.105,0.249-0.105,0.45v0.186C48.444,56.433,48.469,56.461,48.52,56.461z"/>
        <path fill="#3D6F96" d="M52.693,54.854v-1.113c0-0.103,0.02-0.167,0.057-0.195c0.038-0.028,0.09-0.043,0.155-0.043h0.604
		c0.091,0,0.149,0.021,0.174,0.063c0.025,0.043,0.038,0.102,0.038,0.175v5.474c0,0.103-0.019,0.168-0.057,0.195
		c-0.037,0.029-0.088,0.043-0.153,0.043h-0.683c-0.091,0-0.136-0.04-0.136-0.119v-0.067c0-0.028-0.022-0.049-0.068-0.06
		c-0.076,0.085-0.173,0.158-0.292,0.221s-0.262,0.094-0.429,0.094c-0.415,0-0.699-0.19-0.851-0.57
		c-0.097-0.237-0.145-0.577-0.145-1.02v-1.513c0-0.487,0.053-0.861,0.159-1.122c0.171-0.425,0.481-0.638,0.93-0.638
		c0.156,0,0.272,0.02,0.348,0.06c0.101,0.068,0.201,0.136,0.303,0.204C52.668,54.923,52.684,54.9,52.693,54.854z M52.693,57.923
		v-1.666c0-0.147-0.018-0.264-0.053-0.349c-0.061-0.142-0.166-0.212-0.317-0.212s-0.257,0.07-0.317,0.212
		c-0.035,0.085-0.053,0.201-0.053,0.349v1.666c0,0.147,0.018,0.264,0.053,0.349c0.061,0.142,0.166,0.213,0.317,0.213
		s0.257-0.071,0.317-0.213C52.676,58.187,52.693,58.07,52.693,57.923z"/>
        <path fill="#3D6F96" d="M55.431,53.613v0.519c0,0.074-0.013,0.132-0.038,0.175c-0.025,0.042-0.083,0.063-0.174,0.063h-0.605
		c-0.09,0-0.148-0.021-0.174-0.063c-0.024-0.043-0.037-0.101-0.037-0.175v-0.519c0-0.073,0.013-0.132,0.037-0.174
		c0.025-0.043,0.084-0.063,0.174-0.063h0.605c0.065,0,0.117,0.014,0.155,0.042C55.411,53.446,55.431,53.512,55.431,53.613z
		 M55.431,54.965v4.25c0,0.103-0.02,0.168-0.057,0.195c-0.038,0.029-0.09,0.043-0.155,0.043h-0.605c-0.09,0-0.148-0.021-0.174-0.063
		c-0.024-0.043-0.037-0.101-0.037-0.175v-4.25c0-0.102,0.019-0.167,0.057-0.195c0.037-0.028,0.089-0.042,0.154-0.042h0.605
		c0.065,0,0.117,0.014,0.155,0.042C55.411,54.798,55.431,54.863,55.431,54.965z"/>
        <path fill="#3D6F96" d="M58.719,56.002v3.153c0,0.091-0.008,0.153-0.022,0.188c-0.035,0.073-0.104,0.11-0.204,0.11h-0.635
		c-0.097,0-0.145-0.045-0.145-0.136c0-0.04-0.02-0.06-0.061-0.06c-0.035,0.017-0.058,0.031-0.067,0.042
		c-0.065,0.068-0.158,0.122-0.276,0.162c-0.118,0.039-0.233,0.06-0.344,0.06c-0.292,0-0.532-0.119-0.719-0.357
		c-0.206-0.267-0.31-0.643-0.31-1.131c0-0.577,0.166-1.028,0.499-1.352c0.196-0.187,0.526-0.376,0.99-0.569l0.189-0.076
		c0.05-0.022,0.075-0.068,0.075-0.136c0-0.119-0.047-0.201-0.14-0.247c-0.094-0.045-0.208-0.067-0.344-0.067
		c-0.142,0-0.25,0.008-0.325,0.025c-0.086,0.028-0.16,0.051-0.224,0.067c-0.063,0.018-0.112,0.034-0.147,0.052
		c-0.096,0.039-0.156,0.06-0.181,0.06c-0.096,0-0.144-0.052-0.144-0.153v-0.527c0-0.107,0.055-0.198,0.166-0.271
		c0.187-0.119,0.501-0.179,0.945-0.179c0.574,0,0.973,0.147,1.194,0.442C58.644,55.305,58.719,55.605,58.719,56.002z M57.69,58.178
		V57.09c0-0.028-0.01-0.048-0.03-0.06c-0.02-0.011-0.045-0.005-0.075,0.018l-0.129,0.094c-0.151,0.107-0.257,0.209-0.317,0.306
		c-0.086,0.136-0.129,0.309-0.129,0.519c0,0.147,0.028,0.271,0.084,0.369c0.055,0.1,0.138,0.149,0.249,0.149
		c0.101,0,0.184-0.031,0.25-0.094C57.658,58.328,57.69,58.258,57.69,58.178z"/>
        <path fill="#3D6F96" d="M61.592,59.155v-5.354c0-0.103,0.01-0.17,0.03-0.204c0.04-0.063,0.118-0.094,0.234-0.094h0.59
		c0.115,0,0.188,0.024,0.219,0.072c0.03,0.049,0.046,0.123,0.046,0.226v4.445c0,0.068,0.027,0.102,0.083,0.102H64.2
		c0.085,0,0.141,0.019,0.166,0.056s0.038,0.089,0.038,0.157v0.595c0,0.103-0.011,0.17-0.03,0.204
		c-0.041,0.063-0.119,0.094-0.234,0.094h-2.283c-0.091,0-0.151-0.012-0.182-0.034C61.619,59.374,61.592,59.286,61.592,59.155z"/>
        <path fill="#3D6F96" d="M67.504,56.002v3.153c0,0.091-0.008,0.153-0.022,0.188c-0.035,0.073-0.104,0.11-0.204,0.11h-0.635
		c-0.097,0-0.145-0.045-0.145-0.136c0-0.04-0.02-0.06-0.061-0.06c-0.035,0.017-0.058,0.031-0.067,0.042
		c-0.065,0.068-0.158,0.122-0.276,0.162c-0.118,0.039-0.233,0.06-0.344,0.06c-0.292,0-0.532-0.119-0.719-0.357
		c-0.206-0.267-0.31-0.643-0.31-1.131c0-0.577,0.166-1.028,0.499-1.352c0.196-0.187,0.526-0.376,0.99-0.569l0.189-0.076
		c0.05-0.022,0.075-0.068,0.075-0.136c0-0.119-0.047-0.201-0.14-0.247c-0.094-0.045-0.208-0.067-0.344-0.067
		c-0.142,0-0.25,0.008-0.325,0.025c-0.086,0.028-0.16,0.051-0.224,0.067c-0.063,0.018-0.112,0.034-0.147,0.052
		c-0.096,0.039-0.156,0.06-0.181,0.06c-0.096,0-0.144-0.052-0.144-0.153v-0.527c0-0.107,0.055-0.198,0.166-0.271
		c0.187-0.119,0.501-0.179,0.945-0.179c0.574,0,0.973,0.147,1.194,0.442C67.429,55.305,67.504,55.605,67.504,56.002z M66.476,58.178
		V57.09c0-0.028-0.01-0.048-0.03-0.06c-0.02-0.011-0.045-0.005-0.075,0.018l-0.129,0.094c-0.151,0.107-0.257,0.209-0.317,0.306
		c-0.086,0.136-0.129,0.309-0.129,0.519c0,0.147,0.028,0.271,0.084,0.369c0.055,0.1,0.138,0.149,0.249,0.149
		c0.101,0,0.184-0.031,0.25-0.094C66.443,58.328,66.476,58.258,66.476,58.178z"/>
        <path fill="#3D6F96" d="M69.138,53.741v1.113c0.005,0.046,0.012,0.068,0.022,0.068c0.045-0.012,0.127-0.059,0.245-0.141
		c0.119-0.082,0.276-0.123,0.473-0.123c0.338,0,0.582,0.1,0.733,0.298c0.207,0.271,0.311,0.759,0.311,1.462v1.513
		c0,0.465-0.046,0.808-0.137,1.028c-0.156,0.374-0.451,0.562-0.884,0.562c-0.167,0-0.306-0.025-0.416-0.077
		c-0.111-0.051-0.222-0.104-0.333-0.161c-0.025,0-0.056,0.02-0.091,0.06l-0.038,0.051c-0.035,0.04-0.078,0.06-0.128,0.06H68.32
		c-0.09,0-0.148-0.021-0.174-0.063c-0.024-0.043-0.037-0.101-0.037-0.175v-5.474c0-0.103,0.019-0.167,0.057-0.195
		c0.037-0.028,0.089-0.043,0.154-0.043h0.605c0.091,0,0.148,0.021,0.174,0.063C69.125,53.609,69.138,53.668,69.138,53.741z
		 M69.138,56.257v1.666c0,0.147,0.018,0.264,0.053,0.349c0.061,0.142,0.166,0.213,0.317,0.213s0.257-0.071,0.317-0.213
		c0.035-0.085,0.053-0.201,0.053-0.349v-1.666c0-0.147-0.018-0.264-0.053-0.349c-0.061-0.142-0.166-0.212-0.317-0.212
		s-0.257,0.07-0.317,0.212C69.155,55.993,69.138,56.109,69.138,56.257z"/>
</g>
</svg>
