<?xml version="1.0" encoding="UTF-8"?>
<svg width="271.73" height="219.88" version="1.1" viewBox="0 0 271.73 219.88" xml:space="preserve" xmlns="http://www.w3.org/2000/svg" xmlns:cc="http://creativecommons.org/ns#" xmlns:dc="http://purl.org/dc/elements/1.1/" xmlns:rdf="http://www.w3.org/1999/02/22-rdf-syntax-ns#" xmlns:xlink="http://www.w3.org/1999/xlink"><metadata><rdf:RDF><cc:Work rdf:about=""><dc:format>image/svg+xml</dc:format><dc:type rdf:resource="http://purl.org/dc/dcmitype/StillImage"/><dc:title/></cc:Work></rdf:RDF></metadata><defs><linearGradient id="linearGradient917" x2="1" gradientTransform="matrix(212.97 0 0 212.97 -4.1221 125.26)" gradientUnits="userSpaceOnUse"><stop stop-color="#440b54" offset="0"/><stop stop-color="#577a90" offset="1"/></linearGradient></defs><g transform="matrix(1.3333 0 0 -1.3333 -227.05 488.9)"><path transform="matrix(.75 0 0 -.75 184.99 366.67)" d="m164.01 5v41.93h-7.2715c3.7435 6.1421 7.4874 12.285 11.23 18.428 0.28472 0.46701 0.56879 0.93338 0.85351 1.4004 4.0284-6.609 8.0556-13.219 12.084-19.828h-7.2656v-41.93zm-61.6 14.215c-2.6557 0.04143-5.298 0.53226-7.7637 1.5566-7.7823 3.1234-13.258 10.768-14.424 18.984-0.56413 4.9161-0.82733 9.8654-1.2695 14.795 2.5637 1.8449 5.1304 3.6861 7.6953 5.5293 0.47916 0.34461 0.95834 0.68859 1.4375 1.0332 0.34397-4.2457 0.68212-8.4923 1.0234-12.738 0.4292-3.9786 0.17718-8.1954 2.0801-11.85 2.1453-4.6104 7.0447-8.0794 12.242-7.6641 17.366 2.2312 34.72 4.5796 52.082 6.8535v-9.7207c-16.115-2.1278-32.229-4.2585-48.344-6.3867-1.5676-0.28136-3.1663-0.41743-4.7598-0.39258zm-82.893 4.1582c-1.7603-0.04159-3.5269 0.26171-5.1719 0.94336-5.521 2.1079-9.2102 7.8267-9.3145 13.672-0.0412 29.507-0.00558 59.016-0.017578 88.523-0.24843 5.2645 2.1836 10.691 6.6465 13.609 4.2636 2.9821 10.263 3.1598 14.662 0.36329 16.149-10.848 32.243-21.78 48.371-32.66-0.30987 3.8634-0.61981 7.7265-0.92969 11.59-0.7314 6.0746 0.4972 12.443 3.8906 17.58 3.7989 5.9651 10.442 10.175 17.576 10.463 0.58736 0.016 1.1725 0.0403 1.7598 8e-3 19.51-1.2013 39.015-2.5103 58.523-3.752v-9.6602c-17.694 1.1463-35.389 2.286-53.084 3.4297-3.3897 0.0911-6.9349 0.93989-10.199-0.37304-5.6856-2.125-9.1701-8.266-9.0332-14.201 0.24325-4.4978 0.71698-9.1666 1.0508-13.742 0.48299-3.127-0.29166-6.545-2.6016-8.8047-2.6897-2.8632-7.3337-3.5865-10.727-1.5703-15.412 10.342-30.763 20.776-46.152 31.154-1.6086 0.93454-2.9828 2.382-4.8184 2.8555-2.846 0.47543-5.2077-2.317-5.2852-4.9902-0.04253-28.363-0.0056-56.726-0.01758-85.09 0.15137-2.3846-0.46059-4.971 0.73633-7.1699 1.0341-2.0764 3.8484-3.3464 5.9141-1.9609 24.922 17.852 49.803 35.766 74.709 53.641 6.1408-7.9009 12.281-15.802 18.422-23.703 5.2928 23.735 10.57 47.473 15.873 71.205 5.4694-18.641 10.911-37.289 16.369-55.934 3.9369 8.4252 7.8725 16.851 11.811 25.275 6.5263-6.2106 13.049-12.423 19.574-18.635 4.2147 5.1369 8.4285 10.274 12.645 15.41 4.4-3.9239 8.8022-7.8446 13.203-11.768 4.4047 3.4946 8.8073 6.9909 13.213 10.484 4.5141-3.767 9.0259-7.5367 13.539-11.305 1.4546 1.0368 2.9095 2.0741 4.3652 3.1094v-11.828c-1.7711-1.2578-3.5467-2.5118-5.3164-3.7715-4.4109 3.6649-8.8242 7.3268-13.236 10.99-4.3081-3.4211-8.6159-6.8423-12.924-10.264-4.0905 3.6427-8.1768 7.2909-12.266 10.936-4.5066-5.4397-9.0104-10.883-13.52-16.32-5.2153 5.0755-10.429 10.151-15.645 15.227-5.4094-13.041-10.814-26.085-16.227-39.125-4.775 16.311-9.5498 32.624-14.324 48.936-4.2673-19.157-8.5339-38.315-12.801-57.473-8.8419 11.33-17.685 22.66-26.527 33.99-21.521-15.453-43.035-30.913-64.553-46.369-2.3129-1.8289-5.2303-2.8565-8.1641-2.9258zm162.61 6.2109v9.7207c2.8083 0.4382-0.0521-0.24674 2.7168 0.40625 5.5734 1.5708 9.3508 7.0864 9.8457 12.709 0.19653 3.9366 0.0352 7.8865 0.0879 11.828v1h9.6309c-2e-5 -1.222 0-2.444 0-3.666-0.11435-4.8092 0.44347-9.7336-0.94141-14.418-2.1048-7.9061-8.381-14.777-16.402-16.832-3.4984-0.82983-1.3887-0.20045-4.9375-0.74805zm-13.309 77.949c-4.0284 6.609-8.0556 13.219-12.084 19.828h7.2656v41.932c3.2101 0 6.4208-1e-5 9.6309 0v-41.932h7.2715c-4.0284-6.609-8.0556-13.219-12.084-19.828zm25.959 1.0586v7.2617c0.21244 3.9416-0.68119 8.0404-3.1113 11.217-2.2101 3.0609-5.7692 5.0597-9.5391 5.3242v9.6406c2.722-0.19431 5.4494-0.68507 7.9531-1.8066 7.9-3.3545 13.293-11.374 14.16-19.822 0.34149-3.9258 0.0906-7.878 0.16797-11.814z" fill="url(#linearGradient917)"/><g transform="matrix(.97644 0 0 .97644 6.4118 43.313)" fill="#2c0b39"><path d="m173.71 182.11c-0.66479 0.35686-1.1703 0.87747-1.52 1.5618-0.34885 0.68347-0.52328 1.5093-0.52328 2.4785v3.3684c0 0.96736 0.17443 1.7932 0.52328 2.4776 0.34975 0.68347 0.85523 1.2059 1.52 1.5654 0.66389 0.36043 1.463 0.54108 2.3975 0.54108 0.77157 0 1.4604-0.16641 2.0682-0.49836 0.60872-0.33195 1.1106-0.81518 1.5076-1.4479 0.39691-0.63363 0.67101-1.3963 0.82319-2.2916h-2.3984c-0.089 0.40492-0.22872 0.75111-0.41738 1.0377-0.18867 0.28656-0.41649 0.50637-0.68436 0.65855-0.26699 0.15129-0.56689 0.22783-0.89884 0.22783-0.4334 0-0.80184-0.0881-1.1062-0.26609-0.30347-0.1771-0.53575-0.43518-0.69593-0.77603-0.16019-0.34174-0.24118-0.75022-0.24118-1.2281v-3.3684c0-0.47967 0.081-0.88726 0.24118-1.2254 0.16018-0.33729 0.39246-0.59537 0.69593-0.77247 0.30435-0.17709 0.67279-0.26609 1.1062-0.26609 0.33729 0 0.64164 0.0756 0.91218 0.22427 0.26966 0.14862 0.49748 0.36754 0.68348 0.65499 0.18599 0.28656 0.32037 0.63542 0.40492 1.0466h2.3984c-0.15841-0.89528-0.43518-1.6597-0.83209-2.2934-0.39602-0.63275-0.89706-1.1151-1.5022-1.447-0.60604-0.33195-1.2931-0.49748-2.0646-0.49748-0.93444 0-1.7336 0.17799-2.3975 0.53575"/><path d="m196.59 184.15c0.31504 0.1771 0.55888 0.42984 0.72975 0.75645 0.17265 0.3266 0.25808 0.70216 0.25808 1.1311v3.5962c0 0.42717-0.0854 0.8045-0.25808 1.1311-0.17087 0.3266-0.41471 0.57846-0.72975 0.75555-0.31593 0.17799-0.68169 0.2661-1.0973 0.2661-0.41649 0-0.78226-0.0881-1.0982-0.2661-0.31504-0.17709-0.55888-0.42895-0.72975-0.75555-0.17265-0.32661-0.25808-0.70394-0.25808-1.1311v-3.5962c0-0.42895 0.0854-0.80451 0.25808-1.1311 0.17087-0.32661 0.41471-0.57935 0.72975-0.75645 0.31592-0.1771 0.68169-0.26609 1.0982-0.26609 0.4156 0 0.78136 0.089 1.0973 0.26609m-3.4485-2.0175c-0.67902 0.37467-1.2032 0.90329-1.5752 1.5868-0.3711 0.68436-0.5571 1.4764-0.5571 2.377v3.4788c0 0.89973 0.186 1.6927 0.5571 2.3761 0.372 0.68437 0.89617 1.213 1.5752 1.5876 0.67725 0.37378 1.4613 0.56155 2.3512 0.56155 0.88905 0 1.6731-0.18777 2.3503-0.56155 0.67903-0.37466 1.2032-0.90328 1.5752-1.5876 0.372-0.68347 0.5571-1.4764 0.5571-2.3761v-3.4788c0-0.90061-0.1851-1.6927-0.5571-2.377-0.37199-0.68347-0.89616-1.2121-1.5752-1.5868-0.67724-0.37466-1.4613-0.56155-2.3503-0.56155-0.88994 0-1.674 0.18689-2.3512 0.56155"/><path d="m218.79 193.97h3.048v-12.277h-2.102v9.5321l0.0837-0.5402-2.3468-7.6241h-2.0433l-2.3468 7.455 0.0846 0.70929v-9.5321h-2.1029v12.277h3.0489l2.3379-8.2746z"/><path d="m234.24 188.69h3.9264c0.27499 0 0.51883 0.0641 0.72974 0.18956 0.21092 0.12815 0.37556 0.30614 0.49392 0.53663s0.17799 0.49569 0.17799 0.79382c0 0.30347-0.0587 0.57223-0.17354 0.80629-0.11569 0.23405-0.27944 0.41382-0.48947 0.54108-0.2118 0.12548-0.45742 0.18956-0.73864 0.18956h-3.9264v2.2293h3.8668c0.76535 0 1.439-0.15663 2.0219-0.469 0.58291-0.31326 1.035-0.75288 1.3554-1.3216 0.32038-0.56867 0.48146-1.2272 0.48146-1.9757 0-0.74843-0.16108-1.4052-0.48146-1.9712-0.32037-0.56511-0.77246-1.003-1.3554-1.3136-0.58291-0.3088-1.2566-0.46454-2.0219-0.46454h-3.8668zm-1.0555 5.2862h2.3138v-12.277h-2.3138z"/><path d="m256.1 187.02 2.474 0.38802 3.3097-5.7072h-2.8033zm-2.5835 1.8484h4.2717c0.23673 0 0.44497 0.0587 0.62563 0.1771 0.17977 0.11747 0.3186 0.28656 0.41738 0.50726 0.0979 0.21893 0.1504 0.47167 0.15574 0.75912 0 0.28745-0.0489 0.54108-0.14773 0.76001-0.0979 0.21981-0.23761 0.3889-0.41738 0.50726-0.18066 0.11747-0.39157 0.1771-0.63364 0.1771h-4.2717v2.2284h4.4577c0.67546 0 1.269-0.15129 1.7816-0.45564 0.51172-0.30347 0.90863-0.73331 1.1898-1.2877s0.42272-1.1979 0.42272-1.9294-0.1415-1.3741-0.42272-1.9294c-0.28122-0.55443-0.67902-0.98249-1.1943-1.2868-0.51528-0.30347-1.1071-0.45654-1.7772-0.45654h-4.4577zm-0.92019 5.1162h2.3138v-12.285h-2.3138z"/><path d="m273.35 183.92h7.3874v-2.2293h-7.3874zm0 4.9819h6.4592v-2.2293h-6.4592zm0 5.0655h7.3874v-2.2293h-7.3874zm-0.83654 0h2.3138v-12.277h-2.3138z"/><path d="m293.64 181.75c-0.56066 0.11837-1.0857 0.29101-1.5788 0.51884-0.49302 0.22782-0.93265 0.50281-1.3216 0.82319l1.0724 1.908c0.47256-0.38891 1.019-0.68793 1.6384-0.89973 0.6185-0.21003 1.2548-0.31593 1.9071-0.31593 0.75467 0 1.3402 0.12726 1.7567 0.38445 0.41649 0.25631 0.62473 0.61762 0.62473 1.0848v8e-3c0 0.32661-0.0934 0.58469-0.27855 0.77691-0.18599 0.19134-0.42806 0.33195-0.72618 0.42183-0.29813 0.0908-0.68081 0.17265-1.148 0.24563-0.0169 5e-3 -0.0329 8e-3 -0.0463 8e-3 -0.0142 0-0.0303 3e-3 -0.0472 8e-3l-0.1851 0.0258c-0.82231 0.12904-1.5031 0.2919-2.0433 0.48502-0.54019 0.19401-0.9994 0.53485-1.3767 1.0225-0.37645 0.4859-0.56511 1.1774-0.56511 2.0727v8e-3c0 0.79294 0.17709 1.472 0.53218 2.0344 0.35419 0.56244 0.86947 0.99228 1.544 1.2877 0.67635 0.29546 1.4915 0.44319 2.4491 0.44319 0.43874 0 0.88816-0.0507 1.3465-0.15129 0.45832-0.10234 0.90774-0.24829 1.3465-0.43874 0.43874-0.19223 0.85612-0.42272 1.2495-0.69237l-0.97893-1.9596c-0.47345 0.3266-0.96736 0.58023-1.4826 0.76-0.51438 0.18066-1.0083 0.27054-1.4808 0.27054-0.70928 0-1.2584-0.11658-1.6464-0.35063-0.38801-0.23406-0.58291-0.56155-0.58291-0.98338v-9e-3c0-0.3542 0.10146-0.63453 0.30347-0.8401 0.20291-0.20558 0.45387-0.35598 0.752-0.4512 0.29813-0.0961 0.71818-0.19757 1.2584-0.30436 0.0222-6e-3 0.0445-0.01 0.0676-0.0134 0.0214-2e-3 0.0445-6e-3 0.0667-0.0125 0.0347-5e-3 0.0668-0.0125 0.097-0.0205 0.0311-8e-3 0.0632-0.0151 0.0979-0.0214 0.77602-0.15129 1.4248-0.33639 1.9454-0.55354 0.52062-0.21625 0.95579-0.56511 1.3046-1.0466 0.34886-0.48057 0.52328-1.1382 0.52328-1.9703v-0.0178c0-0.78226-0.18243-1.4524-0.54909-2.0086-0.36576-0.5571-0.89883-0.98338-1.5992-1.2753-0.70038-0.29279-1.5432-0.43874-2.5292-0.43874-0.58469 0-1.1578 0.0587-1.7176 0.17709"/><path d="m312.93 181.75c-0.56066 0.11837-1.0857 0.29101-1.5788 0.51884-0.49302 0.22782-0.93265 0.50281-1.3216 0.82319l1.0724 1.908c0.47256-0.38891 1.0181-0.68793 1.6384-0.89973 0.61851-0.21003 1.2548-0.31593 1.9071-0.31593 0.75467 0 1.3402 0.12726 1.7567 0.38445 0.41649 0.25631 0.62473 0.61762 0.62473 1.0848v8e-3c0 0.32661-0.0934 0.58469-0.27855 0.77691-0.18599 0.19134-0.42806 0.33195-0.72619 0.42183-0.29812 0.0908-0.6808 0.17265-1.148 0.24563-0.0169 5e-3 -0.0329 8e-3 -0.0463 8e-3 -0.0142 0-0.0303 3e-3 -0.0472 8e-3l-0.18511 0.0258c-0.8223 0.12904-1.5031 0.2919-2.0433 0.48502-0.54019 0.19401-0.9994 0.53485-1.3767 1.0225-0.37644 0.4859-0.56511 1.1774-0.56511 2.0727v8e-3c0 0.79294 0.1771 1.472 0.53219 2.0344 0.35419 0.56244 0.86947 0.99228 1.544 1.2877 0.67635 0.29546 1.4915 0.44319 2.4491 0.44319 0.43874 0 0.88815-0.0507 1.3465-0.15129 0.45832-0.10234 0.90774-0.24829 1.3465-0.43874 0.43874-0.19223 0.85612-0.42272 1.2495-0.69237l-0.97893-1.9596c-0.47345 0.3266-0.96736 0.58023-1.4826 0.76-0.51438 0.18066-1.0083 0.27054-1.4808 0.27054-0.70928 0-1.2584-0.11658-1.6464-0.35063-0.38801-0.23406-0.58291-0.56155-0.58291-0.98338v-9e-3c0-0.3542 0.10146-0.63453 0.30347-0.8401 0.20291-0.20558 0.45387-0.35598 0.752-0.4512 0.29813-0.0961 0.71818-0.19757 1.2584-0.30436 0.0223-6e-3 0.0445-0.01 0.0676-0.0134 0.0213-2e-3 0.0445-6e-3 0.0667-0.0125 0.0347-5e-3 0.0668-0.0125 0.097-0.0205 0.0312-8e-3 0.0632-0.0151 0.0979-0.0214 0.77602-0.15129 1.4248-0.33639 1.9454-0.55354 0.52061-0.21625 0.95579-0.56511 1.3046-1.0466 0.34885-0.48057 0.52328-1.1382 0.52328-1.9703v-0.0178c0-0.78226-0.18243-1.4524-0.54909-2.0086-0.36576-0.5571-0.89884-0.98338-1.5992-1.2753-0.70038-0.29279-1.5432-0.43874-2.5292-0.43874-0.58469 0-1.1578 0.0587-1.7176 0.17709"/><path d="m332.31 181.7h-2.3975v12.277h2.3975z"/><path d="m348.81 184.15c0.31504 0.1771 0.55888 0.42984 0.72975 0.75645 0.17265 0.3266 0.25808 0.70216 0.25808 1.1311v3.5962c0 0.42717-0.0854 0.8045-0.25808 1.1311-0.17087 0.3266-0.41471 0.57846-0.72975 0.75555-0.31593 0.17799-0.68169 0.2661-1.0973 0.2661-0.41649 0-0.78226-0.0881-1.0982-0.2661-0.31503-0.17709-0.55888-0.42895-0.72974-0.75555-0.17265-0.32661-0.25809-0.70394-0.25809-1.1311v-3.5962c0-0.42895 0.0854-0.80451 0.25809-1.1311 0.17086-0.32661 0.41471-0.57935 0.72974-0.75645 0.31593-0.1771 0.6817-0.26609 1.0982-0.26609 0.4156 0 0.78136 0.089 1.0973 0.26609m-3.4485-2.0175c-0.67902 0.37467-1.2032 0.90329-1.5752 1.5868-0.3711 0.68436-0.5571 1.4764-0.5571 2.377v3.4788c0 0.89973 0.186 1.6927 0.5571 2.3761 0.372 0.68437 0.89617 1.213 1.5752 1.5876 0.67724 0.37378 1.4613 0.56155 2.3512 0.56155 0.88904 0 1.6731-0.18777 2.3503-0.56155 0.67902-0.37466 1.2032-0.90328 1.5752-1.5876 0.372-0.68347 0.5571-1.4764 0.5571-2.3761v-3.4788c0-0.90061-0.1851-1.6927-0.5571-2.377-0.37199-0.68347-0.89617-1.2121-1.5752-1.5868-0.67724-0.37466-1.4613-0.56155-2.3503-0.56155-0.88994 0-1.674 0.18689-2.3512 0.56155"/><path d="m363.29 193.97h2.8273l4.568-9.4058-0.20202-0.21981v9.6256h2.2115v-12.269h-2.8451l-4.5502 9.2625 0.20201 0.21893v-9.4814h-2.2115z"/><path d="m352.72 170.54 1.1017 0.30258 2.4402-4.6312h-1.358zm-2.8264 0.78047h3.2527c0.30614 0 0.5749 0.0694 0.80717 0.20647 0.23139 0.13705 0.41026 0.33461 0.53752 0.59003 0.12727 0.2563 0.19223 0.54998 0.19668 0.88281 0 0.33195-0.0632 0.62652-0.19045 0.88193-0.12637 0.2563-0.30613 0.45298-0.53752 0.58914-0.23138 0.13794-0.50281 0.20736-0.8134 0.20736h-3.2527v1.0759h3.2002c0.55087 0 1.035-0.1148 1.4533-0.34174 0.41738-0.22693 0.74043-0.54998 0.97003-0.96647 0.22961-0.41827 0.34441-0.89972 0.34441-1.4462 0-0.54731-0.1148-1.0288-0.34441-1.447-0.2296-0.41739-0.55443-0.73954-0.97359-0.96648-0.42005-0.22782-0.90329-0.34173-1.4497-0.34173h-3.2002zm-0.5838 4.4337h1.1409v-9.5428h-1.1409z"/><path d="m367.5 166.52c-0.49925 0.26609-0.87391 0.66122-1.1276 1.1836-0.25363 0.52239-0.38089 1.1658-0.38089 1.9312v6.1183h1.1418v-6.1646c0-0.76534 0.186-1.3474 0.55977-1.7469 0.37466-0.40137 0.92198-0.59982 1.6437-0.59982 0.7244 0 1.2753 0.19845 1.6517 0.59982 0.37644 0.39958 0.56422 0.9816 0.56422 1.7469v6.1646h1.1418v-6.1183c0-0.76535-0.12726-1.4088-0.38089-1.9312-0.25364-0.5224-0.63097-0.91753-1.1311-1.1836-0.50015-0.26787-1.1169-0.40047-1.8457-0.40047-0.72619 0-1.3385 0.1326-1.8368 0.40047"/><path d="m338.31 170.49h-163.98v0.88905h163.98z"/></g></g></svg>
