<?xml version="1.0" encoding="UTF-8" standalone="no"?>
<svg
   xmlns:dc="http://purl.org/dc/elements/1.1/"
   xmlns:cc="http://creativecommons.org/ns#"
   xmlns:rdf="http://www.w3.org/1999/02/22-rdf-syntax-ns#"
   xmlns:svg="http://www.w3.org/2000/svg"
   xmlns="http://www.w3.org/2000/svg"
   xmlns:xlink="http://www.w3.org/1999/xlink"
   xmlns:sodipodi="http://sodipodi.sourceforge.net/DTD/sodipodi-0.dtd"
   xmlns:inkscape="http://www.inkscape.org/namespaces/inkscape"
   sodipodi:docname="logo_change.svg"
   inkscape:version="1.0 (4035a4fb49, 2020-05-01)"
   id="svg8"
   version="1.1"
   viewBox="0 0 184.49194 83.62822"
   height="83.62822mm"
   width="184.49194mm">
  <defs
     id="defs2">
    <rect
       id="rect916"
       height="17.008928"
       width="67.279762"
       y="142.875"
       x="16.630953" />
    <linearGradient
       xlink:href="#linearGradient1017"
       id="linearGradient917"
       spreadMethod="pad"
       gradientTransform="matrix(56.34868,0,0,56.34868,112.2991,131.03651)"
       gradientUnits="userSpaceOnUse"
       y2="0"
       x2="1"
       y1="0"
       x1="0">
      <stop
         id="stop913"
         offset="0"
         style="stop-opacity:1;stop-color:#440b54" />
      <stop
         id="stop915"
         offset="1"
         style="stop-opacity:1;stop-color:#577a90" />
    </linearGradient>
    <linearGradient
       id="linearGradient1017"
       spreadMethod="pad"
       gradientTransform="matrix(159.72855,0,0,-159.72855,182.78707,342.35862)"
       gradientUnits="userSpaceOnUse"
       y2="0"
       x2="1"
       y1="0"
       x1="0">
      <stop
         id="stop1013"
         offset="0"
         style="stop-opacity:1;stop-color:#a21acc" />
      <stop
         id="stop1015"
         offset="1"
         style="stop-opacity:1;stop-color:#0b8adc" />
    </linearGradient>
    <rect
       x="16.630953"
       y="142.875"
       width="81.264877"
       height="17.764881"
       id="rect926" />
  </defs>
  <sodipodi:namedview
     inkscape:window-maximized="1"
     inkscape:window-y="-8"
     inkscape:window-x="-8"
     inkscape:window-height="705"
     inkscape:window-width="1366"
     fit-margin-bottom="20"
     fit-margin-right="10"
     fit-margin-left="10"
     fit-margin-top="20"
     lock-margins="false"
     inkscape:snap-center="true"
     inkscape:snap-object-midpoints="true"
     inkscape:snap-global="true"
     inkscape:guide-bbox="true"
     showguides="false"
     showgrid="false"
     inkscape:document-rotation="0"
     inkscape:current-layer="layer1"
     inkscape:document-units="mm"
     inkscape:cy="177.23191"
     inkscape:cx="316.86955"
     inkscape:zoom="0.7"
     inkscape:pageshadow="2"
     inkscape:pageopacity="0.0"
     borderopacity="1.0"
     bordercolor="#666666"
     pagecolor="#ffffff"
     id="base">
    <sodipodi:guide
       id="guide907"
       orientation="0,-1"
       position="144.06195,41.734586" />
    <sodipodi:guide
       id="guide920"
       orientation="1,0"
       position="41.402114,41.734596" />
    <sodipodi:guide
       id="guide922"
       orientation="1,0"
       position="144.06195,41.734586" />
    <sodipodi:guide
       id="guide928"
       orientation="0,-1"
       position="41.402113,10.842856" />
  </sodipodi:namedview>
  <metadata
     id="metadata5">
    <rdf:RDF>
      <cc:Work
         rdf:about="">
        <dc:format>image/svg+xml</dc:format>
        <dc:type
           rdf:resource="http://purl.org/dc/dcmitype/StillImage" />
        <dc:title></dc:title>
      </cc:Work>
    </rdf:RDF>
  </metadata>
  <g
     transform="translate(-1.0803936,-79.058747)"
     id="layer1"
     inkscape:groupmode="layer"
     inkscape:label="Layer 1">
    <path
       d="m 156.78502,99.21779 v 11.0939 h -1.92392 c 0.99048,1.62509 1.98103,3.25051 2.9714,4.87567 0.0753,0.12356 0.15049,0.24695 0.22582,0.37052 1.06586,-1.74863 2.13139,-3.49755 3.19722,-5.24619 h -1.92236 v -11.0939 z m -16.29823,3.76101 c -0.70266,0.011 -1.40177,0.14083 -2.05414,0.41186 -2.05907,0.82641 -3.50788,2.84904 -3.81631,5.02295 -0.14926,1.30072 -0.2189,2.61022 -0.3359,3.91449 0.67831,0.48813 1.35743,0.97528 2.03606,1.46296 0.12677,0.0912 0.25356,0.18219 0.38033,0.27337 0.091,-1.12336 0.18048,-2.24693 0.27079,-3.37034 0.11356,-1.05267 0.0469,-2.16838 0.55035,-3.13521 0.56761,-1.21984 1.86393,-2.13768 3.23908,-2.02778 4.59479,0.59035 9.18647,1.21168 13.78004,1.81332 v -2.57193 c -4.2637,-0.56297 -8.52727,-1.12672 -12.79095,-1.68982 -0.41476,-0.0744 -0.83776,-0.11045 -1.25935,-0.10387 z m -21.932,1.10019 c -0.46573,-0.011 -0.93317,0.0692 -1.36839,0.2496 -1.46075,0.55771 -2.43686,2.07081 -2.46445,3.61735 -0.0109,7.807 -0.001,15.61469 -0.005,23.42183 -0.0657,1.39289 0.57774,2.82859 1.75855,3.60081 1.12808,0.78901 2.71531,0.83602 3.87935,0.0961 4.27271,-2.8701 8.53097,-5.76268 12.79819,-8.64134 -0.082,1.02218 -0.16399,2.0443 -0.24598,3.06648 -0.19352,1.60723 0.13155,3.29212 1.02939,4.6514 1.00514,1.57826 2.76276,2.69215 4.65036,2.76831 0.15541,0.004 0.31023,0.0107 0.46561,0.002 5.16197,-0.31784 10.3228,-0.66418 15.48433,-0.99271 v -2.55592 c -4.68167,0.30328 -9.36344,0.60482 -14.04514,0.90744 -0.89685,0.0241 -1.83486,0.24868 -2.69855,-0.0987 -1.50432,-0.56224 -2.42625,-2.18704 -2.39003,-3.7574 0.0644,-1.19005 0.1897,-2.42531 0.27802,-3.63594 0.12779,-0.82737 -0.0772,-1.7317 -0.68833,-2.32958 -0.71165,-0.75756 -1.94038,-0.94893 -2.83807,-0.41548 -4.07764,2.73637 -8.1395,5.49708 -12.21114,8.24291 -0.4256,0.24726 -0.78919,0.63024 -1.27486,0.75551 -0.75301,0.12581 -1.37787,-0.61302 -1.39836,-1.32032 -0.0113,-7.50434 -0.001,-15.00886 -0.005,-22.51335 0.0401,-0.63092 -0.12186,-1.31524 0.19482,-1.89704 0.27361,-0.54938 1.01822,-0.8854 1.56476,-0.51883 6.59396,4.72331 13.17696,9.46297 19.76676,14.19241 1.62476,-2.09044 3.2494,-4.18097 4.87412,-6.27145 1.40038,6.27983 2.79654,12.56048 4.19974,18.83968 1.44711,-4.93216 2.88676,-9.8661 4.33101,-14.7991 1.04162,2.22918 2.08292,4.45842 3.12487,6.68745 1.72675,-1.64323 3.45251,-3.28696 5.17901,-4.93045 1.11513,1.35915 2.23004,2.71842 3.34553,4.07727 1.16417,-1.0382 2.32893,-2.07556 3.49333,-3.11351 1.16541,0.92461 2.33027,1.84968 3.49591,2.774 1.19435,-0.99668 2.38809,-1.99408 3.58221,-2.99104 0.38486,0.27433 0.76981,0.54877 1.15497,0.82269 v -3.12957 c -0.46861,-0.33279 -0.9384,-0.66457 -1.40663,-0.99788 -1.16705,0.96968 -2.33475,1.93854 -3.50212,2.90784 -1.13985,-0.90516 -2.27962,-1.81037 -3.41943,-2.7156 -1.08228,0.96381 -2.16343,1.92907 -3.24527,2.89337 -1.19237,-1.43926 -2.38401,-2.87939 -3.57705,-4.31809 -1.37989,1.34289 -2.7594,2.6858 -4.13928,4.02869 -1.43124,-3.45054 -2.86123,-6.90161 -4.29328,-10.35182 -1.26338,4.31574 -2.52672,8.63175 -3.78995,12.94753 -1.12906,-5.06866 -2.25792,-10.13762 -3.38687,-15.2063 -2.33943,2.99771 -4.67925,5.99555 -7.0187,8.99325 -5.69396,-4.0885 -11.38621,-8.17916 -17.07957,-12.26851 -0.61196,-0.4839 -1.38385,-0.75577 -2.16008,-0.77411 z m 43.02476,1.64331 v 2.57194 c 0.74304,0.11594 -0.0138,-0.0653 0.71882,0.10748 1.47463,0.41561 2.47408,1.87494 2.60502,3.36259 0.052,1.04157 0.009,2.08663 0.0233,3.12953 v 0.26458 h 2.54816 c -1e-5,-0.32333 0,-0.64663 0,-0.96997 -0.0303,-1.27243 0.11733,-2.57534 -0.24908,-3.81475 -0.5569,-2.09182 -2.21749,-3.90975 -4.33979,-4.45348 -0.92562,-0.21956 -0.36742,-0.053 -1.30638,-0.19792 z m -3.52123,20.62407 c -1.06586,1.74862 -2.13139,3.49755 -3.19722,5.24619 h 1.92236 v 10.82983 0.26458 c 0.84933,0 1.69884,0 2.54817,0 v -11.09441 h 1.92391 c -1.06583,-1.74864 -2.13136,-3.49757 -3.19722,-5.24619 z m 6.86832,0.28008 v 1.92133 c 0.0562,1.04287 -0.18023,2.12736 -0.82321,2.96778 -0.58474,0.80986 -1.52644,1.3387 -2.52388,1.4087 v 2.25774 0.29301 c 0.7202,-0.0514 1.44183,-0.18126 2.10427,-0.47801 2.0902,-0.88753 3.51718,-3.00947 3.74654,-5.24464 0.0904,-1.03871 0.0239,-2.08439 0.0444,-3.12591 z"
       style="fill:url(#linearGradient917);fill-opacity:1;stroke:none;stroke-width:0.352777"
       id="path919" />
    <g
       transform="matrix(0.13864667,0,0,-0.13864667,11.080424,149.66239)"
       id="g4186"
       style="fill:#000000;fill-opacity:1">
      <path
         inkscape:connector-curvature="0"
         id="path2997"
         style="fill:#000000;fill-opacity:1;fill-rule:evenodd;stroke:none"
         d="m 208.777,74.882 c -36.113,0.289 -72.113,1.382 -108.172,3.687 -12.789,0.805 -32.601,1.899 -40.609,13.938 -5.414,8.179 -6.566,16.589 -7.371,26.668 -0.809,10.425 -1.441,22.636 -1.27,33.004 0.118,3.917 -0.632,14.054 5.532,14.285 5.472,0.23 4.84,-19.754 5.125,-24.192 0.691,-10.597 1.554,-24.078 5.011,-34.961 2.938,-8.929 10.887,-11.293 20.278,-12.441 17.679,-2.133 34.961,-2.594 52.761,-3.285 77.989,-2.938 156.094,-0.922 233.969,4.031 5.817,0.402 12.157,-0.113 17.512,1.902 2.937,1.153 4.32,3.512 4.723,6.625 1.324,12.325 2.824,25.055 3.629,37.496 0.289,5.645 0.402,28.571 10.253,28.743 8.754,0.23 6.336,-20.043 6.161,-25.231 -0.575,-15.84 -1.61,-31.68 -3.223,-47.461 -0.809,-7.547 -4.379,-13.191 -11.695,-16.644 -2.821,-1.328 -6.391,-2.075 -9.618,-2.25 -60.941,-3.11 -122.054,-4.317 -182.996,-3.914 z" />
      <path
         inkscape:connector-curvature="0"
         id="path2999"
         style="fill:#000000;fill-opacity:1;fill-rule:evenodd;stroke:none"
         d="m 218.398,108.229 c -21.543,0.348 -41.183,4.496 -61.746,9.563 -5.933,1.5 -16.476,5.82 -22.867,8.469 -8.816,3.742 -18.203,8.64 -26.441,13.421 -14.11,8.235 -26.438,18.141 -39.051,28.512 -3.285,2.762 -11.004,10.25 -14.633,13.824 -1.613,1.668 -8.695,8.754 -9.504,12.903 -2.301,12.265 15.668,0.515 19.699,-2.996 8.641,-7.375 18.547,-13.594 27.938,-19.871 18.777,-12.442 38.594,-22.352 59.617,-30.356 14.86,-5.59 32.543,-9.273 48.442,-10.082 16.703,-0.805 30.929,-0.461 47.402,1.211 13.078,1.266 29.551,7.258 41.644,12.039 27.075,10.77 50.747,26.609 77.36,37.844 17.566,7.484 34.387,16.816 52.414,11.574 6.336,-1.785 13.133,-8.637 3.57,-14.281 -13.133,-7.606 -29.719,-9.793 -43.66,-16.418 -18.777,-8.754 -37.898,-18.258 -55.984,-28.11 -12.731,-6.855 -26.672,-13.191 -40.438,-17.566 -20.621,-6.453 -42.277,-9.965 -63.762,-9.68 z" />
      <path
         inkscape:connector-curvature="0"
         id="path3001"
         style="fill:#000000;fill-opacity:1;fill-rule:evenodd;stroke:none"
         d="m 239.883,134.784 c -2.305,0.059 -4.551,1.957 -2.305,3.859 2.996,2.649 5.645,3.34 9.504,5.703 4.895,3.051 10.367,8.583 13.711,13.016 3.051,4.149 5.875,9.68 8.406,13.942 1.383,2.304 2.535,-1.383 1.961,-4.09 -3.168,-13.942 -15.035,-32.602 -31.277,-32.43 z" />
      <path
         inkscape:connector-curvature="0"
         id="path3003"
         style="fill:#000000;fill-opacity:1;fill-rule:evenodd;stroke:none"
         d="m 208.375,135.593 c -16.875,-0.231 -33.813,8.293 -45.676,19.351 -5.82,5.531 -11.347,12.039 -16.879,21.66 -1.324,2.301 -9.097,19.293 -5.758,20.332 0.864,0.285 2.418,-2.015 4.954,-6.683 5.757,-10.426 12.211,-19.93 22.175,-27.934 8.582,-6.797 18.836,-11.578 28.454,-13.133 16.015,-2.535 31.164,0.692 44.468,8.985 10.887,6.855 17.336,13.422 23.211,22.867 2.653,4.379 4.953,9.965 6.684,14.746 1.437,4.145 4.664,3.281 3.972,-1.211 -3.05,-18.547 -12.441,-35.769 -27.933,-46.715 -11.981,-8.293 -23.098,-11.98 -37.672,-12.265 z" />
      <path
         inkscape:connector-curvature="0"
         id="path3005"
         style="fill:#000000;fill-opacity:1;fill-rule:evenodd;stroke:none"
         d="m 176.176,137.663 c -6.625,0.461 -13.422,4.266 -17.742,9.16 -4.895,5.645 1.039,5.934 4.781,3.109 2.305,-1.668 6.683,-4.605 7.777,-5.414 2.535,-1.843 13.074,-7.316 5.184,-6.855 z" />
      <path
         inkscape:connector-curvature="0"
         id="path3007"
         style="fill:#000000;fill-opacity:1;fill-rule:evenodd;stroke:none"
         d="m 266.953,144.807 c -2.707,0.516 -0.113,4.895 1.961,8.122 1.438,2.359 2.648,5.296 4.606,7.199 1.21,1.211 3.515,2.707 5.183,3.801 2.766,1.843 5.762,3.628 8.527,5.875 3.512,2.937 7.43,7.488 9.848,11.234 1.5,2.418 4.668,8.234 7.145,8.18 1.324,0 0.746,-3.344 0.402,-5.188 -0.922,-5.297 -4.09,-10.941 -6.914,-15.031 -1.899,-2.707 -4.316,-5.414 -6.566,-7.836 -4.317,-4.547 -8.122,-7.543 -13.305,-11.059 -0.055,0 -8.93,-5.699 -10.887,-5.297 z" />
      <path
         inkscape:connector-curvature="0"
         id="path3009"
         style="fill:#000000;fill-opacity:1;fill-rule:evenodd;stroke:none"
         d="m 283.371,145.843 c -3.687,0.289 -0.117,3.859 2.305,5.992 4.894,4.32 9.273,8.984 13.074,13.824 5.473,7.086 8.582,17.625 8.523,26.609 -0.113,18.262 -12.902,36.52 -29.488,45.332 -11.117,5.817 -22.812,7.661 -36.23,7.43 -7.606,-0.172 -16.477,-2.82 -23.504,-5.988 -8.293,-3.801 -15.953,-9.449 -21.485,-16.879 -5.011,-6.797 -6.91,-11.578 -7.66,-13.824 -1.726,-5.297 -3.226,-13.535 -2.133,-23.844 0.176,-1.961 0.809,-5.129 0.692,-7.488 -0.113,-2.653 -1.035,-4.262 -2.707,-2.016 -3.223,4.434 -3.86,10.367 -4.145,16.473 -0.347,6.047 0,12.382 1.325,17.972 3.398,14.512 11.632,28.223 24.48,36.805 13.879,9.156 25.977,13.016 41.703,13.074 22.461,0 41.875,-10.711 53.856,-29.203 4.144,-6.508 9.097,-19.18 10.136,-27.242 2.535,-20.391 -2.937,-40.899 -14.457,-50.172 -4.09,-3.34 -8.582,-5.992 -14.285,-6.855 z" />
      <path
         inkscape:connector-curvature="0"
         id="path3011"
         style="fill:#000000;fill-opacity:1;fill-rule:evenodd;stroke:none"
         d="m 206.703,153.62 c -20.676,-0.117 -36.172,8.754 -49.648,23.5 -8.758,9.676 -15.957,23.387 -17.395,36.519 -1.441,14.11 2.07,26.207 7.774,38.938 0.691,1.437 4.437,7.027 5.472,8.641 4.782,6.679 14.629,15.722 22.809,18.832 2.883,1.039 13.019,4.148 18.547,3.976 3.113,-0.117 4.496,-1.844 2.937,-4.492 -0.574,-0.922 -1.609,-2.133 -3.222,-3.574 -3.344,-3.11 -10.141,-4.145 -14.403,-5.989 -10.195,-4.609 -17.508,-10.425 -24.363,-19.296 -2.305,-3.11 -6.453,-10.598 -7.547,-14.227 -7.371,-25.633 5.07,-43.43 23.039,-57.195 8.238,-6.223 21.719,-10.082 31.738,-10.196 17.454,-0.117 38.364,4.375 52.188,20.446 10.367,12.156 15.148,30.703 11.402,46.371 -1.207,5.008 2.133,5.988 4.496,0.687 0.461,-1.148 1.555,-5.238 1.668,-5.929 5.645,-39.571 -25.054,-76.668 -65.492,-77.012 z" />
      <path
         inkscape:connector-curvature="0"
         id="path3013"
         style="fill:#000000;fill-opacity:1;fill-rule:evenodd;stroke:none"
         d="m 275.941,166.866 v 0.059 c -2.535,0.058 -0.347,10.136 -0.23,10.769 0.344,2.594 1.437,3.805 3.453,4.61 4.898,1.957 11.004,7.66 17.223,16.242 1.211,1.73 2.593,5.933 5.59,5.875 3.281,-0.055 -1.098,-11.461 -1.961,-13.188 -4.09,-7.429 -9.965,-14.113 -12.903,-16.879 -2.129,-1.898 -8.465,-7.14 -11.172,-7.488 z" />
      <path
         inkscape:connector-curvature="0"
         id="path3015"
         style="fill:#000000;fill-opacity:1;fill-rule:evenodd;stroke:none"
         d="m 418.156,207.819 c -15.207,0.867 -33.984,11.867 -46.832,18.836 -19.293,10.426 -40.836,20.852 -60.883,32.547 -19.699,11.519 -43.082,21.828 -65.086,27.644 -16.246,4.266 -35.078,3.344 -51.437,1.04 -15.496,-2.133 -33.063,-9.446 -47.176,-15.782 -22.347,-10.14 -44.062,-20.91 -65.375,-32.086 -14.344,-7.601 -29.953,-14.457 -44.121,-22.519 -2.187,-0.981 -25.344,-11.465 -19.41,0.461 5.125,7.719 17.566,12.035 25.574,16.301 14.746,7.66 29.375,16.644 44.121,24.941 13.192,7.312 26.61,14.457 39.629,22 18.836,10.828 41.817,20.105 63.012,24.367 23.328,4.664 46.715,3.914 70.16,0.285 22.52,-3.57 45.848,-14.687 66.238,-24.363 22.348,-10.715 43.258,-23.617 65.321,-34.965 13.132,-6.797 26.781,-14.051 40.203,-20.734 3.918,-2.016 16.933,-6.047 10.426,-11.809 -7.028,-4.203 -16.247,-5.469 -24.364,-6.164 z" />
      <path
         inkscape:connector-curvature="0"
         id="path3017"
         style="fill:#000000;fill-opacity:1;fill-rule:evenodd;stroke:none"
         d="m 151.121,211.163 c 0,0 0.059,0.058 0,0.058 -2.766,0.575 0.574,8.122 1.211,9.618 4.031,9.16 9.215,14.632 16.125,20.91 1.383,1.152 13.481,10.887 12.039,3.512 -0.574,-3.168 -0.461,-8.411 -3.398,-10.137 -6.395,-3.86 -12.903,-8.754 -18.2,-15.496 -0.175,-0.172 -5.703,-8.465 -7.777,-8.465 z" />
      <path
         inkscape:connector-curvature="0"
         id="path3019"
         style="fill:#000000;fill-opacity:1;fill-rule:evenodd;stroke:none"
         d="m 180.727,216.057 c -4.723,0.289 2.418,18.547 3.57,22.063 13.25,26.555 40.379,43.371 71.656,38.016 12.383,-2.133 26.32,-7.95 35.481,-16.59 9.562,-9.043 19.238,-24.25 21.945,-37.153 0.289,-1.324 1.496,-5.414 -0.231,-5.586 -3.168,-0.347 -4.148,4.664 -4.953,6.45 -5.125,11.004 -11.117,17.109 -17.566,23.328 -3.977,3.804 -12.039,8.41 -15.727,10.023 -5.242,2.246 -10.195,4.379 -17.105,5.414 -9.332,1.324 -17.914,1.785 -27.188,-0.402 -21.082,-5.125 -40.437,-19.699 -46.773,-41.301 -0.805,-1.265 -0.922,-4.262 -3.109,-4.262 z" />
      <path
         inkscape:connector-curvature="0"
         id="path3021"
         style="fill:#000000;fill-opacity:1;fill-rule:evenodd;stroke:none"
         d="m 149.105,225.218 c -2.074,2.074 0.864,10.253 4.375,16.703 3.172,5.875 8.18,11.117 13.309,15.265 5.066,4.145 10.77,8.293 16.586,9.848 1.789,0.52 3.805,0.117 3.113,-1.441 -1.269,-2.532 -2.476,-5.528 -3.629,-8.352 -0.75,-1.898 -1.785,-3.57 -3.976,-4.32 -4.606,-1.496 -8.582,-4.836 -13.188,-8.985 -4.898,-4.433 -9.043,-9.965 -12.847,-15.379 -1.094,-1.554 -2.418,-3.054 -3.743,-3.339 z" />
      <path
         inkscape:connector-curvature="0"
         id="path3023"
         style="fill:#000000;fill-opacity:1;fill-rule:evenodd;stroke:none"
         d="m 421.438,238.753 c -10.079,0.633 -9.102,11.98 -1.094,15.668 7.027,3.222 15.668,3.511 23.328,4.953 7.488,1.383 16.414,5.875 22.808,0.805 6.047,-4.836 -4.261,-10.54 -8.871,-12.27 -4.722,-1.84 -12.039,-4.551 -16.992,-5.988 -2.937,-0.864 -16.586,-3.399 -19.179,-3.168 z" />
      <path
         inkscape:connector-curvature="0"
         id="path3025"
         style="fill:#000000;fill-opacity:1;fill-rule:evenodd;stroke:none"
         d="m 32.465,240.249 c -6.395,0.922 -12.098,4.953 -17.164,8.699 -4.031,3.051 -17.34,11.863 -15.035,18.43 3.398,9.273 19.468,-5.239 24.25,-8.063 0.691,-0.402 14.226,-9.273 14.804,-9.621 4.723,-2.82 -0.461,-8.812 -3.629,-9.558 -1.039,-0.29 -2.132,0 -3.226,0.113 z" />
      <path
         inkscape:connector-curvature="0"
         id="path3027"
         style="fill:#000000;fill-opacity:1;fill-rule:evenodd;stroke:none"
         d="m 183.145,243.073 c -0.403,-0.059 -1.325,0.863 -1.036,2.707 2.305,14.399 17.223,40.664 34.504,40.664 2.075,0 22,1.152 21.254,-3.918 -0.578,-3.57 -16.992,-5.125 -23.789,-8.812 -10.426,-5.758 -20.68,-13.477 -26.094,-24.422 -1.035,-2.188 -2.187,-6.16 -4.839,-6.219 z" />
      <path
         inkscape:connector-curvature="0"
         id="path3029"
         style="fill:#000000;fill-opacity:1;fill-rule:evenodd;stroke:none"
         d="m 55.043,254.764 c -2.418,0 -3.801,2.707 -4.32,4.61 -0.52,1.902 0.289,21.371 0.347,22.867 0.977,15.379 1.899,30.758 3.34,46.023 0.805,8.122 4.895,16.704 14.055,19.524 2.074,0.578 11.402,2.133 11.863,-1.727 0.117,-0.519 0.406,-3.168 0.117,-3.687 -2.707,-5.93 -9.675,-4.375 -12.672,-9.617 -2.476,-4.493 -2.707,-9.852 -3.168,-14.918 -0.921,-10.715 -1.73,-21.2 -2.191,-32.086 -0.172,-5.645 -0.746,-11.52 -0.746,-17.106 0,-4.379 -0.113,-13.883 -6.625,-13.883 z" />
      <path
         inkscape:connector-curvature="0"
         id="path3031"
         style="fill:#000000;fill-opacity:1;fill-rule:evenodd;stroke:none"
         d="m 405.77,258.971 c -11.75,-1.382 -11.172,51.493 -9.676,59.903 0.519,3.051 3.57,8.008 7.488,4.09 2.766,-2.825 4.84,-7.375 5.934,-12.614 2.418,-11.464 4.953,-28.972 4.031,-40.781 -0.406,-5.531 -2.707,-10.023 -7.777,-10.598 z" />
      <path
         inkscape:connector-curvature="0"
         id="path3033"
         style="fill:#000000;fill-opacity:1;fill-rule:evenodd;stroke:none"
         d="m 337.918,283.682 c -0.172,0 -1.613,0.172 -1.785,0.286 -9.563,3.398 -5.821,13.882 1.437,18.664 11.118,7.316 22.524,15.839 33.18,24.308 0.98,0.805 4.551,3.801 5.586,4.723 4.551,4.09 9.043,8.523 15.379,9.273 7.086,0.746 6.855,-5.59 3.918,-10.715 -1.153,-1.957 -11.809,-13.593 -13.074,-14.859 -6.454,-6.336 -12.848,-13.25 -19.93,-18.723 -5.645,-4.375 -17.051,-13.304 -24.711,-12.957 z" />
      <path
         inkscape:connector-curvature="0"
         id="path3035"
         style="fill:#000000;fill-opacity:1;fill-rule:evenodd;stroke:none"
         d="m 129.867,293.069 c -9.676,0 -22.176,19.527 -26.957,27.129 -0.691,1.094 -4.668,6.797 -5.703,8.41 -3.051,4.551 -6.277,9.156 -8.18,14.399 -1.668,4.55 -0.113,9.504 5.586,9.043 4.207,-0.344 13.078,-10.657 15.496,-13.766 7.891,-10.195 20.45,-23.844 25.516,-36.574 1.785,-4.438 -1.496,-8.641 -5.758,-8.641 z" />
      <path
         inkscape:connector-curvature="0"
         id="path3037"
         style="fill:#000000;fill-opacity:1;fill-rule:evenodd;stroke:none"
         d="m 242.59,313.518 c -3.746,0 -7.086,3.282 -7.199,6.739 -0.403,9.445 2.82,18.777 5.933,27.761 0.114,0.403 0.403,1.27 0.574,1.731 2.364,6.449 6.508,19.984 13.766,13.535 7.891,-7.199 -0.23,-22.121 -0.574,-32.141 -0.059,-0.578 -2.883,-9.964 -3.113,-10.945 -1.207,-4.434 -4.954,-6.68 -9.387,-6.68 z" />
      <path
         inkscape:connector-curvature="0"
         id="path3039"
         style="fill:#000000;fill-opacity:1;fill-rule:evenodd;stroke:none"
         d="m 364.875,339.151 c -13.25,0 -26.844,2.531 -40.09,2.879 -16.242,0.402 -33.004,1.672 -49.019,2.418 -2.707,0.059 -4.723,0.633 -6.567,2.879 -3.801,4.437 1.559,7.664 5.821,8.355 14.746,2.188 30.929,0.747 45.906,0.114 12.785,-0.633 25.863,-1.325 38.707,-1.844 4.262,-0.231 25.633,-1.438 19.179,-11.059 -2.707,-3.976 -9.558,-3.742 -13.937,-3.742 z" />
      <path
         inkscape:connector-curvature="0"
         id="path3041"
         style="fill:#000000;fill-opacity:1;fill-rule:evenodd;stroke:none"
         d="m 124.684,343.526 c 0,0 0.054,0 0,0.059 -3.688,0 -10.715,1.844 -8.989,6.797 1.672,4.55 6.336,4.839 10.602,5.07 31.965,1.266 64.051,1.957 95.961,1.668 4.203,-0.059 10.426,-1.727 10.308,-6.797 -0.058,-5.527 -5.586,-6.449 -9.964,-6.508 -32.485,-0.633 -65.434,1.383 -97.918,-0.289 z" />
      <g
         style="fill:#000000;fill-opacity:1"
         transform="matrix(1,0,0,-1,0,364.98321)"
         id="g3043">
        <path
           inkscape:connector-curvature="0"
           id="path3045"
           style="fill:#000000;fill-opacity:1;fill-rule:evenodd;stroke:#000000;stroke-width:0.1728;stroke-linecap:butt;stroke-linejoin:miter;stroke-miterlimit:4;stroke-dasharray:none;stroke-opacity:1"
           d="m 226.52,181.988 c 13.246,0 24.019,-10.828 24.019,-24.136 0,-13.188 -10.773,-24.02 -24.019,-24.02 -13.25,0 -24.079,10.832 -24.079,24.02 0,13.308 10.829,24.136 24.079,24.136 z" />
      </g>
    </g>
    <path
       d="m 86.314626,120.95238 v 2.21414 h 12.027127 v 2.67269 l 4.886837,-4.88683 m -16.913964,0 v -2.21414 h 12.027127 v -2.67269 l 4.886837,4.88683"
       style="fill:#686868;fill-opacity:1;stroke:none;stroke-width:0.264583px;stroke-linecap:butt;stroke-linejoin:miter;stroke-opacity:1"
       id="path911" />
    <text
       y="0"
       x="22.865271"
       transform="translate(-7.7554451,1.1339286)"
       style="font-style:normal;font-weight:normal;font-size:6.35px;line-height:1.25;font-family:sans-serif;text-align:center;letter-spacing:0px;word-spacing:0px;white-space:pre;shape-inside:url(#rect916);fill:#000000;fill-opacity:1;stroke:none"
       id="text914"
       xml:space="preserve"><tspan
         x="26.749463"
         y="148.49326"><tspan
           style="shape-inside:url(#rect916)">MSU G&amp;M Lab.
</tspan></tspan><tspan
         x="42.66167"
         y="156.43076"><tspan
           style="shape-inside:url(#rect916)">Logo</tspan></tspan></text>
    <text
       y="0"
       x="31.656982"
       xml:space="preserve"
       id="text924"
       style="font-style:normal;font-weight:normal;font-size:6.35px;line-height:1.25;font-family:sans-serif;text-align:center;letter-spacing:0px;word-spacing:0px;white-space:pre;shape-inside:url(#rect926);fill:#000000;fill-opacity:1;stroke:none"
       transform="translate(87.567071,1.1339298)"><tspan
         x="18.810206"
         y="148.49326"><tspan
           style="shape-inside:url(#rect926)">New Video Compression </tspan></tspan><tspan
         x="40.247657"
         y="156.43076"><tspan
           style="shape-inside:url(#rect926)">Team Logo</tspan></tspan></text>
  </g>
</svg>
