<?xml version="1.0" encoding="UTF-8" standalone="no"?>
<!DOCTYPE svg PUBLIC "-//W3C//DTD SVG 1.1//EN" "http://www.w3.org/Graphics/SVG/1.1/DTD/svg11.dtd">
<!-- Generated by Microsoft Visio, SVG Export pass-lan.svg Page-1 -->
<svg xmlns="http://www.w3.org/2000/svg" xmlns:xlink="http://www.w3.org/1999/xlink" xmlns:ev="http://www.w3.org/2001/xml-events"
		xmlns:v="http://schemas.microsoft.com/visio/2003/SVGExtensions/" width="5.22922in" height="3.65442in"
		viewBox="0 0 376.504 263.118" xml:space="preserve" color-interpolation-filters="sRGB" class="st12">
	<v:documentProperties v:langID="1033" v:viewMarkup="false"/>

	<style type="text/css">
	<![CDATA[
		.st1 {visibility:visible}
		.st2 {fill:#5b9bd5;fill-opacity:0.22;filter:url(#filter_2);stroke:#5b9bd5;stroke-opacity:0.22}
		.st3 {fill:#1e4e79;stroke:#c7c8c8;stroke-width:0.25}
		.st4 {fill:#1e4e79;stroke:#ffffff;stroke-width:0.25}
		.st5 {fill:#5b9bd5;fill-opacity:0.22;filter:url(#filter_2)}
		.st6 {fill:#ffffff}
		.st7 {fill:none;filter:url(#filter_2);stroke:#5b9bd5;stroke-opacity:0.22}
		.st8 {fill:#5b9bd5}
		.st9 {stroke:#c7c8c8;stroke-width:0.25}
		.st10 {fill:#fee599}
		.st11 {fill:none;stroke:#7f7f7f;stroke-width:2}
		.st12 {fill:none;fill-rule:evenodd;font-size:12px;overflow:visible;stroke-linecap:square;stroke-miterlimit:3}
	]]>
	</style>

	<defs id="Filters">
		<filter id="filter_2">
			<feGaussianBlur stdDeviation="2"/>
		</filter>
	</defs>
	<g v:mID="0" v:index="1" v:groupContext="foregroundPage">
		<title>Page-1</title>
		<v:pageProperties v:drawingScale="0.0393701" v:pageScale="0.0393701" v:drawingUnits="24" v:shadowOffsetX="8.50394"
				v:shadowOffsetY="-8.50394"/>
		<v:layer v:name="Flowchart" v:index="0"/>
		<g id="group49-1" transform="translate(74.5205,-63.5094)" v:mID="49" v:groupContext="group">
			<v:custProps>
				<v:cp v:nameU="AssetNumber" v:lbl="Asset Number" v:prompt="" v:type="0" v:format="" v:sortKey="Asset"
						v:invis="false" v:ask="false" v:langID="1033" v:cal="0"/>
				<v:cp v:nameU="SerialNumber" v:lbl="Serial Number" v:prompt="" v:type="0" v:format="" v:sortKey="Asset"
						v:invis="false" v:ask="false" v:langID="1033" v:cal="0"/>
				<v:cp v:nameU="Location" v:lbl="Location" v:prompt="" v:type="0" v:format="" v:sortKey="Asset" v:invis="false"
						v:ask="false" v:langID="1033" v:cal="0"/>
				<v:cp v:nameU="Building" v:lbl="Building" v:prompt="" v:type="0" v:format="" v:sortKey="Asset" v:invis="false"
						v:ask="false" v:langID="1033" v:cal="0"/>
				<v:cp v:nameU="Room" v:lbl="Room" v:prompt="" v:type="0" v:format="" v:sortKey="Asset" v:invis="false"
						v:ask="false" v:langID="1033" v:cal="0"/>
				<v:cp v:nameU="Manufacturer" v:lbl="Manufacturer" v:prompt="" v:type="0" v:format="" v:sortKey="Equipment"
						v:invis="false" v:ask="false" v:langID="1033" v:cal="0"/>
				<v:cp v:nameU="ProductNumber" v:lbl="Product Number" v:prompt="" v:type="0" v:format="" v:sortKey="Equipment"
						v:invis="false" v:ask="false" v:langID="1033" v:cal="0"/>
				<v:cp v:nameU="PartNumber" v:lbl="Part Number" v:prompt="" v:type="0" v:format="" v:sortKey="Equipment"
						v:invis="false" v:ask="false" v:langID="1033" v:cal="0"/>
				<v:cp v:nameU="ProductDescription" v:lbl="Product Description" v:prompt="" v:type="0" v:format=""
						v:sortKey="Equipment" v:invis="false" v:ask="false" v:langID="1033" v:cal="0"/>
				<v:cp v:nameU="NetworkName" v:lbl="Network Name" v:prompt="" v:type="0" v:format="" v:sortKey="Network"
						v:invis="false" v:ask="false" v:langID="1033" v:cal="0"/>
				<v:cp v:nameU="IPAddress" v:lbl="IP Address" v:prompt="" v:type="0" v:format="" v:sortKey="Network" v:invis="false"
						v:ask="false" v:langID="1033" v:cal="0"/>
				<v:cp v:nameU="SubnetMask" v:lbl="Subnet Mask" v:prompt="" v:type="0" v:format="" v:sortKey="Network"
						v:invis="false" v:ask="false" v:langID="1033" v:cal="0"/>
				<v:cp v:nameU="AdminInterface" v:lbl="Administrative Interface" v:prompt="" v:type="0" v:format=""
						v:sortKey="Network" v:invis="false" v:ask="false" v:langID="1033" v:cal="0"/>
				<v:cp v:nameU="NumberofPorts" v:lbl="Number of Ports" v:prompt="" v:type="0" v:format="" v:sortKey="Network"
						v:invis="false" v:ask="false" v:langID="1033" v:cal="0"/>
				<v:cp v:nameU="CommunityString" v:lbl="Community String" v:prompt="" v:type="0" v:format="" v:sortKey="Network"
						v:invis="false" v:ask="false" v:langID="1033" v:cal="0"/>
				<v:cp v:nameU="NetworkDescription" v:lbl="Network Description" v:prompt="" v:type="0" v:format=""
						v:sortKey="Network" v:invis="false" v:ask="false" v:langID="1033" v:cal="0"/>
				<v:cp v:nameU="MACAddress" v:lbl="MAC Address" v:prompt="" v:type="0" v:format="" v:sortKey="Network"
						v:invis="false" v:ask="false" v:langID="1033" v:cal="0"/>
				<v:cp v:nameU="CPU" v:lbl="CPU" v:prompt="" v:type="0" v:format="" v:sortKey="Workstation" v:invis="false"
						v:ask="false" v:langID="1033" v:cal="0"/>
				<v:cp v:nameU="Memory" v:lbl="Memory" v:prompt="" v:type="0" v:format="" v:sortKey="Workstation" v:invis="false"
						v:ask="false" v:langID="1033" v:cal="0"/>
				<v:cp v:nameU="OperatingSystem" v:lbl="Operating System" v:prompt="" v:type="0" v:format="" v:sortKey="Workstation"
						v:invis="false" v:ask="false" v:langID="1033" v:cal="0"/>
				<v:cp v:nameU="HardDriveSize" v:lbl="Hard Drive Capacity" v:prompt="" v:type="0" v:format=""
						v:sortKey="Workstation" v:invis="false" v:ask="false" v:langID="1033" v:cal="0"/>
				<v:cp v:nameU="Department" v:lbl="Department" v:prompt="" v:type="0" v:format="" v:sortKey="" v:invis="false"
						v:ask="false" v:langID="1033" v:cal="0"/>
				<v:cp v:nameU="ShapeClass" v:lbl="ShapeClass" v:prompt="" v:type="0" v:format="" v:sortKey="" v:invis="true"
						v:ask="false" v:langID="1033" v:cal="0" v:val="VT4(Equipment)"/>
				<v:cp v:nameU="ShapeType" v:lbl="ShapeType" v:prompt="" v:type="0" v:format="" v:sortKey="" v:invis="true"
						v:ask="false" v:langID="1033" v:cal="0" v:val="VT4(Computer)"/>
				<v:cp v:nameU="SubShapeType" v:lbl="SubShapeType" v:prompt="" v:type="0" v:format="" v:sortKey="" v:invis="true"
						v:ask="false" v:langID="1033" v:cal="0" v:val="VT4(Desktop)"/>
				<v:cp v:nameU="BelongsTo" v:lbl="Belongs To" v:prompt="" v:type="0" v:format="" v:sortKey="" v:invis="true"
						v:ask="false" v:langID="1033" v:cal="0"/>
			</v:custProps>
			<v:userDefs>
				<v:ud v:nameU="visVersion" v:prompt="" v:val="VT0(15):26"/>
				<v:ud v:nameU="ShapeClass" v:prompt="" v:val="VT0(5):26"/>
				<v:ud v:nameU="SolSH" v:prompt="" v:val="VT15({BF0433D9-CD73-4EB5-8390-8653BE590246}):41"/>
				<v:ud v:nameU="visLegendShape" v:prompt="" v:val="VT0(2):26"/>
			</v:userDefs>
			<title>PC.49</title>
			<g id="shape50-2" v:mID="50" v:groupContext="shape" transform="translate(0,-3.82595)">
				<title>Sheet.50</title>
				<g id="shadow50-3" v:groupContext="shadow" v:shadowOffsetX="0.345598" v:shadowOffsetY="-1.97279" v:shadowType="1"
						transform="matrix(1,0,0,1,0.345598,1.97279)" class="st1">
					<path d="M38.86 249.03 L38.86 253.87 L41.79 253.87 L44.56 257.34 L57.37 257.34 L57.37 213.4 L38.86 213.4 L38.86
								 219.71 L46.8 219.71 L46.8 249.03 L38.86 249.03 ZM46.8 219.71 L2.86 219.71 L2.86 249.03 L46.8 249.03
								 L46.8 219.71 ZM49.17 263.12 L41.79 253.87 L7.37 253.87 L0 263.12 L49.17 263.12 ZM28.44 249.03 L20.72
								 249.03 L20.72 253.87 L28.44 253.87 L28.44 249.03 Z" class="st2"/>
				</g>
				<path d="M38.86 249.03 L38.86 253.87 L41.79 253.87 L44.56 257.34 L57.37 257.34 L57.37 213.4 L38.86 213.4 L38.86 219.71
							 L46.8 219.71 L46.8 249.03 L38.86 249.03 ZM46.8 219.71 L2.86 219.71 L2.86 249.03 L46.8 249.03 L46.8 219.71
							 ZM49.17 263.12 L41.79 253.87 L7.37 253.87 L0 263.12 L49.17 263.12 ZM28.44 249.03 L20.72 249.03 L20.72
							 253.87 L28.44 253.87 L28.44 249.03 Z" class="st3"/>
			</g>
			<g id="shape51-7" v:mID="51" v:groupContext="shape" transform="translate(5.70943,-20.5562)">
				<title>Sheet.51</title>
				<v:userDefs>
					<v:ud v:nameU="SurroundingRegionColor" v:prompt="" v:val="VT0(1):26"/>
					<v:ud v:nameU="SurroundingRegionColor" v:prompt="" v:val="VT5(#1e4e79)"/>
				</v:userDefs>
				<g id="shadow51-8" v:groupContext="shadow" v:shadowOffsetX="0.345598" v:shadowOffsetY="-1.97279" v:shadowType="1"
						transform="matrix(1,0,0,1,0.345598,1.97279)" class="st1">
					<path d="M38.3 239.34 L0 239.34 L0 263.12 L38.3 263.12 L38.3 239.34 Z" class="st2"/>
				</g>
				<path d="M38.3 239.34 L0 239.34 L0 263.12 L38.3 263.12 L38.3 239.34 Z" class="st4"/>
			</g>
			<g id="shape52-12" v:mID="52" v:groupContext="shape" transform="translate(6.69094,-5.73438)">
				<title>Sheet.52</title>
				<v:userDefs>
					<v:ud v:nameU="SurroundingRegionColor" v:prompt="" v:val="VT0(1):26"/>
					<v:ud v:nameU="SurroundingRegionColor" v:prompt="" v:val="VT5(#1e4e79)"/>
				</v:userDefs>
				<g id="shadow52-13" v:groupContext="shadow" v:shadowOffsetX="0.345598" v:shadowOffsetY="-1.97279" v:shadowType="1"
						transform="matrix(1,0,0,1,0.345598,1.97279)" class="st1">
					<path d="M43.27 220.23 L47.23 220.23 L47.23 218.69 L43.27 218.69 L43.27 220.23 ZM43.27 222.98 L47.23 222.98 L47.23
								 221.44 L43.27 221.44 L43.27 222.98 ZM33.57 259.53 L31.39 259.53 L32.61 260.89 L34.97 260.89 L33.57
								 259.53 ZM31.1 257.12 L29.22 257.12 L30.53 258.58 L32.6 258.58 L31.1 257.12 ZM30.21 259.53 L28.03
								 259.53 L28.99 260.89 L31.34 260.89 L30.21 259.53 ZM28.21 257.12 L26.32 257.12 L27.36 258.58 L29.42
								 258.58 L28.21 257.12 ZM26.85 259.53 L24.67 259.53 L25.36 260.89 L27.72 260.89 L26.85 259.53 ZM25.32
								 257.12 L23.43 257.12 L24.19 258.61 L26.26 258.61 L25.32 257.12 ZM23.49 259.53 L21.3 259.53 L21.74
								 260.89 L24.1 260.89 L23.49 259.53 ZM22.46 257.22 L20.57 257.22 L21.01 258.61 L23.08 258.61 L22.46
								 257.22 ZM20.13 259.53 L17.94 259.53 L18.12 260.89 L20.47 260.89 L20.13 259.53 ZM19.58 257.34 L17.67
								 257.34 L17.84 258.7 L19.92 258.7 L19.58 257.34 ZM16.64 257.34 L14.73 257.34 L14.64 258.7 L16.72
								 258.7 L16.64 257.34 ZM16.77 259.53 L14.58 259.53 L14.49 260.89 L16.85 260.89 L16.77 259.53 ZM13.7
								 257.34 L11.79 257.34 L11.44 258.7 L13.52 258.7 L13.7 257.34 ZM13.41 259.53 L11.22 259.53 L10.87
								 260.89 L13.23 260.89 L13.41 259.53 ZM25.39 261.76 L9.98 261.76 L9.58 263.12 L26.06 263.12 L25.39
								 261.76 ZM10.76 257.34 L8.85 257.34 L8.24 258.7 L10.32 258.7 L10.76 257.34 ZM10.05 259.53 L7.86 259.53
								 L7.25 260.89 L9.6 260.89 L10.05 259.53 ZM7.83 257.34 L5.92 257.34 L5.04 258.7 L7.12 258.7 L7.83
								 257.34 ZM6.69 259.53 L4.5 259.53 L3.62 260.89 L5.98 260.89 L6.69 259.53 ZM4.89 257.34 L2.98 257.34
								 L1.84 258.7 L3.92 258.7 L4.89 257.34 ZM3.32 259.53 L1.14 259.53 L0 260.89 L2.36 260.89 L3.32 259.53
								 Z" class="st5"/>
				</g>
				<path d="M43.27 220.23 L47.23 220.23 L47.23 218.69 L43.27 218.69 L43.27 220.23 ZM43.27 222.98 L47.23 222.98 L47.23
							 221.44 L43.27 221.44 L43.27 222.98 ZM33.57 259.53 L31.39 259.53 L32.61 260.89 L34.97 260.89 L33.57 259.53
							 ZM31.1 257.12 L29.22 257.12 L30.53 258.58 L32.6 258.58 L31.1 257.12 ZM30.21 259.53 L28.03 259.53 L28.99
							 260.89 L31.34 260.89 L30.21 259.53 ZM28.21 257.12 L26.32 257.12 L27.36 258.58 L29.42 258.58 L28.21 257.12
							 ZM26.85 259.53 L24.67 259.53 L25.36 260.89 L27.72 260.89 L26.85 259.53 ZM25.32 257.12 L23.43 257.12
							 L24.19 258.61 L26.26 258.61 L25.32 257.12 ZM23.49 259.53 L21.3 259.53 L21.74 260.89 L24.1 260.89 L23.49
							 259.53 ZM22.46 257.22 L20.57 257.22 L21.01 258.61 L23.08 258.61 L22.46 257.22 ZM20.13 259.53 L17.94
							 259.53 L18.12 260.89 L20.47 260.89 L20.13 259.53 ZM19.58 257.34 L17.67 257.34 L17.84 258.7 L19.92 258.7
							 L19.58 257.34 ZM16.64 257.34 L14.73 257.34 L14.64 258.7 L16.72 258.7 L16.64 257.34 ZM16.77 259.53 L14.58
							 259.53 L14.49 260.89 L16.85 260.89 L16.77 259.53 ZM13.7 257.34 L11.79 257.34 L11.44 258.7 L13.52 258.7
							 L13.7 257.34 ZM13.41 259.53 L11.22 259.53 L10.87 260.89 L13.23 260.89 L13.41 259.53 ZM25.39 261.76 L9.98
							 261.76 L9.58 263.12 L26.06 263.12 L25.39 261.76 ZM10.76 257.34 L8.85 257.34 L8.24 258.7 L10.32 258.7
							 L10.76 257.34 ZM10.05 259.53 L7.86 259.53 L7.25 260.89 L9.6 260.89 L10.05 259.53 ZM7.83 257.34 L5.92
							 257.34 L5.04 258.7 L7.12 258.7 L7.83 257.34 ZM6.69 259.53 L4.5 259.53 L3.62 260.89 L5.98 260.89 L6.69
							 259.53 ZM4.89 257.34 L2.98 257.34 L1.84 258.7 L3.92 258.7 L4.89 257.34 ZM3.32 259.53 L1.14 259.53 L0
							 260.89 L2.36 260.89 L3.32 259.53 Z" class="st6"/>
			</g>
		</g>
		<g id="shape53-20" v:mID="53" v:groupContext="shape" v:layerMember="0" transform="translate(97.4677,-34.8254)">
			<title>Person.53</title>
			<v:userDefs>
				<v:ud v:nameU="visVersion" v:prompt="" v:val="VT0(15):26"/>
				<v:ud v:nameU="ConnGap" v:prompt="" v:val="VT0(0.00012908222537757):24"/>
			</v:userDefs>
			<g id="shadow53-21" v:groupContext="shadow" v:shadowOffsetX="0.345598" v:shadowOffsetY="-1.97279" v:shadowType="1"
					transform="matrix(1,0,0,1,0.345598,1.97279)" class="st1">
				<path d="M22.24 223.13 L5.29 223.13 C4.07 223.13 2.95 223.53 2.05 224.21 C1.43 224.69 0.92 225.3 0.56 225.99 C0.2
							 226.69 0 227.47 0 228.3 L0 247.95 L4.64 247.95 L4.64 263.12 L22.72 263.12 L22.72 247.95 L27.54 247.95
							 L27.54 228.3 C27.54 227.1 27.12 226.01 26.42 225.13 C25.94 224.52 25.32 224.02 24.61 223.67 C23.89 223.32
							 23.09 223.13 22.24 223.13 ZM21.69 213.4 A7.91951 7.65287 -180 1 0 5.85 213.4 A7.91951 7.65287 -180 1
							 0 21.69 213.4 Z" class="st5"/>
				<path d="M22.24 223.13 L5.29 223.13 C4.07 223.13 2.95 223.53 2.05 224.21 C1.43 224.69 0.92 225.3 0.56 225.99 C0.2
							 226.69 0 227.47 0 228.3 L0 247.95 L4.64 247.95 L4.64 263.12 L22.72 263.12 L22.72 247.95 L27.54 247.95
							 L27.54 228.3 C27.54 227.1 27.12 226.01 26.42 225.13 C25.94 224.52 25.32 224.02 24.61 223.67 C23.89 223.32
							 23.09 223.13 22.24 223.13" class="st7"/>
				<path d="M13.77 263.12 L13.77 250.99" class="st7"/>
				<path d="M4.64 247.95 L4.64 237.48" class="st7"/>
				<path d="M22.72 247.95 L22.72 237.48" class="st7"/>
				<path d="M21.69 213.4 A7.91951 7.65287 -180 1 0 5.85 213.4 A7.91951 7.65287 -180 1 0 21.69 213.4" class="st7"/>
			</g>
			<path d="M22.24 223.13 L5.29 223.13 C4.07 223.13 2.95 223.53 2.05 224.21 C1.43 224.69 0.92 225.3 0.56 225.99 C0.2 226.69
						 0 227.47 0 228.3 L0 247.95 L4.64 247.95 L4.64 263.12 L22.72 263.12 L22.72 247.95 L27.54 247.95 L27.54 228.3
						 C27.54 227.1 27.12 226.01 26.42 225.13 C25.94 224.52 25.32 224.02 24.61 223.67 C23.89 223.32 23.09 223.13
						 22.24 223.13 ZM21.69 213.4 A7.91951 7.65287 -180 1 0 5.85 213.4 A7.91951 7.65287 -180 1 0 21.69 213.4 Z"
					class="st8"/>
			<path d="M22.24 223.13 L5.29 223.13 C4.07 223.13 2.95 223.53 2.05 224.21 C1.43 224.69 0.92 225.3 0.56 225.99 C0.2 226.69
						 0 227.47 0 228.3 L0 247.95 L4.64 247.95 L4.64 263.12 L22.72 263.12 L22.72 247.95 L27.54 247.95 L27.54 228.3
						 C27.54 227.1 27.12 226.01 26.42 225.13 C25.94 224.52 25.32 224.02 24.61 223.67 C23.89 223.32 23.09 223.13
						 22.24 223.13" class="st9"/>
			<path d="M13.77 263.12 L13.77 250.99" class="st9"/>
			<path d="M4.64 247.95 L4.64 237.48" class="st9"/>
			<path d="M22.72 247.95 L22.72 237.48" class="st9"/>
			<path d="M21.69 213.4 A7.91951 7.65287 -180 1 0 5.85 213.4 A7.91951 7.65287 -180 1 0 21.69 213.4" class="st9"/>
		</g>
		<g id="group54-36" transform="translate(258.098,-63.5094)" v:mID="54" v:groupContext="group">
			<v:custProps>
				<v:cp v:nameU="AssetNumber" v:lbl="Asset Number" v:prompt="" v:type="0" v:format="" v:sortKey="Asset"
						v:invis="false" v:ask="false" v:langID="1033" v:cal="0"/>
				<v:cp v:nameU="SerialNumber" v:lbl="Serial Number" v:prompt="" v:type="0" v:format="" v:sortKey="Asset"
						v:invis="false" v:ask="false" v:langID="1033" v:cal="0"/>
				<v:cp v:nameU="Location" v:lbl="Location" v:prompt="" v:type="0" v:format="" v:sortKey="Asset" v:invis="false"
						v:ask="false" v:langID="1033" v:cal="0"/>
				<v:cp v:nameU="Building" v:lbl="Building" v:prompt="" v:type="0" v:format="" v:sortKey="Asset" v:invis="false"
						v:ask="false" v:langID="1033" v:cal="0"/>
				<v:cp v:nameU="Room" v:lbl="Room" v:prompt="" v:type="0" v:format="" v:sortKey="Asset" v:invis="false"
						v:ask="false" v:langID="1033" v:cal="0"/>
				<v:cp v:nameU="Manufacturer" v:lbl="Manufacturer" v:prompt="" v:type="0" v:format="" v:sortKey="Equipment"
						v:invis="false" v:ask="false" v:langID="1033" v:cal="0"/>
				<v:cp v:nameU="ProductNumber" v:lbl="Product Number" v:prompt="" v:type="0" v:format="" v:sortKey="Equipment"
						v:invis="false" v:ask="false" v:langID="1033" v:cal="0"/>
				<v:cp v:nameU="PartNumber" v:lbl="Part Number" v:prompt="" v:type="0" v:format="" v:sortKey="Equipment"
						v:invis="false" v:ask="false" v:langID="1033" v:cal="0"/>
				<v:cp v:nameU="ProductDescription" v:lbl="Product Description" v:prompt="" v:type="0" v:format=""
						v:sortKey="Equipment" v:invis="false" v:ask="false" v:langID="1033" v:cal="0"/>
				<v:cp v:nameU="NetworkName" v:lbl="Network Name" v:prompt="" v:type="0" v:format="" v:sortKey="Network"
						v:invis="false" v:ask="false" v:langID="1033" v:cal="0"/>
				<v:cp v:nameU="IPAddress" v:lbl="IP Address" v:prompt="" v:type="0" v:format="" v:sortKey="Network" v:invis="false"
						v:ask="false" v:langID="1033" v:cal="0"/>
				<v:cp v:nameU="SubnetMask" v:lbl="Subnet Mask" v:prompt="" v:type="0" v:format="" v:sortKey="Network"
						v:invis="false" v:ask="false" v:langID="1033" v:cal="0"/>
				<v:cp v:nameU="AdminInterface" v:lbl="Administrative Interface" v:prompt="" v:type="0" v:format=""
						v:sortKey="Network" v:invis="false" v:ask="false" v:langID="1033" v:cal="0"/>
				<v:cp v:nameU="NumberofPorts" v:lbl="Number of Ports" v:prompt="" v:type="0" v:format="" v:sortKey="Network"
						v:invis="false" v:ask="false" v:langID="1033" v:cal="0"/>
				<v:cp v:nameU="CommunityString" v:lbl="Community String" v:prompt="" v:type="0" v:format="" v:sortKey="Network"
						v:invis="false" v:ask="false" v:langID="1033" v:cal="0"/>
				<v:cp v:nameU="NetworkDescription" v:lbl="Network Description" v:prompt="" v:type="0" v:format=""
						v:sortKey="Network" v:invis="false" v:ask="false" v:langID="1033" v:cal="0"/>
				<v:cp v:nameU="MACAddress" v:lbl="MAC Address" v:prompt="" v:type="0" v:format="" v:sortKey="Network"
						v:invis="false" v:ask="false" v:langID="1033" v:cal="0"/>
				<v:cp v:nameU="CPU" v:lbl="CPU" v:prompt="" v:type="0" v:format="" v:sortKey="Workstation" v:invis="false"
						v:ask="false" v:langID="1033" v:cal="0"/>
				<v:cp v:nameU="Memory" v:lbl="Memory" v:prompt="" v:type="0" v:format="" v:sortKey="Workstation" v:invis="false"
						v:ask="false" v:langID="1033" v:cal="0"/>
				<v:cp v:nameU="OperatingSystem" v:lbl="Operating System" v:prompt="" v:type="0" v:format="" v:sortKey="Workstation"
						v:invis="false" v:ask="false" v:langID="1033" v:cal="0"/>
				<v:cp v:nameU="HardDriveSize" v:lbl="Hard Drive Capacity" v:prompt="" v:type="0" v:format=""
						v:sortKey="Workstation" v:invis="false" v:ask="false" v:langID="1033" v:cal="0"/>
				<v:cp v:nameU="Department" v:lbl="Department" v:prompt="" v:type="0" v:format="" v:sortKey="" v:invis="false"
						v:ask="false" v:langID="1033" v:cal="0"/>
				<v:cp v:nameU="ShapeClass" v:lbl="ShapeClass" v:prompt="" v:type="0" v:format="" v:sortKey="" v:invis="true"
						v:ask="false" v:langID="1033" v:cal="0" v:val="VT4(Equipment)"/>
				<v:cp v:nameU="ShapeType" v:lbl="ShapeType" v:prompt="" v:type="0" v:format="" v:sortKey="" v:invis="true"
						v:ask="false" v:langID="1033" v:cal="0" v:val="VT4(Computer)"/>
				<v:cp v:nameU="SubShapeType" v:lbl="SubShapeType" v:prompt="" v:type="0" v:format="" v:sortKey="" v:invis="true"
						v:ask="false" v:langID="1033" v:cal="0" v:val="VT4(Desktop)"/>
				<v:cp v:nameU="BelongsTo" v:lbl="Belongs To" v:prompt="" v:type="0" v:format="" v:sortKey="" v:invis="true"
						v:ask="false" v:langID="1033" v:cal="0"/>
			</v:custProps>
			<v:userDefs>
				<v:ud v:nameU="visVersion" v:prompt="" v:val="VT0(15):26"/>
				<v:ud v:nameU="ShapeClass" v:prompt="" v:val="VT0(5):26"/>
				<v:ud v:nameU="SolSH" v:prompt="" v:val="VT15({BF0433D9-CD73-4EB5-8390-8653BE590246}):41"/>
				<v:ud v:nameU="visLegendShape" v:prompt="" v:val="VT0(2):26"/>
			</v:userDefs>
			<title>PC.54</title>
			<g id="shape55-37" v:mID="55" v:groupContext="shape" transform="translate(0,-3.82595)">
				<title>Sheet.55</title>
				<g id="shadow55-38" v:groupContext="shadow" v:shadowOffsetX="0.345598" v:shadowOffsetY="-1.97279" v:shadowType="1"
						transform="matrix(1,0,0,1,0.345598,1.97279)" class="st1">
					<path d="M38.86 249.03 L38.86 253.87 L41.79 253.87 L44.56 257.34 L57.37 257.34 L57.37 213.4 L38.86 213.4 L38.86
								 219.71 L46.8 219.71 L46.8 249.03 L38.86 249.03 ZM46.8 219.71 L2.86 219.71 L2.86 249.03 L46.8 249.03
								 L46.8 219.71 ZM49.17 263.12 L41.79 253.87 L7.37 253.87 L0 263.12 L49.17 263.12 ZM28.44 249.03 L20.72
								 249.03 L20.72 253.87 L28.44 253.87 L28.44 249.03 Z" class="st2"/>
				</g>
				<path d="M38.86 249.03 L38.86 253.87 L41.79 253.87 L44.56 257.34 L57.37 257.34 L57.37 213.4 L38.86 213.4 L38.86 219.71
							 L46.8 219.71 L46.8 249.03 L38.86 249.03 ZM46.8 219.71 L2.86 219.71 L2.86 249.03 L46.8 249.03 L46.8 219.71
							 ZM49.17 263.12 L41.79 253.87 L7.37 253.87 L0 263.12 L49.17 263.12 ZM28.44 249.03 L20.72 249.03 L20.72
							 253.87 L28.44 253.87 L28.44 249.03 Z" class="st3"/>
			</g>
			<g id="shape56-42" v:mID="56" v:groupContext="shape" transform="translate(5.70943,-20.5562)">
				<title>Sheet.56</title>
				<v:userDefs>
					<v:ud v:nameU="SurroundingRegionColor" v:prompt="" v:val="VT0(1):26"/>
					<v:ud v:nameU="SurroundingRegionColor" v:prompt="" v:val="VT5(#1e4e79)"/>
				</v:userDefs>
				<g id="shadow56-43" v:groupContext="shadow" v:shadowOffsetX="0.345598" v:shadowOffsetY="-1.97279" v:shadowType="1"
						transform="matrix(1,0,0,1,0.345598,1.97279)" class="st1">
					<path d="M38.3 239.34 L0 239.34 L0 263.12 L38.3 263.12 L38.3 239.34 Z" class="st2"/>
				</g>
				<path d="M38.3 239.34 L0 239.34 L0 263.12 L38.3 263.12 L38.3 239.34 Z" class="st4"/>
			</g>
			<g id="shape57-47" v:mID="57" v:groupContext="shape" transform="translate(6.69094,-5.73438)">
				<title>Sheet.57</title>
				<v:userDefs>
					<v:ud v:nameU="SurroundingRegionColor" v:prompt="" v:val="VT0(1):26"/>
					<v:ud v:nameU="SurroundingRegionColor" v:prompt="" v:val="VT5(#1e4e79)"/>
				</v:userDefs>
				<g id="shadow57-48" v:groupContext="shadow" v:shadowOffsetX="0.345598" v:shadowOffsetY="-1.97279" v:shadowType="1"
						transform="matrix(1,0,0,1,0.345598,1.97279)" class="st1">
					<path d="M43.27 220.23 L47.23 220.23 L47.23 218.69 L43.27 218.69 L43.27 220.23 ZM43.27 222.98 L47.23 222.98 L47.23
								 221.44 L43.27 221.44 L43.27 222.98 ZM33.57 259.53 L31.39 259.53 L32.61 260.89 L34.97 260.89 L33.57
								 259.53 ZM31.1 257.12 L29.22 257.12 L30.53 258.58 L32.6 258.58 L31.1 257.12 ZM30.21 259.53 L28.03
								 259.53 L28.99 260.89 L31.34 260.89 L30.21 259.53 ZM28.21 257.12 L26.32 257.12 L27.36 258.58 L29.42
								 258.58 L28.21 257.12 ZM26.85 259.53 L24.67 259.53 L25.36 260.89 L27.72 260.89 L26.85 259.53 ZM25.32
								 257.12 L23.43 257.12 L24.19 258.61 L26.26 258.61 L25.32 257.12 ZM23.49 259.53 L21.3 259.53 L21.74
								 260.89 L24.1 260.89 L23.49 259.53 ZM22.46 257.22 L20.57 257.22 L21.01 258.61 L23.08 258.61 L22.46
								 257.22 ZM20.13 259.53 L17.94 259.53 L18.12 260.89 L20.47 260.89 L20.13 259.53 ZM19.58 257.34 L17.67
								 257.34 L17.84 258.7 L19.92 258.7 L19.58 257.34 ZM16.64 257.34 L14.73 257.34 L14.64 258.7 L16.72
								 258.7 L16.64 257.34 ZM16.77 259.53 L14.58 259.53 L14.49 260.89 L16.85 260.89 L16.77 259.53 ZM13.7
								 257.34 L11.79 257.34 L11.44 258.7 L13.52 258.7 L13.7 257.34 ZM13.41 259.53 L11.22 259.53 L10.87
								 260.89 L13.23 260.89 L13.41 259.53 ZM25.39 261.76 L9.98 261.76 L9.58 263.12 L26.06 263.12 L25.39
								 261.76 ZM10.76 257.34 L8.85 257.34 L8.24 258.7 L10.32 258.7 L10.76 257.34 ZM10.05 259.53 L7.86 259.53
								 L7.25 260.89 L9.6 260.89 L10.05 259.53 ZM7.83 257.34 L5.92 257.34 L5.04 258.7 L7.12 258.7 L7.83
								 257.34 ZM6.69 259.53 L4.5 259.53 L3.62 260.89 L5.98 260.89 L6.69 259.53 ZM4.89 257.34 L2.98 257.34
								 L1.84 258.7 L3.92 258.7 L4.89 257.34 ZM3.32 259.53 L1.14 259.53 L0 260.89 L2.36 260.89 L3.32 259.53
								 Z" class="st5"/>
				</g>
				<path d="M43.27 220.23 L47.23 220.23 L47.23 218.69 L43.27 218.69 L43.27 220.23 ZM43.27 222.98 L47.23 222.98 L47.23
							 221.44 L43.27 221.44 L43.27 222.98 ZM33.57 259.53 L31.39 259.53 L32.61 260.89 L34.97 260.89 L33.57 259.53
							 ZM31.1 257.12 L29.22 257.12 L30.53 258.58 L32.6 258.58 L31.1 257.12 ZM30.21 259.53 L28.03 259.53 L28.99
							 260.89 L31.34 260.89 L30.21 259.53 ZM28.21 257.12 L26.32 257.12 L27.36 258.58 L29.42 258.58 L28.21 257.12
							 ZM26.85 259.53 L24.67 259.53 L25.36 260.89 L27.72 260.89 L26.85 259.53 ZM25.32 257.12 L23.43 257.12
							 L24.19 258.61 L26.26 258.61 L25.32 257.12 ZM23.49 259.53 L21.3 259.53 L21.74 260.89 L24.1 260.89 L23.49
							 259.53 ZM22.46 257.22 L20.57 257.22 L21.01 258.61 L23.08 258.61 L22.46 257.22 ZM20.13 259.53 L17.94
							 259.53 L18.12 260.89 L20.47 260.89 L20.13 259.53 ZM19.58 257.34 L17.67 257.34 L17.84 258.7 L19.92 258.7
							 L19.58 257.34 ZM16.64 257.34 L14.73 257.34 L14.64 258.7 L16.72 258.7 L16.64 257.34 ZM16.77 259.53 L14.58
							 259.53 L14.49 260.89 L16.85 260.89 L16.77 259.53 ZM13.7 257.34 L11.79 257.34 L11.44 258.7 L13.52 258.7
							 L13.7 257.34 ZM13.41 259.53 L11.22 259.53 L10.87 260.89 L13.23 260.89 L13.41 259.53 ZM25.39 261.76 L9.98
							 261.76 L9.58 263.12 L26.06 263.12 L25.39 261.76 ZM10.76 257.34 L8.85 257.34 L8.24 258.7 L10.32 258.7
							 L10.76 257.34 ZM10.05 259.53 L7.86 259.53 L7.25 260.89 L9.6 260.89 L10.05 259.53 ZM7.83 257.34 L5.92
							 257.34 L5.04 258.7 L7.12 258.7 L7.83 257.34 ZM6.69 259.53 L4.5 259.53 L3.62 260.89 L5.98 260.89 L6.69
							 259.53 ZM4.89 257.34 L2.98 257.34 L1.84 258.7 L3.92 258.7 L4.89 257.34 ZM3.32 259.53 L1.14 259.53 L0
							 260.89 L2.36 260.89 L3.32 259.53 Z" class="st6"/>
			</g>
		</g>
		<g id="shape58-55" v:mID="58" v:groupContext="shape" v:layerMember="0" transform="translate(281.045,-34.8254)">
			<title>Person.58</title>
			<v:userDefs>
				<v:ud v:nameU="visVersion" v:prompt="" v:val="VT0(15):26"/>
				<v:ud v:nameU="ConnGap" v:prompt="" v:val="VT0(0.00012908222537757):24"/>
			</v:userDefs>
			<g id="shadow58-56" v:groupContext="shadow" v:shadowOffsetX="0.345598" v:shadowOffsetY="-1.97279" v:shadowType="1"
					transform="matrix(1,0,0,1,0.345598,1.97279)" class="st1">
				<path d="M22.24 223.13 L5.29 223.13 C4.07 223.13 2.95 223.53 2.05 224.21 C1.43 224.69 0.92 225.3 0.56 225.99 C0.2
							 226.69 0 227.47 0 228.3 L0 247.95 L4.64 247.95 L4.64 263.12 L22.72 263.12 L22.72 247.95 L27.54 247.95
							 L27.54 228.3 C27.54 227.1 27.12 226.01 26.42 225.13 C25.94 224.52 25.32 224.02 24.61 223.67 C23.89 223.32
							 23.09 223.13 22.24 223.13 ZM21.69 213.4 A7.91951 7.65287 -180 1 0 5.85 213.4 A7.91951 7.65287 -180 1
							 0 21.69 213.4 Z" class="st5"/>
				<path d="M22.24 223.13 L5.29 223.13 C4.07 223.13 2.95 223.53 2.05 224.21 C1.43 224.69 0.92 225.3 0.56 225.99 C0.2
							 226.69 0 227.47 0 228.3 L0 247.95 L4.64 247.95 L4.64 263.12 L22.72 263.12 L22.72 247.95 L27.54 247.95
							 L27.54 228.3 C27.54 227.1 27.12 226.01 26.42 225.13 C25.94 224.52 25.32 224.02 24.61 223.67 C23.89 223.32
							 23.09 223.13 22.24 223.13" class="st7"/>
				<path d="M13.77 263.12 L13.77 250.99" class="st7"/>
				<path d="M4.64 247.95 L4.64 237.48" class="st7"/>
				<path d="M22.72 247.95 L22.72 237.48" class="st7"/>
				<path d="M21.69 213.4 A7.91951 7.65287 -180 1 0 5.85 213.4 A7.91951 7.65287 -180 1 0 21.69 213.4" class="st7"/>
			</g>
			<path d="M22.24 223.13 L5.29 223.13 C4.07 223.13 2.95 223.53 2.05 224.21 C1.43 224.69 0.92 225.3 0.56 225.99 C0.2 226.69
						 0 227.47 0 228.3 L0 247.95 L4.64 247.95 L4.64 263.12 L22.72 263.12 L22.72 247.95 L27.54 247.95 L27.54 228.3
						 C27.54 227.1 27.12 226.01 26.42 225.13 C25.94 224.52 25.32 224.02 24.61 223.67 C23.89 223.32 23.09 223.13
						 22.24 223.13 ZM21.69 213.4 A7.91951 7.65287 -180 1 0 5.85 213.4 A7.91951 7.65287 -180 1 0 21.69 213.4 Z"
					class="st8"/>
			<path d="M22.24 223.13 L5.29 223.13 C4.07 223.13 2.95 223.53 2.05 224.21 C1.43 224.69 0.92 225.3 0.56 225.99 C0.2 226.69
						 0 227.47 0 228.3 L0 247.95 L4.64 247.95 L4.64 263.12 L22.72 263.12 L22.72 247.95 L27.54 247.95 L27.54 228.3
						 C27.54 227.1 27.12 226.01 26.42 225.13 C25.94 224.52 25.32 224.02 24.61 223.67 C23.89 223.32 23.09 223.13
						 22.24 223.13" class="st9"/>
			<path d="M13.77 263.12 L13.77 250.99" class="st9"/>
			<path d="M4.64 247.95 L4.64 237.48" class="st9"/>
			<path d="M22.72 247.95 L22.72 237.48" class="st9"/>
			<path d="M21.69 213.4 A7.91951 7.65287 -180 1 0 5.85 213.4 A7.91951 7.65287 -180 1 0 21.69 213.4" class="st9"/>
		</g>
		<g id="group59-71" transform="translate(80.2573,-175.377)" v:mID="59" v:groupContext="group">
			<v:custProps>
				<v:cp v:nameU="AssetNumber" v:lbl="Asset Number" v:prompt="" v:type="0" v:format="" v:sortKey="Asset"
						v:invis="false" v:ask="false" v:langID="1033" v:cal="0"/>
				<v:cp v:nameU="SerialNumber" v:lbl="Serial Number" v:prompt="" v:type="0" v:format="" v:sortKey="Asset"
						v:invis="false" v:ask="false" v:langID="1033" v:cal="0"/>
				<v:cp v:nameU="Location" v:lbl="Location" v:prompt="" v:type="0" v:format="" v:sortKey="Asset" v:invis="false"
						v:ask="false" v:langID="1033" v:cal="0"/>
				<v:cp v:nameU="Building" v:lbl="Building" v:prompt="" v:type="0" v:format="" v:sortKey="Asset" v:invis="false"
						v:ask="false" v:langID="1033" v:cal="0"/>
				<v:cp v:nameU="Room" v:lbl="Room" v:prompt="" v:type="0" v:format="" v:sortKey="Asset" v:invis="false"
						v:ask="false" v:langID="1033" v:cal="0"/>
				<v:cp v:nameU="Manufacturer" v:lbl="Manufacturer" v:prompt="" v:type="0" v:format="" v:sortKey="Equipment"
						v:invis="false" v:ask="false" v:langID="1033" v:cal="0"/>
				<v:cp v:nameU="ProductNumber" v:lbl="Product Number" v:prompt="" v:type="0" v:format="" v:sortKey="Equipment"
						v:invis="false" v:ask="false" v:langID="1033" v:cal="0"/>
				<v:cp v:nameU="PartNumber" v:lbl="Part Number" v:prompt="" v:type="0" v:format="" v:sortKey="Equipment"
						v:invis="false" v:ask="false" v:langID="1033" v:cal="0"/>
				<v:cp v:nameU="ProductDescription" v:lbl="Product Description" v:prompt="" v:type="0" v:format=""
						v:sortKey="Equipment" v:invis="false" v:ask="false" v:langID="1033" v:cal="0"/>
				<v:cp v:nameU="NetworkName" v:lbl="Network Name" v:prompt="" v:type="0" v:format="" v:sortKey="Network"
						v:invis="false" v:ask="false" v:langID="1033" v:cal="0"/>
				<v:cp v:nameU="IPAddress" v:lbl="IP Address" v:prompt="" v:type="0" v:format="" v:sortKey="Network" v:invis="false"
						v:ask="false" v:langID="1033" v:cal="0"/>
				<v:cp v:nameU="SubnetMask" v:lbl="Subnet Mask" v:prompt="" v:type="0" v:format="" v:sortKey="Network"
						v:invis="false" v:ask="false" v:langID="1033" v:cal="0"/>
				<v:cp v:nameU="AdminInterface" v:lbl="Administrative Interface" v:prompt="" v:type="0" v:format=""
						v:sortKey="Network" v:invis="false" v:ask="false" v:langID="1033" v:cal="0"/>
				<v:cp v:nameU="NumberofPorts" v:lbl="Number of Ports" v:prompt="" v:type="0" v:format="" v:sortKey="Network"
						v:invis="false" v:ask="false" v:langID="1033" v:cal="0"/>
				<v:cp v:nameU="CommunityString" v:lbl="Community String" v:prompt="" v:type="0" v:format="" v:sortKey="Network"
						v:invis="false" v:ask="false" v:langID="1033" v:cal="0"/>
				<v:cp v:nameU="NetworkDescription" v:lbl="Network Description" v:prompt="" v:type="0" v:format=""
						v:sortKey="Network" v:invis="false" v:ask="false" v:langID="1033" v:cal="0"/>
				<v:cp v:nameU="MACAddress" v:lbl="MAC Address" v:prompt="" v:type="0" v:format="" v:sortKey="Network"
						v:invis="false" v:ask="false" v:langID="1033" v:cal="0"/>
				<v:cp v:nameU="CPU" v:lbl="CPU" v:prompt="" v:type="0" v:format="" v:sortKey="Workstation" v:invis="false"
						v:ask="false" v:langID="1033" v:cal="0"/>
				<v:cp v:nameU="Memory" v:lbl="Memory" v:prompt="" v:type="0" v:format="" v:sortKey="Workstation" v:invis="false"
						v:ask="false" v:langID="1033" v:cal="0"/>
				<v:cp v:nameU="OperatingSystem" v:lbl="Operating System" v:prompt="" v:type="0" v:format="" v:sortKey="Workstation"
						v:invis="false" v:ask="false" v:langID="1033" v:cal="0"/>
				<v:cp v:nameU="HardDriveSize" v:lbl="Hard Drive Capacity" v:prompt="" v:type="0" v:format=""
						v:sortKey="Workstation" v:invis="false" v:ask="false" v:langID="1033" v:cal="0"/>
				<v:cp v:nameU="Department" v:lbl="Department" v:prompt="" v:type="0" v:format="" v:sortKey="" v:invis="false"
						v:ask="false" v:langID="1033" v:cal="0"/>
				<v:cp v:nameU="ShapeClass" v:lbl="ShapeClass" v:prompt="" v:type="0" v:format="" v:sortKey="" v:invis="true"
						v:ask="false" v:langID="1033" v:cal="0" v:val="VT4(Equipment)"/>
				<v:cp v:nameU="ShapeType" v:lbl="ShapeType" v:prompt="" v:type="0" v:format="" v:sortKey="" v:invis="true"
						v:ask="false" v:langID="1033" v:cal="0" v:val="VT4(Computer)"/>
				<v:cp v:nameU="SubShapeType" v:lbl="SubShapeType" v:prompt="" v:type="0" v:format="" v:sortKey="" v:invis="true"
						v:ask="false" v:langID="1033" v:cal="0" v:val="VT4(Desktop)"/>
				<v:cp v:nameU="BelongsTo" v:lbl="Belongs To" v:prompt="" v:type="0" v:format="" v:sortKey="" v:invis="true"
						v:ask="false" v:langID="1033" v:cal="0"/>
			</v:custProps>
			<v:userDefs>
				<v:ud v:nameU="visVersion" v:prompt="" v:val="VT0(15):26"/>
				<v:ud v:nameU="ShapeClass" v:prompt="" v:val="VT0(5):26"/>
				<v:ud v:nameU="SolSH" v:prompt="" v:val="VT15({BF0433D9-CD73-4EB5-8390-8653BE590246}):41"/>
				<v:ud v:nameU="visLegendShape" v:prompt="" v:val="VT0(2):26"/>
			</v:userDefs>
			<title>PC.59</title>
			<g id="shape60-72" v:mID="60" v:groupContext="shape" transform="translate(0,-3.82595)">
				<title>Sheet.60</title>
				<g id="shadow60-73" v:groupContext="shadow" v:shadowOffsetX="0.345598" v:shadowOffsetY="-1.97279" v:shadowType="1"
						transform="matrix(1,0,0,1,0.345598,1.97279)" class="st1">
					<path d="M38.86 249.03 L38.86 253.87 L41.79 253.87 L44.56 257.34 L57.37 257.34 L57.37 213.4 L38.86 213.4 L38.86
								 219.71 L46.8 219.71 L46.8 249.03 L38.86 249.03 ZM46.8 219.71 L2.86 219.71 L2.86 249.03 L46.8 249.03
								 L46.8 219.71 ZM49.17 263.12 L41.79 253.87 L7.37 253.87 L0 263.12 L49.17 263.12 ZM28.44 249.03 L20.72
								 249.03 L20.72 253.87 L28.44 253.87 L28.44 249.03 Z" class="st2"/>
				</g>
				<path d="M38.86 249.03 L38.86 253.87 L41.79 253.87 L44.56 257.34 L57.37 257.34 L57.37 213.4 L38.86 213.4 L38.86 219.71
							 L46.8 219.71 L46.8 249.03 L38.86 249.03 ZM46.8 219.71 L2.86 219.71 L2.86 249.03 L46.8 249.03 L46.8 219.71
							 ZM49.17 263.12 L41.79 253.87 L7.37 253.87 L0 263.12 L49.17 263.12 ZM28.44 249.03 L20.72 249.03 L20.72
							 253.87 L28.44 253.87 L28.44 249.03 Z" class="st3"/>
			</g>
			<g id="shape61-77" v:mID="61" v:groupContext="shape" transform="translate(5.70943,-20.5562)">
				<title>Sheet.61</title>
				<v:userDefs>
					<v:ud v:nameU="SurroundingRegionColor" v:prompt="" v:val="VT0(1):26"/>
					<v:ud v:nameU="SurroundingRegionColor" v:prompt="" v:val="VT5(#1e4e79)"/>
				</v:userDefs>
				<g id="shadow61-78" v:groupContext="shadow" v:shadowOffsetX="0.345598" v:shadowOffsetY="-1.97279" v:shadowType="1"
						transform="matrix(1,0,0,1,0.345598,1.97279)" class="st1">
					<path d="M38.3 239.34 L0 239.34 L0 263.12 L38.3 263.12 L38.3 239.34 Z" class="st2"/>
				</g>
				<path d="M38.3 239.34 L0 239.34 L0 263.12 L38.3 263.12 L38.3 239.34 Z" class="st4"/>
			</g>
			<g id="shape62-82" v:mID="62" v:groupContext="shape" transform="translate(6.69094,-5.73438)">
				<title>Sheet.62</title>
				<v:userDefs>
					<v:ud v:nameU="SurroundingRegionColor" v:prompt="" v:val="VT0(1):26"/>
					<v:ud v:nameU="SurroundingRegionColor" v:prompt="" v:val="VT5(#1e4e79)"/>
				</v:userDefs>
				<g id="shadow62-83" v:groupContext="shadow" v:shadowOffsetX="0.345598" v:shadowOffsetY="-1.97279" v:shadowType="1"
						transform="matrix(1,0,0,1,0.345598,1.97279)" class="st1">
					<path d="M43.27 220.23 L47.23 220.23 L47.23 218.69 L43.27 218.69 L43.27 220.23 ZM43.27 222.98 L47.23 222.98 L47.23
								 221.44 L43.27 221.44 L43.27 222.98 ZM33.57 259.53 L31.39 259.53 L32.61 260.89 L34.97 260.89 L33.57
								 259.53 ZM31.1 257.12 L29.22 257.12 L30.53 258.58 L32.6 258.58 L31.1 257.12 ZM30.21 259.53 L28.03
								 259.53 L28.99 260.89 L31.34 260.89 L30.21 259.53 ZM28.21 257.12 L26.32 257.12 L27.36 258.58 L29.42
								 258.58 L28.21 257.12 ZM26.85 259.53 L24.67 259.53 L25.36 260.89 L27.72 260.89 L26.85 259.53 ZM25.32
								 257.12 L23.43 257.12 L24.19 258.61 L26.26 258.61 L25.32 257.12 ZM23.49 259.53 L21.3 259.53 L21.74
								 260.89 L24.1 260.89 L23.49 259.53 ZM22.46 257.22 L20.57 257.22 L21.01 258.61 L23.08 258.61 L22.46
								 257.22 ZM20.13 259.53 L17.94 259.53 L18.12 260.89 L20.47 260.89 L20.13 259.53 ZM19.58 257.34 L17.67
								 257.34 L17.84 258.7 L19.92 258.7 L19.58 257.34 ZM16.64 257.34 L14.73 257.34 L14.64 258.7 L16.72
								 258.7 L16.64 257.34 ZM16.77 259.53 L14.58 259.53 L14.49 260.89 L16.85 260.89 L16.77 259.53 ZM13.7
								 257.34 L11.79 257.34 L11.44 258.7 L13.52 258.7 L13.7 257.34 ZM13.41 259.53 L11.22 259.53 L10.87
								 260.89 L13.23 260.89 L13.41 259.53 ZM25.39 261.76 L9.98 261.76 L9.58 263.12 L26.06 263.12 L25.39
								 261.76 ZM10.76 257.34 L8.85 257.34 L8.24 258.7 L10.32 258.7 L10.76 257.34 ZM10.05 259.53 L7.86 259.53
								 L7.25 260.89 L9.6 260.89 L10.05 259.53 ZM7.83 257.34 L5.92 257.34 L5.04 258.7 L7.12 258.7 L7.83
								 257.34 ZM6.69 259.53 L4.5 259.53 L3.62 260.89 L5.98 260.89 L6.69 259.53 ZM4.89 257.34 L2.98 257.34
								 L1.84 258.7 L3.92 258.7 L4.89 257.34 ZM3.32 259.53 L1.14 259.53 L0 260.89 L2.36 260.89 L3.32 259.53
								 Z" class="st5"/>
				</g>
				<path d="M43.27 220.23 L47.23 220.23 L47.23 218.69 L43.27 218.69 L43.27 220.23 ZM43.27 222.98 L47.23 222.98 L47.23
							 221.44 L43.27 221.44 L43.27 222.98 ZM33.57 259.53 L31.39 259.53 L32.61 260.89 L34.97 260.89 L33.57 259.53
							 ZM31.1 257.12 L29.22 257.12 L30.53 258.58 L32.6 258.58 L31.1 257.12 ZM30.21 259.53 L28.03 259.53 L28.99
							 260.89 L31.34 260.89 L30.21 259.53 ZM28.21 257.12 L26.32 257.12 L27.36 258.58 L29.42 258.58 L28.21 257.12
							 ZM26.85 259.53 L24.67 259.53 L25.36 260.89 L27.72 260.89 L26.85 259.53 ZM25.32 257.12 L23.43 257.12
							 L24.19 258.61 L26.26 258.61 L25.32 257.12 ZM23.49 259.53 L21.3 259.53 L21.74 260.89 L24.1 260.89 L23.49
							 259.53 ZM22.46 257.22 L20.57 257.22 L21.01 258.61 L23.08 258.61 L22.46 257.22 ZM20.13 259.53 L17.94
							 259.53 L18.12 260.89 L20.47 260.89 L20.13 259.53 ZM19.58 257.34 L17.67 257.34 L17.84 258.7 L19.92 258.7
							 L19.58 257.34 ZM16.64 257.34 L14.73 257.34 L14.64 258.7 L16.72 258.7 L16.64 257.34 ZM16.77 259.53 L14.58
							 259.53 L14.49 260.89 L16.85 260.89 L16.77 259.53 ZM13.7 257.34 L11.79 257.34 L11.44 258.7 L13.52 258.7
							 L13.7 257.34 ZM13.41 259.53 L11.22 259.53 L10.87 260.89 L13.23 260.89 L13.41 259.53 ZM25.39 261.76 L9.98
							 261.76 L9.58 263.12 L26.06 263.12 L25.39 261.76 ZM10.76 257.34 L8.85 257.34 L8.24 258.7 L10.32 258.7
							 L10.76 257.34 ZM10.05 259.53 L7.86 259.53 L7.25 260.89 L9.6 260.89 L10.05 259.53 ZM7.83 257.34 L5.92
							 257.34 L5.04 258.7 L7.12 258.7 L7.83 257.34 ZM6.69 259.53 L4.5 259.53 L3.62 260.89 L5.98 260.89 L6.69
							 259.53 ZM4.89 257.34 L2.98 257.34 L1.84 258.7 L3.92 258.7 L4.89 257.34 ZM3.32 259.53 L1.14 259.53 L0
							 260.89 L2.36 260.89 L3.32 259.53 Z" class="st6"/>
			</g>
		</g>
		<g id="shape63-90" v:mID="63" v:groupContext="shape" v:layerMember="0" transform="translate(103.204,-146.693)">
			<title>Person.63</title>
			<v:userDefs>
				<v:ud v:nameU="visVersion" v:prompt="" v:val="VT0(15):26"/>
				<v:ud v:nameU="ConnGap" v:prompt="" v:val="VT0(0.00012908222537757):24"/>
			</v:userDefs>
			<g id="shadow63-91" v:groupContext="shadow" v:shadowOffsetX="0.345598" v:shadowOffsetY="-1.97279" v:shadowType="1"
					transform="matrix(1,0,0,1,0.345598,1.97279)" class="st1">
				<path d="M22.24 223.13 L5.29 223.13 C4.07 223.13 2.95 223.53 2.05 224.21 C1.43 224.69 0.92 225.3 0.56 225.99 C0.2
							 226.69 0 227.47 0 228.3 L0 247.95 L4.64 247.95 L4.64 263.12 L22.72 263.12 L22.72 247.95 L27.54 247.95
							 L27.54 228.3 C27.54 227.1 27.12 226.01 26.42 225.13 C25.94 224.52 25.32 224.02 24.61 223.67 C23.89 223.32
							 23.09 223.13 22.24 223.13 ZM21.69 213.4 A7.91951 7.65287 -180 1 0 5.85 213.4 A7.91951 7.65287 -180 1
							 0 21.69 213.4 Z" class="st5"/>
				<path d="M22.24 223.13 L5.29 223.13 C4.07 223.13 2.95 223.53 2.05 224.21 C1.43 224.69 0.92 225.3 0.56 225.99 C0.2
							 226.69 0 227.47 0 228.3 L0 247.95 L4.64 247.95 L4.64 263.12 L22.72 263.12 L22.72 247.95 L27.54 247.95
							 L27.54 228.3 C27.54 227.1 27.12 226.01 26.42 225.13 C25.94 224.52 25.32 224.02 24.61 223.67 C23.89 223.32
							 23.09 223.13 22.24 223.13" class="st7"/>
				<path d="M13.77 263.12 L13.77 250.99" class="st7"/>
				<path d="M4.64 247.95 L4.64 237.48" class="st7"/>
				<path d="M22.72 247.95 L22.72 237.48" class="st7"/>
				<path d="M21.69 213.4 A7.91951 7.65287 -180 1 0 5.85 213.4 A7.91951 7.65287 -180 1 0 21.69 213.4" class="st7"/>
			</g>
			<path d="M22.24 223.13 L5.29 223.13 C4.07 223.13 2.95 223.53 2.05 224.21 C1.43 224.69 0.92 225.3 0.56 225.99 C0.2 226.69
						 0 227.47 0 228.3 L0 247.95 L4.64 247.95 L4.64 263.12 L22.72 263.12 L22.72 247.95 L27.54 247.95 L27.54 228.3
						 C27.54 227.1 27.12 226.01 26.42 225.13 C25.94 224.52 25.32 224.02 24.61 223.67 C23.89 223.32 23.09 223.13
						 22.24 223.13 ZM21.69 213.4 A7.91951 7.65287 -180 1 0 5.85 213.4 A7.91951 7.65287 -180 1 0 21.69 213.4 Z"
					class="st8"/>
			<path d="M22.24 223.13 L5.29 223.13 C4.07 223.13 2.95 223.53 2.05 224.21 C1.43 224.69 0.92 225.3 0.56 225.99 C0.2 226.69
						 0 227.47 0 228.3 L0 247.95 L4.64 247.95 L4.64 263.12 L22.72 263.12 L22.72 247.95 L27.54 247.95 L27.54 228.3
						 C27.54 227.1 27.12 226.01 26.42 225.13 C25.94 224.52 25.32 224.02 24.61 223.67 C23.89 223.32 23.09 223.13
						 22.24 223.13" class="st9"/>
			<path d="M13.77 263.12 L13.77 250.99" class="st9"/>
			<path d="M4.64 247.95 L4.64 237.48" class="st9"/>
			<path d="M22.72 247.95 L22.72 237.48" class="st9"/>
			<path d="M21.69 213.4 A7.91951 7.65287 -180 1 0 5.85 213.4 A7.91951 7.65287 -180 1 0 21.69 213.4" class="st9"/>
		</g>
		<g id="group64-106" transform="translate(258.098,-175.377)" v:mID="64" v:groupContext="group">
			<v:custProps>
				<v:cp v:nameU="AssetNumber" v:lbl="Asset Number" v:prompt="" v:type="0" v:format="" v:sortKey="Asset"
						v:invis="false" v:ask="false" v:langID="1033" v:cal="0"/>
				<v:cp v:nameU="SerialNumber" v:lbl="Serial Number" v:prompt="" v:type="0" v:format="" v:sortKey="Asset"
						v:invis="false" v:ask="false" v:langID="1033" v:cal="0"/>
				<v:cp v:nameU="Location" v:lbl="Location" v:prompt="" v:type="0" v:format="" v:sortKey="Asset" v:invis="false"
						v:ask="false" v:langID="1033" v:cal="0"/>
				<v:cp v:nameU="Building" v:lbl="Building" v:prompt="" v:type="0" v:format="" v:sortKey="Asset" v:invis="false"
						v:ask="false" v:langID="1033" v:cal="0"/>
				<v:cp v:nameU="Room" v:lbl="Room" v:prompt="" v:type="0" v:format="" v:sortKey="Asset" v:invis="false"
						v:ask="false" v:langID="1033" v:cal="0"/>
				<v:cp v:nameU="Manufacturer" v:lbl="Manufacturer" v:prompt="" v:type="0" v:format="" v:sortKey="Equipment"
						v:invis="false" v:ask="false" v:langID="1033" v:cal="0"/>
				<v:cp v:nameU="ProductNumber" v:lbl="Product Number" v:prompt="" v:type="0" v:format="" v:sortKey="Equipment"
						v:invis="false" v:ask="false" v:langID="1033" v:cal="0"/>
				<v:cp v:nameU="PartNumber" v:lbl="Part Number" v:prompt="" v:type="0" v:format="" v:sortKey="Equipment"
						v:invis="false" v:ask="false" v:langID="1033" v:cal="0"/>
				<v:cp v:nameU="ProductDescription" v:lbl="Product Description" v:prompt="" v:type="0" v:format=""
						v:sortKey="Equipment" v:invis="false" v:ask="false" v:langID="1033" v:cal="0"/>
				<v:cp v:nameU="NetworkName" v:lbl="Network Name" v:prompt="" v:type="0" v:format="" v:sortKey="Network"
						v:invis="false" v:ask="false" v:langID="1033" v:cal="0"/>
				<v:cp v:nameU="IPAddress" v:lbl="IP Address" v:prompt="" v:type="0" v:format="" v:sortKey="Network" v:invis="false"
						v:ask="false" v:langID="1033" v:cal="0"/>
				<v:cp v:nameU="SubnetMask" v:lbl="Subnet Mask" v:prompt="" v:type="0" v:format="" v:sortKey="Network"
						v:invis="false" v:ask="false" v:langID="1033" v:cal="0"/>
				<v:cp v:nameU="AdminInterface" v:lbl="Administrative Interface" v:prompt="" v:type="0" v:format=""
						v:sortKey="Network" v:invis="false" v:ask="false" v:langID="1033" v:cal="0"/>
				<v:cp v:nameU="NumberofPorts" v:lbl="Number of Ports" v:prompt="" v:type="0" v:format="" v:sortKey="Network"
						v:invis="false" v:ask="false" v:langID="1033" v:cal="0"/>
				<v:cp v:nameU="CommunityString" v:lbl="Community String" v:prompt="" v:type="0" v:format="" v:sortKey="Network"
						v:invis="false" v:ask="false" v:langID="1033" v:cal="0"/>
				<v:cp v:nameU="NetworkDescription" v:lbl="Network Description" v:prompt="" v:type="0" v:format=""
						v:sortKey="Network" v:invis="false" v:ask="false" v:langID="1033" v:cal="0"/>
				<v:cp v:nameU="MACAddress" v:lbl="MAC Address" v:prompt="" v:type="0" v:format="" v:sortKey="Network"
						v:invis="false" v:ask="false" v:langID="1033" v:cal="0"/>
				<v:cp v:nameU="CPU" v:lbl="CPU" v:prompt="" v:type="0" v:format="" v:sortKey="Workstation" v:invis="false"
						v:ask="false" v:langID="1033" v:cal="0"/>
				<v:cp v:nameU="Memory" v:lbl="Memory" v:prompt="" v:type="0" v:format="" v:sortKey="Workstation" v:invis="false"
						v:ask="false" v:langID="1033" v:cal="0"/>
				<v:cp v:nameU="OperatingSystem" v:lbl="Operating System" v:prompt="" v:type="0" v:format="" v:sortKey="Workstation"
						v:invis="false" v:ask="false" v:langID="1033" v:cal="0"/>
				<v:cp v:nameU="HardDriveSize" v:lbl="Hard Drive Capacity" v:prompt="" v:type="0" v:format=""
						v:sortKey="Workstation" v:invis="false" v:ask="false" v:langID="1033" v:cal="0"/>
				<v:cp v:nameU="Department" v:lbl="Department" v:prompt="" v:type="0" v:format="" v:sortKey="" v:invis="false"
						v:ask="false" v:langID="1033" v:cal="0"/>
				<v:cp v:nameU="ShapeClass" v:lbl="ShapeClass" v:prompt="" v:type="0" v:format="" v:sortKey="" v:invis="true"
						v:ask="false" v:langID="1033" v:cal="0" v:val="VT4(Equipment)"/>
				<v:cp v:nameU="ShapeType" v:lbl="ShapeType" v:prompt="" v:type="0" v:format="" v:sortKey="" v:invis="true"
						v:ask="false" v:langID="1033" v:cal="0" v:val="VT4(Computer)"/>
				<v:cp v:nameU="SubShapeType" v:lbl="SubShapeType" v:prompt="" v:type="0" v:format="" v:sortKey="" v:invis="true"
						v:ask="false" v:langID="1033" v:cal="0" v:val="VT4(Desktop)"/>
				<v:cp v:nameU="BelongsTo" v:lbl="Belongs To" v:prompt="" v:type="0" v:format="" v:sortKey="" v:invis="true"
						v:ask="false" v:langID="1033" v:cal="0"/>
			</v:custProps>
			<v:userDefs>
				<v:ud v:nameU="visVersion" v:prompt="" v:val="VT0(15):26"/>
				<v:ud v:nameU="ShapeClass" v:prompt="" v:val="VT0(5):26"/>
				<v:ud v:nameU="SolSH" v:prompt="" v:val="VT15({BF0433D9-CD73-4EB5-8390-8653BE590246}):41"/>
				<v:ud v:nameU="visLegendShape" v:prompt="" v:val="VT0(2):26"/>
			</v:userDefs>
			<title>PC.64</title>
			<g id="shape65-107" v:mID="65" v:groupContext="shape" transform="translate(0,-3.82595)">
				<title>Sheet.65</title>
				<g id="shadow65-108" v:groupContext="shadow" v:shadowOffsetX="0.345598" v:shadowOffsetY="-1.97279" v:shadowType="1"
						transform="matrix(1,0,0,1,0.345598,1.97279)" class="st1">
					<path d="M38.86 249.03 L38.86 253.87 L41.79 253.87 L44.56 257.34 L57.37 257.34 L57.37 213.4 L38.86 213.4 L38.86
								 219.71 L46.8 219.71 L46.8 249.03 L38.86 249.03 ZM46.8 219.71 L2.86 219.71 L2.86 249.03 L46.8 249.03
								 L46.8 219.71 ZM49.17 263.12 L41.79 253.87 L7.37 253.87 L0 263.12 L49.17 263.12 ZM28.44 249.03 L20.72
								 249.03 L20.72 253.87 L28.44 253.87 L28.44 249.03 Z" class="st2"/>
				</g>
				<path d="M38.86 249.03 L38.86 253.87 L41.79 253.87 L44.56 257.34 L57.37 257.34 L57.37 213.4 L38.86 213.4 L38.86 219.71
							 L46.8 219.71 L46.8 249.03 L38.86 249.03 ZM46.8 219.71 L2.86 219.71 L2.86 249.03 L46.8 249.03 L46.8 219.71
							 ZM49.17 263.12 L41.79 253.87 L7.37 253.87 L0 263.12 L49.17 263.12 ZM28.44 249.03 L20.72 249.03 L20.72
							 253.87 L28.44 253.87 L28.44 249.03 Z" class="st3"/>
			</g>
			<g id="shape66-112" v:mID="66" v:groupContext="shape" transform="translate(5.70943,-20.5562)">
				<title>Sheet.66</title>
				<v:userDefs>
					<v:ud v:nameU="SurroundingRegionColor" v:prompt="" v:val="VT0(1):26"/>
					<v:ud v:nameU="SurroundingRegionColor" v:prompt="" v:val="VT5(#1e4e79)"/>
				</v:userDefs>
				<g id="shadow66-113" v:groupContext="shadow" v:shadowOffsetX="0.345598" v:shadowOffsetY="-1.97279" v:shadowType="1"
						transform="matrix(1,0,0,1,0.345598,1.97279)" class="st1">
					<path d="M38.3 239.34 L0 239.34 L0 263.12 L38.3 263.12 L38.3 239.34 Z" class="st2"/>
				</g>
				<path d="M38.3 239.34 L0 239.34 L0 263.12 L38.3 263.12 L38.3 239.34 Z" class="st4"/>
			</g>
			<g id="shape67-117" v:mID="67" v:groupContext="shape" transform="translate(6.69094,-5.73438)">
				<title>Sheet.67</title>
				<v:userDefs>
					<v:ud v:nameU="SurroundingRegionColor" v:prompt="" v:val="VT0(1):26"/>
					<v:ud v:nameU="SurroundingRegionColor" v:prompt="" v:val="VT5(#1e4e79)"/>
				</v:userDefs>
				<g id="shadow67-118" v:groupContext="shadow" v:shadowOffsetX="0.345598" v:shadowOffsetY="-1.97279" v:shadowType="1"
						transform="matrix(1,0,0,1,0.345598,1.97279)" class="st1">
					<path d="M43.27 220.23 L47.23 220.23 L47.23 218.69 L43.27 218.69 L43.27 220.23 ZM43.27 222.98 L47.23 222.98 L47.23
								 221.44 L43.27 221.44 L43.27 222.98 ZM33.57 259.53 L31.39 259.53 L32.61 260.89 L34.97 260.89 L33.57
								 259.53 ZM31.1 257.12 L29.22 257.12 L30.53 258.58 L32.6 258.58 L31.1 257.12 ZM30.21 259.53 L28.03
								 259.53 L28.99 260.89 L31.34 260.89 L30.21 259.53 ZM28.21 257.12 L26.32 257.12 L27.36 258.58 L29.42
								 258.58 L28.21 257.12 ZM26.85 259.53 L24.67 259.53 L25.36 260.89 L27.72 260.89 L26.85 259.53 ZM25.32
								 257.12 L23.43 257.12 L24.19 258.61 L26.26 258.61 L25.32 257.12 ZM23.49 259.53 L21.3 259.53 L21.74
								 260.89 L24.1 260.89 L23.49 259.53 ZM22.46 257.22 L20.57 257.22 L21.01 258.61 L23.08 258.61 L22.46
								 257.22 ZM20.13 259.53 L17.94 259.53 L18.12 260.89 L20.47 260.89 L20.13 259.53 ZM19.58 257.34 L17.67
								 257.34 L17.84 258.7 L19.92 258.7 L19.58 257.34 ZM16.64 257.34 L14.73 257.34 L14.64 258.7 L16.72
								 258.7 L16.64 257.34 ZM16.77 259.53 L14.58 259.53 L14.49 260.89 L16.85 260.89 L16.77 259.53 ZM13.7
								 257.34 L11.79 257.34 L11.44 258.7 L13.52 258.7 L13.7 257.34 ZM13.41 259.53 L11.22 259.53 L10.87
								 260.89 L13.23 260.89 L13.41 259.53 ZM25.39 261.76 L9.98 261.76 L9.58 263.12 L26.06 263.12 L25.39
								 261.76 ZM10.76 257.34 L8.85 257.34 L8.24 258.7 L10.32 258.7 L10.76 257.34 ZM10.05 259.53 L7.86 259.53
								 L7.25 260.89 L9.6 260.89 L10.05 259.53 ZM7.83 257.34 L5.92 257.34 L5.04 258.7 L7.12 258.7 L7.83
								 257.34 ZM6.69 259.53 L4.5 259.53 L3.62 260.89 L5.98 260.89 L6.69 259.53 ZM4.89 257.34 L2.98 257.34
								 L1.84 258.7 L3.92 258.7 L4.89 257.34 ZM3.32 259.53 L1.14 259.53 L0 260.89 L2.36 260.89 L3.32 259.53
								 Z" class="st5"/>
				</g>
				<path d="M43.27 220.23 L47.23 220.23 L47.23 218.69 L43.27 218.69 L43.27 220.23 ZM43.27 222.98 L47.23 222.98 L47.23
							 221.44 L43.27 221.44 L43.27 222.98 ZM33.57 259.53 L31.39 259.53 L32.61 260.89 L34.97 260.89 L33.57 259.53
							 ZM31.1 257.12 L29.22 257.12 L30.53 258.58 L32.6 258.58 L31.1 257.12 ZM30.21 259.53 L28.03 259.53 L28.99
							 260.89 L31.34 260.89 L30.21 259.53 ZM28.21 257.12 L26.32 257.12 L27.36 258.58 L29.42 258.58 L28.21 257.12
							 ZM26.85 259.53 L24.67 259.53 L25.36 260.89 L27.72 260.89 L26.85 259.53 ZM25.32 257.12 L23.43 257.12
							 L24.19 258.61 L26.26 258.61 L25.32 257.12 ZM23.49 259.53 L21.3 259.53 L21.74 260.89 L24.1 260.89 L23.49
							 259.53 ZM22.46 257.22 L20.57 257.22 L21.01 258.61 L23.08 258.61 L22.46 257.22 ZM20.13 259.53 L17.94
							 259.53 L18.12 260.89 L20.47 260.89 L20.13 259.53 ZM19.58 257.34 L17.67 257.34 L17.84 258.7 L19.92 258.7
							 L19.58 257.34 ZM16.64 257.34 L14.73 257.34 L14.64 258.7 L16.72 258.7 L16.64 257.34 ZM16.77 259.53 L14.58
							 259.53 L14.49 260.89 L16.85 260.89 L16.77 259.53 ZM13.7 257.34 L11.79 257.34 L11.44 258.7 L13.52 258.7
							 L13.7 257.34 ZM13.41 259.53 L11.22 259.53 L10.87 260.89 L13.23 260.89 L13.41 259.53 ZM25.39 261.76 L9.98
							 261.76 L9.58 263.12 L26.06 263.12 L25.39 261.76 ZM10.76 257.34 L8.85 257.34 L8.24 258.7 L10.32 258.7
							 L10.76 257.34 ZM10.05 259.53 L7.86 259.53 L7.25 260.89 L9.6 260.89 L10.05 259.53 ZM7.83 257.34 L5.92
							 257.34 L5.04 258.7 L7.12 258.7 L7.83 257.34 ZM6.69 259.53 L4.5 259.53 L3.62 260.89 L5.98 260.89 L6.69
							 259.53 ZM4.89 257.34 L2.98 257.34 L1.84 258.7 L3.92 258.7 L4.89 257.34 ZM3.32 259.53 L1.14 259.53 L0
							 260.89 L2.36 260.89 L3.32 259.53 Z" class="st6"/>
			</g>
		</g>
		<g id="shape68-125" v:mID="68" v:groupContext="shape" v:layerMember="0" transform="translate(281.045,-146.693)">
			<title>Person.68</title>
			<v:userDefs>
				<v:ud v:nameU="visVersion" v:prompt="" v:val="VT0(15):26"/>
				<v:ud v:nameU="ConnGap" v:prompt="" v:val="VT0(0.00012908222537757):24"/>
			</v:userDefs>
			<g id="shadow68-126" v:groupContext="shadow" v:shadowOffsetX="0.345598" v:shadowOffsetY="-1.97279" v:shadowType="1"
					transform="matrix(1,0,0,1,0.345598,1.97279)" class="st1">
				<path d="M22.24 223.13 L5.29 223.13 C4.07 223.13 2.95 223.53 2.05 224.21 C1.43 224.69 0.92 225.3 0.56 225.99 C0.2
							 226.69 0 227.47 0 228.3 L0 247.95 L4.64 247.95 L4.64 263.12 L22.72 263.12 L22.72 247.95 L27.54 247.95
							 L27.54 228.3 C27.54 227.1 27.12 226.01 26.42 225.13 C25.94 224.52 25.32 224.02 24.61 223.67 C23.89 223.32
							 23.09 223.13 22.24 223.13 ZM21.69 213.4 A7.91951 7.65287 -180 1 0 5.85 213.4 A7.91951 7.65287 -180 1
							 0 21.69 213.4 Z" class="st5"/>
				<path d="M22.24 223.13 L5.29 223.13 C4.07 223.13 2.95 223.53 2.05 224.21 C1.43 224.69 0.92 225.3 0.56 225.99 C0.2
							 226.69 0 227.47 0 228.3 L0 247.95 L4.64 247.95 L4.64 263.12 L22.72 263.12 L22.72 247.95 L27.54 247.95
							 L27.54 228.3 C27.54 227.1 27.12 226.01 26.42 225.13 C25.94 224.52 25.32 224.02 24.61 223.67 C23.89 223.32
							 23.09 223.13 22.24 223.13" class="st7"/>
				<path d="M13.77 263.12 L13.77 250.99" class="st7"/>
				<path d="M4.64 247.95 L4.64 237.48" class="st7"/>
				<path d="M22.72 247.95 L22.72 237.48" class="st7"/>
				<path d="M21.69 213.4 A7.91951 7.65287 -180 1 0 5.85 213.4 A7.91951 7.65287 -180 1 0 21.69 213.4" class="st7"/>
			</g>
			<path d="M22.24 223.13 L5.29 223.13 C4.07 223.13 2.95 223.53 2.05 224.21 C1.43 224.69 0.92 225.3 0.56 225.99 C0.2 226.69
						 0 227.47 0 228.3 L0 247.95 L4.64 247.95 L4.64 263.12 L22.72 263.12 L22.72 247.95 L27.54 247.95 L27.54 228.3
						 C27.54 227.1 27.12 226.01 26.42 225.13 C25.94 224.52 25.32 224.02 24.61 223.67 C23.89 223.32 23.09 223.13
						 22.24 223.13 ZM21.69 213.4 A7.91951 7.65287 -180 1 0 5.85 213.4 A7.91951 7.65287 -180 1 0 21.69 213.4 Z"
					class="st8"/>
			<path d="M22.24 223.13 L5.29 223.13 C4.07 223.13 2.95 223.53 2.05 224.21 C1.43 224.69 0.92 225.3 0.56 225.99 C0.2 226.69
						 0 227.47 0 228.3 L0 247.95 L4.64 247.95 L4.64 263.12 L22.72 263.12 L22.72 247.95 L27.54 247.95 L27.54 228.3
						 C27.54 227.1 27.12 226.01 26.42 225.13 C25.94 224.52 25.32 224.02 24.61 223.67 C23.89 223.32 23.09 223.13
						 22.24 223.13" class="st9"/>
			<path d="M13.77 263.12 L13.77 250.99" class="st9"/>
			<path d="M4.64 247.95 L4.64 237.48" class="st9"/>
			<path d="M22.72 247.95 L22.72 237.48" class="st9"/>
			<path d="M21.69 213.4 A7.91951 7.65287 -180 1 0 5.85 213.4 A7.91951 7.65287 -180 1 0 21.69 213.4" class="st9"/>
		</g>
		<g id="group69-141" transform="translate(166.309,-129.482)" v:mID="69" v:groupContext="group">
			<v:custProps>
				<v:cp v:nameU="AssetNumber" v:lbl="Asset Number" v:prompt="" v:type="0" v:format="" v:sortKey="Asset"
						v:invis="false" v:ask="false" v:langID="1033" v:cal="0"/>
				<v:cp v:nameU="SerialNumber" v:lbl="Serial Number" v:prompt="" v:type="0" v:format="" v:sortKey="Asset"
						v:invis="false" v:ask="false" v:langID="1033" v:cal="0"/>
				<v:cp v:nameU="Location" v:lbl="Location" v:prompt="" v:type="0" v:format="" v:sortKey="Asset" v:invis="false"
						v:ask="false" v:langID="1033" v:cal="0"/>
				<v:cp v:nameU="Building" v:lbl="Building" v:prompt="" v:type="0" v:format="" v:sortKey="Asset" v:invis="false"
						v:ask="false" v:langID="1033" v:cal="0"/>
				<v:cp v:nameU="Room" v:lbl="Room" v:prompt="" v:type="0" v:format="" v:sortKey="Asset" v:invis="false"
						v:ask="false" v:langID="1033" v:cal="0"/>
				<v:cp v:nameU="Manufacturer" v:lbl="Manufacturer" v:prompt="" v:type="0" v:format="" v:sortKey="Equipment"
						v:invis="false" v:ask="false" v:langID="1033" v:cal="0"/>
				<v:cp v:nameU="ProductNumber" v:lbl="Product Number" v:prompt="" v:type="0" v:format="" v:sortKey="Equipment"
						v:invis="false" v:ask="false" v:langID="1033" v:cal="0"/>
				<v:cp v:nameU="PartNumber" v:lbl="Part Number" v:prompt="" v:type="0" v:format="" v:sortKey="Equipment"
						v:invis="false" v:ask="false" v:langID="1033" v:cal="0"/>
				<v:cp v:nameU="ProductDescription" v:lbl="Product Description" v:prompt="" v:type="0" v:format=""
						v:sortKey="Equipment" v:invis="false" v:ask="false" v:langID="1033" v:cal="0"/>
				<v:cp v:nameU="NetworkName" v:lbl="Network Name" v:prompt="" v:type="0" v:format="" v:sortKey="Network"
						v:invis="false" v:ask="false" v:langID="1033" v:cal="0"/>
				<v:cp v:nameU="IPAddress" v:lbl="IP Address" v:prompt="" v:type="0" v:format="" v:sortKey="Network" v:invis="false"
						v:ask="false" v:langID="1033" v:cal="0"/>
				<v:cp v:nameU="SubnetMask" v:lbl="Subnet Mask" v:prompt="" v:type="0" v:format="" v:sortKey="Network"
						v:invis="false" v:ask="false" v:langID="1033" v:cal="0"/>
				<v:cp v:nameU="AdminInterface" v:lbl="Administrative Interface" v:prompt="" v:type="0" v:format=""
						v:sortKey="Network" v:invis="false" v:ask="false" v:langID="1033" v:cal="0"/>
				<v:cp v:nameU="NumberofPorts" v:lbl="Number of Ports" v:prompt="" v:type="0" v:format="" v:sortKey="Network"
						v:invis="false" v:ask="false" v:langID="1033" v:cal="0"/>
				<v:cp v:nameU="CommunityString" v:lbl="Community String" v:prompt="" v:type="0" v:format="" v:sortKey="Network"
						v:invis="false" v:ask="false" v:langID="1033" v:cal="0"/>
				<v:cp v:nameU="NetworkDescription" v:lbl="Network Description" v:prompt="" v:type="0" v:format=""
						v:sortKey="Network" v:invis="false" v:ask="false" v:langID="1033" v:cal="0"/>
				<v:cp v:nameU="MACAddress" v:lbl="MAC Address" v:prompt="" v:type="0" v:format="" v:sortKey="Network"
						v:invis="false" v:ask="false" v:langID="1033" v:cal="0"/>
				<v:cp v:nameU="CPU" v:lbl="CPU" v:prompt="" v:type="0" v:format="" v:sortKey="Workstation" v:invis="false"
						v:ask="false" v:langID="1033" v:cal="0"/>
				<v:cp v:nameU="Memory" v:lbl="Memory" v:prompt="" v:type="0" v:format="" v:sortKey="Workstation" v:invis="false"
						v:ask="false" v:langID="1033" v:cal="0"/>
				<v:cp v:nameU="OperatingSystem" v:lbl="Operating System" v:prompt="" v:type="0" v:format="" v:sortKey="Workstation"
						v:invis="false" v:ask="false" v:langID="1033" v:cal="0"/>
				<v:cp v:nameU="HardDriveSize" v:lbl="Hard Drive Capacity" v:prompt="" v:type="0" v:format=""
						v:sortKey="Workstation" v:invis="false" v:ask="false" v:langID="1033" v:cal="0"/>
				<v:cp v:nameU="Department" v:lbl="Department" v:prompt="" v:type="0" v:format="" v:sortKey="" v:invis="false"
						v:ask="false" v:langID="1033" v:cal="0"/>
				<v:cp v:nameU="ShapeClass" v:lbl="ShapeClass" v:prompt="" v:type="0" v:format="" v:sortKey="" v:invis="true"
						v:ask="false" v:langID="1033" v:cal="0" v:val="VT4(Equipment)"/>
				<v:cp v:nameU="ShapeType" v:lbl="ShapeType" v:prompt="" v:type="0" v:format="" v:sortKey="" v:invis="true"
						v:ask="false" v:langID="1033" v:cal="0" v:val="VT4(Computer)"/>
				<v:cp v:nameU="SubShapeType" v:lbl="SubShapeType" v:prompt="" v:type="0" v:format="" v:sortKey="" v:invis="true"
						v:ask="false" v:langID="1033" v:cal="0" v:val="VT4(Desktop)"/>
				<v:cp v:nameU="BelongsTo" v:lbl="Belongs To" v:prompt="" v:type="0" v:format="" v:sortKey="" v:invis="true"
						v:ask="false" v:langID="1033" v:cal="0"/>
			</v:custProps>
			<v:userDefs>
				<v:ud v:nameU="visVersion" v:prompt="" v:val="VT0(15):26"/>
				<v:ud v:nameU="ShapeClass" v:prompt="" v:val="VT0(5):26"/>
				<v:ud v:nameU="SolSH" v:prompt="" v:val="VT15({BF0433D9-CD73-4EB5-8390-8653BE590246}):41"/>
				<v:ud v:nameU="visLegendShape" v:prompt="" v:val="VT0(2):26"/>
			</v:userDefs>
			<title>PC.69</title>
			<g id="shape70-142" v:mID="70" v:groupContext="shape" transform="translate(0,-3.82595)">
				<title>Sheet.70</title>
				<g id="shadow70-143" v:groupContext="shadow" v:shadowOffsetX="0.345598" v:shadowOffsetY="-1.97279" v:shadowType="1"
						transform="matrix(1,0,0,1,0.345598,1.97279)" class="st1">
					<path d="M38.86 249.03 L38.86 253.87 L41.79 253.87 L44.56 257.34 L57.37 257.34 L57.37 213.4 L38.86 213.4 L38.86
								 219.71 L46.8 219.71 L46.8 249.03 L38.86 249.03 ZM46.8 219.71 L2.86 219.71 L2.86 249.03 L46.8 249.03
								 L46.8 219.71 ZM49.17 263.12 L41.79 253.87 L7.37 253.87 L0 263.12 L49.17 263.12 ZM28.44 249.03 L20.72
								 249.03 L20.72 253.87 L28.44 253.87 L28.44 249.03 Z" class="st2"/>
				</g>
				<path d="M38.86 249.03 L38.86 253.87 L41.79 253.87 L44.56 257.34 L57.37 257.34 L57.37 213.4 L38.86 213.4 L38.86 219.71
							 L46.8 219.71 L46.8 249.03 L38.86 249.03 ZM46.8 219.71 L2.86 219.71 L2.86 249.03 L46.8 249.03 L46.8 219.71
							 ZM49.17 263.12 L41.79 253.87 L7.37 253.87 L0 263.12 L49.17 263.12 ZM28.44 249.03 L20.72 249.03 L20.72
							 253.87 L28.44 253.87 L28.44 249.03 Z" class="st3"/>
			</g>
			<g id="shape71-147" v:mID="71" v:groupContext="shape" transform="translate(5.70943,-20.5562)">
				<title>Sheet.71</title>
				<v:userDefs>
					<v:ud v:nameU="SurroundingRegionColor" v:prompt="" v:val="VT0(1):26"/>
					<v:ud v:nameU="SurroundingRegionColor" v:prompt="" v:val="VT5(#1e4e79)"/>
				</v:userDefs>
				<g id="shadow71-148" v:groupContext="shadow" v:shadowOffsetX="0.345598" v:shadowOffsetY="-1.97279" v:shadowType="1"
						transform="matrix(1,0,0,1,0.345598,1.97279)" class="st1">
					<path d="M38.3 239.34 L0 239.34 L0 263.12 L38.3 263.12 L38.3 239.34 Z" class="st2"/>
				</g>
				<path d="M38.3 239.34 L0 239.34 L0 263.12 L38.3 263.12 L38.3 239.34 Z" class="st4"/>
			</g>
			<g id="shape72-152" v:mID="72" v:groupContext="shape" transform="translate(6.69094,-5.73438)">
				<title>Sheet.72</title>
				<v:userDefs>
					<v:ud v:nameU="SurroundingRegionColor" v:prompt="" v:val="VT0(1):26"/>
					<v:ud v:nameU="SurroundingRegionColor" v:prompt="" v:val="VT5(#1e4e79)"/>
				</v:userDefs>
				<g id="shadow72-153" v:groupContext="shadow" v:shadowOffsetX="0.345598" v:shadowOffsetY="-1.97279" v:shadowType="1"
						transform="matrix(1,0,0,1,0.345598,1.97279)" class="st1">
					<path d="M43.27 220.23 L47.23 220.23 L47.23 218.69 L43.27 218.69 L43.27 220.23 ZM43.27 222.98 L47.23 222.98 L47.23
								 221.44 L43.27 221.44 L43.27 222.98 ZM33.57 259.53 L31.39 259.53 L32.61 260.89 L34.97 260.89 L33.57
								 259.53 ZM31.1 257.12 L29.22 257.12 L30.53 258.58 L32.6 258.58 L31.1 257.12 ZM30.21 259.53 L28.03
								 259.53 L28.99 260.89 L31.34 260.89 L30.21 259.53 ZM28.21 257.12 L26.32 257.12 L27.36 258.58 L29.42
								 258.58 L28.21 257.12 ZM26.85 259.53 L24.67 259.53 L25.36 260.89 L27.72 260.89 L26.85 259.53 ZM25.32
								 257.12 L23.43 257.12 L24.19 258.61 L26.26 258.61 L25.32 257.12 ZM23.49 259.53 L21.3 259.53 L21.74
								 260.89 L24.1 260.89 L23.49 259.53 ZM22.46 257.22 L20.57 257.22 L21.01 258.61 L23.08 258.61 L22.46
								 257.22 ZM20.13 259.53 L17.94 259.53 L18.12 260.89 L20.47 260.89 L20.13 259.53 ZM19.58 257.34 L17.67
								 257.34 L17.84 258.7 L19.92 258.7 L19.58 257.34 ZM16.64 257.34 L14.73 257.34 L14.64 258.7 L16.72
								 258.7 L16.64 257.34 ZM16.77 259.53 L14.58 259.53 L14.49 260.89 L16.85 260.89 L16.77 259.53 ZM13.7
								 257.34 L11.79 257.34 L11.44 258.7 L13.52 258.7 L13.7 257.34 ZM13.41 259.53 L11.22 259.53 L10.87
								 260.89 L13.23 260.89 L13.41 259.53 ZM25.39 261.76 L9.98 261.76 L9.58 263.12 L26.06 263.12 L25.39
								 261.76 ZM10.76 257.34 L8.85 257.34 L8.24 258.7 L10.32 258.7 L10.76 257.34 ZM10.05 259.53 L7.86 259.53
								 L7.25 260.89 L9.6 260.89 L10.05 259.53 ZM7.83 257.34 L5.92 257.34 L5.04 258.7 L7.12 258.7 L7.83
								 257.34 ZM6.69 259.53 L4.5 259.53 L3.62 260.89 L5.98 260.89 L6.69 259.53 ZM4.89 257.34 L2.98 257.34
								 L1.84 258.7 L3.92 258.7 L4.89 257.34 ZM3.32 259.53 L1.14 259.53 L0 260.89 L2.36 260.89 L3.32 259.53
								 Z" class="st5"/>
				</g>
				<path d="M43.27 220.23 L47.23 220.23 L47.23 218.69 L43.27 218.69 L43.27 220.23 ZM43.27 222.98 L47.23 222.98 L47.23
							 221.44 L43.27 221.44 L43.27 222.98 ZM33.57 259.53 L31.39 259.53 L32.61 260.89 L34.97 260.89 L33.57 259.53
							 ZM31.1 257.12 L29.22 257.12 L30.53 258.58 L32.6 258.58 L31.1 257.12 ZM30.21 259.53 L28.03 259.53 L28.99
							 260.89 L31.34 260.89 L30.21 259.53 ZM28.21 257.12 L26.32 257.12 L27.36 258.58 L29.42 258.58 L28.21 257.12
							 ZM26.85 259.53 L24.67 259.53 L25.36 260.89 L27.72 260.89 L26.85 259.53 ZM25.32 257.12 L23.43 257.12
							 L24.19 258.61 L26.26 258.61 L25.32 257.12 ZM23.49 259.53 L21.3 259.53 L21.74 260.89 L24.1 260.89 L23.49
							 259.53 ZM22.46 257.22 L20.57 257.22 L21.01 258.61 L23.08 258.61 L22.46 257.22 ZM20.13 259.53 L17.94
							 259.53 L18.12 260.89 L20.47 260.89 L20.13 259.53 ZM19.58 257.34 L17.67 257.34 L17.84 258.7 L19.92 258.7
							 L19.58 257.34 ZM16.64 257.34 L14.73 257.34 L14.64 258.7 L16.72 258.7 L16.64 257.34 ZM16.77 259.53 L14.58
							 259.53 L14.49 260.89 L16.85 260.89 L16.77 259.53 ZM13.7 257.34 L11.79 257.34 L11.44 258.7 L13.52 258.7
							 L13.7 257.34 ZM13.41 259.53 L11.22 259.53 L10.87 260.89 L13.23 260.89 L13.41 259.53 ZM25.39 261.76 L9.98
							 261.76 L9.58 263.12 L26.06 263.12 L25.39 261.76 ZM10.76 257.34 L8.85 257.34 L8.24 258.7 L10.32 258.7
							 L10.76 257.34 ZM10.05 259.53 L7.86 259.53 L7.25 260.89 L9.6 260.89 L10.05 259.53 ZM7.83 257.34 L5.92
							 257.34 L5.04 258.7 L7.12 258.7 L7.83 257.34 ZM6.69 259.53 L4.5 259.53 L3.62 260.89 L5.98 260.89 L6.69
							 259.53 ZM4.89 257.34 L2.98 257.34 L1.84 258.7 L3.92 258.7 L4.89 257.34 ZM3.32 259.53 L1.14 259.53 L0
							 260.89 L2.36 260.89 L3.32 259.53 Z" class="st6"/>
			</g>
		</g>
		<g id="shape73-160" v:mID="73" v:groupContext="shape" v:layerMember="0" transform="translate(189.256,-100.798)">
			<title>Person.73</title>
			<v:userDefs>
				<v:ud v:nameU="visVersion" v:prompt="" v:val="VT0(15):26"/>
				<v:ud v:nameU="ConnGap" v:prompt="" v:val="VT0(0.00012908222537757):24"/>
			</v:userDefs>
			<g id="shadow73-161" v:groupContext="shadow" v:shadowOffsetX="0.345598" v:shadowOffsetY="-1.97279" v:shadowType="1"
					transform="matrix(1,0,0,1,0.345598,1.97279)" class="st1">
				<path d="M22.24 223.13 L5.29 223.13 C4.07 223.13 2.95 223.53 2.05 224.21 C1.43 224.69 0.92 225.3 0.56 225.99 C0.2
							 226.69 0 227.47 0 228.3 L0 247.95 L4.64 247.95 L4.64 263.12 L22.72 263.12 L22.72 247.95 L27.54 247.95
							 L27.54 228.3 C27.54 227.1 27.12 226.01 26.42 225.13 C25.94 224.52 25.32 224.02 24.61 223.67 C23.89 223.32
							 23.09 223.13 22.24 223.13 ZM21.69 213.4 A7.91951 7.65287 -180 1 0 5.85 213.4 A7.91951 7.65287 -180 1
							 0 21.69 213.4 Z" class="st5"/>
				<path d="M22.24 223.13 L5.29 223.13 C4.07 223.13 2.95 223.53 2.05 224.21 C1.43 224.69 0.92 225.3 0.56 225.99 C0.2
							 226.69 0 227.47 0 228.3 L0 247.95 L4.64 247.95 L4.64 263.12 L22.72 263.12 L22.72 247.95 L27.54 247.95
							 L27.54 228.3 C27.54 227.1 27.12 226.01 26.42 225.13 C25.94 224.52 25.32 224.02 24.61 223.67 C23.89 223.32
							 23.09 223.13 22.24 223.13" class="st7"/>
				<path d="M13.77 263.12 L13.77 250.99" class="st7"/>
				<path d="M4.64 247.95 L4.64 237.48" class="st7"/>
				<path d="M22.72 247.95 L22.72 237.48" class="st7"/>
				<path d="M21.69 213.4 A7.91951 7.65287 -180 1 0 5.85 213.4 A7.91951 7.65287 -180 1 0 21.69 213.4" class="st7"/>
			</g>
			<path d="M22.24 223.13 L5.29 223.13 C4.07 223.13 2.95 223.53 2.05 224.21 C1.43 224.69 0.92 225.3 0.56 225.99 C0.2 226.69
						 0 227.47 0 228.3 L0 247.95 L4.64 247.95 L4.64 263.12 L22.72 263.12 L22.72 247.95 L27.54 247.95 L27.54 228.3
						 C27.54 227.1 27.12 226.01 26.42 225.13 C25.94 224.52 25.32 224.02 24.61 223.67 C23.89 223.32 23.09 223.13
						 22.24 223.13 ZM21.69 213.4 A7.91951 7.65287 -180 1 0 5.85 213.4 A7.91951 7.65287 -180 1 0 21.69 213.4 Z"
					class="st10"/>
			<path d="M22.24 223.13 L5.29 223.13 C4.07 223.13 2.95 223.53 2.05 224.21 C1.43 224.69 0.92 225.3 0.56 225.99 C0.2 226.69
						 0 227.47 0 228.3 L0 247.95 L4.64 247.95 L4.64 263.12 L22.72 263.12 L22.72 247.95 L27.54 247.95 L27.54 228.3
						 C27.54 227.1 27.12 226.01 26.42 225.13 C25.94 224.52 25.32 224.02 24.61 223.67 C23.89 223.32 23.09 223.13
						 22.24 223.13" class="st9"/>
			<path d="M13.77 263.12 L13.77 250.99" class="st9"/>
			<path d="M4.64 247.95 L4.64 237.48" class="st9"/>
			<path d="M22.72 247.95 L22.72 237.48" class="st9"/>
			<path d="M21.69 213.4 A7.91951 7.65287 -180 1 0 5.85 213.4 A7.91951 7.65287 -180 1 0 21.69 213.4" class="st9"/>
		</g>
		<g id="shape146-176" v:mID="146" v:groupContext="shape" transform="translate(3.6544,-5.9728)">
			<title>Sheet.146</title>
			<g id="shadow146-177" v:groupContext="shadow" v:shadowOffsetX="0.345598" v:shadowOffsetY="-1.97279" v:shadowType="1"
					transform="matrix(1,0,0,1,0.345598,1.97279)" class="st1">
				<rect x="0" y="8" width="368.504" height="255.118" class="st7"/>
			</g>
			<rect x="0" y="8" width="368.504" height="255.118" class="st11"/>
		</g>
	</g>
</svg>
