<?xml version="1.0" encoding="UTF-8" standalone="no"?>
<!DOCTYPE svg PUBLIC "-//W3C//DTD SVG 1.1//EN" "http://www.w3.org/Graphics/SVG/1.1/DTD/svg11.dtd">
<!-- Generated by Microsoft Visio, SVG Export pass-distributed.svg Page-1 -->
<svg xmlns="http://www.w3.org/2000/svg" xmlns:xlink="http://www.w3.org/1999/xlink" xmlns:ev="http://www.w3.org/2001/xml-events"
		xmlns:v="http://schemas.microsoft.com/visio/2003/SVGExtensions/" width="5.22922in" height="3.65442in"
		viewBox="0 0 376.504 263.118" xml:space="preserve" color-interpolation-filters="sRGB" class="st16">
	<v:documentProperties v:langID="1033" v:viewMarkup="false"/>

	<style type="text/css">
	<![CDATA[
		.st1 {visibility:visible}
		.st2 {fill:#5b9bd5;fill-opacity:0.22;filter:url(#filter_2);stroke:#5b9bd5;stroke-opacity:0.22}
		.st3 {fill:#1e4e79;stroke:#c7c8c8;stroke-width:0.25}
		.st4 {fill:#1e4e79;stroke:#ffffff;stroke-width:0.25}
		.st5 {fill:#5b9bd5;fill-opacity:0.22;filter:url(#filter_2)}
		.st6 {fill:#ffffff}
		.st7 {fill:none;filter:url(#filter_2);stroke:#5b9bd5;stroke-opacity:0.22}
		.st8 {fill:#fee599}
		.st9 {stroke:#c7c8c8;stroke-width:0.25}
		.st10 {fill:#dbdbdb;stroke:none;stroke-width:0.75}
		.st11 {fill:#5b9bd5}
		.st12 {fill:#feffff;stroke:#c7c8c8;stroke-width:0.25}
		.st13 {fill:#5b9bd5;stroke:#c7c8c8;stroke-width:0.25}
		.st14 {fill:#acccea;stroke:#c7c8c8;stroke-width:0.25}
		.st15 {fill:none;stroke:#7f7f7f;stroke-width:2}
		.st16 {fill:none;fill-rule:evenodd;font-size:12px;overflow:visible;stroke-linecap:square;stroke-miterlimit:3}
	]]>
	</style>

	<defs id="Filters">
		<filter id="filter_2">
			<feGaussianBlur stdDeviation="2"/>
		</filter>
	</defs>
	<g v:mID="0" v:index="1" v:groupContext="foregroundPage">
		<title>Page-1</title>
		<v:pageProperties v:drawingScale="0.0393701" v:pageScale="0.0393701" v:drawingUnits="24" v:shadowOffsetX="8.50394"
				v:shadowOffsetY="-8.50394"/>
		<v:layer v:name="Flowchart" v:index="0"/>
		<g id="group127-1" transform="translate(101.45,-74.0043)" v:mID="127" v:groupContext="group">
			<v:custProps>
				<v:cp v:nameU="AssetNumber" v:lbl="Asset Number" v:prompt="" v:type="0" v:format="" v:sortKey="Asset"
						v:invis="false" v:ask="false" v:langID="1033" v:cal="0"/>
				<v:cp v:nameU="SerialNumber" v:lbl="Serial Number" v:prompt="" v:type="0" v:format="" v:sortKey="Asset"
						v:invis="false" v:ask="false" v:langID="1033" v:cal="0"/>
				<v:cp v:nameU="Location" v:lbl="Location" v:prompt="" v:type="0" v:format="" v:sortKey="Asset" v:invis="false"
						v:ask="false" v:langID="1033" v:cal="0"/>
				<v:cp v:nameU="Building" v:lbl="Building" v:prompt="" v:type="0" v:format="" v:sortKey="Asset" v:invis="false"
						v:ask="false" v:langID="1033" v:cal="0"/>
				<v:cp v:nameU="Room" v:lbl="Room" v:prompt="" v:type="0" v:format="" v:sortKey="Asset" v:invis="false"
						v:ask="false" v:langID="1033" v:cal="0"/>
				<v:cp v:nameU="Manufacturer" v:lbl="Manufacturer" v:prompt="" v:type="0" v:format="" v:sortKey="Equipment"
						v:invis="false" v:ask="false" v:langID="1033" v:cal="0"/>
				<v:cp v:nameU="ProductNumber" v:lbl="Product Number" v:prompt="" v:type="0" v:format="" v:sortKey="Equipment"
						v:invis="false" v:ask="false" v:langID="1033" v:cal="0"/>
				<v:cp v:nameU="PartNumber" v:lbl="Part Number" v:prompt="" v:type="0" v:format="" v:sortKey="Equipment"
						v:invis="false" v:ask="false" v:langID="1033" v:cal="0"/>
				<v:cp v:nameU="ProductDescription" v:lbl="Product Description" v:prompt="" v:type="0" v:format=""
						v:sortKey="Equipment" v:invis="false" v:ask="false" v:langID="1033" v:cal="0"/>
				<v:cp v:nameU="NetworkName" v:lbl="Network Name" v:prompt="" v:type="0" v:format="" v:sortKey="Network"
						v:invis="false" v:ask="false" v:langID="1033" v:cal="0"/>
				<v:cp v:nameU="IPAddress" v:lbl="IP Address" v:prompt="" v:type="0" v:format="" v:sortKey="Network" v:invis="false"
						v:ask="false" v:langID="1033" v:cal="0"/>
				<v:cp v:nameU="SubnetMask" v:lbl="Subnet Mask" v:prompt="" v:type="0" v:format="" v:sortKey="Network"
						v:invis="false" v:ask="false" v:langID="1033" v:cal="0"/>
				<v:cp v:nameU="AdminInterface" v:lbl="Administrative Interface" v:prompt="" v:type="0" v:format=""
						v:sortKey="Network" v:invis="false" v:ask="false" v:langID="1033" v:cal="0"/>
				<v:cp v:nameU="NumberofPorts" v:lbl="Number of Ports" v:prompt="" v:type="0" v:format="" v:sortKey="Network"
						v:invis="false" v:ask="false" v:langID="1033" v:cal="0"/>
				<v:cp v:nameU="CommunityString" v:lbl="Community String" v:prompt="" v:type="0" v:format="" v:sortKey="Network"
						v:invis="false" v:ask="false" v:langID="1033" v:cal="0"/>
				<v:cp v:nameU="NetworkDescription" v:lbl="Network Description" v:prompt="" v:type="0" v:format=""
						v:sortKey="Network" v:invis="false" v:ask="false" v:langID="1033" v:cal="0"/>
				<v:cp v:nameU="MACAddress" v:lbl="MAC Address" v:prompt="" v:type="0" v:format="" v:sortKey="Network"
						v:invis="false" v:ask="false" v:langID="1033" v:cal="0"/>
				<v:cp v:nameU="CPU" v:lbl="CPU" v:prompt="" v:type="0" v:format="" v:sortKey="Workstation" v:invis="false"
						v:ask="false" v:langID="1033" v:cal="0"/>
				<v:cp v:nameU="Memory" v:lbl="Memory" v:prompt="" v:type="0" v:format="" v:sortKey="Workstation" v:invis="false"
						v:ask="false" v:langID="1033" v:cal="0"/>
				<v:cp v:nameU="OperatingSystem" v:lbl="Operating System" v:prompt="" v:type="0" v:format="" v:sortKey="Workstation"
						v:invis="false" v:ask="false" v:langID="1033" v:cal="0"/>
				<v:cp v:nameU="HardDriveSize" v:lbl="Hard Drive Capacity" v:prompt="" v:type="0" v:format=""
						v:sortKey="Workstation" v:invis="false" v:ask="false" v:langID="1033" v:cal="0"/>
				<v:cp v:nameU="Department" v:lbl="Department" v:prompt="" v:type="0" v:format="" v:sortKey="" v:invis="false"
						v:ask="false" v:langID="1033" v:cal="0"/>
				<v:cp v:nameU="ShapeClass" v:lbl="ShapeClass" v:prompt="" v:type="0" v:format="" v:sortKey="" v:invis="true"
						v:ask="false" v:langID="1033" v:cal="0" v:val="VT4(Equipment)"/>
				<v:cp v:nameU="ShapeType" v:lbl="ShapeType" v:prompt="" v:type="0" v:format="" v:sortKey="" v:invis="true"
						v:ask="false" v:langID="1033" v:cal="0" v:val="VT4(Computer)"/>
				<v:cp v:nameU="SubShapeType" v:lbl="SubShapeType" v:prompt="" v:type="0" v:format="" v:sortKey="" v:invis="true"
						v:ask="false" v:langID="1033" v:cal="0" v:val="VT4(Desktop)"/>
				<v:cp v:nameU="BelongsTo" v:lbl="Belongs To" v:prompt="" v:type="0" v:format="" v:sortKey="" v:invis="true"
						v:ask="false" v:langID="1033" v:cal="0"/>
			</v:custProps>
			<v:userDefs>
				<v:ud v:nameU="visVersion" v:prompt="" v:val="VT0(15):26"/>
				<v:ud v:nameU="ShapeClass" v:prompt="" v:val="VT0(5):26"/>
				<v:ud v:nameU="SolSH" v:prompt="" v:val="VT15({BF0433D9-CD73-4EB5-8390-8653BE590246}):41"/>
				<v:ud v:nameU="visLegendShape" v:prompt="" v:val="VT0(2):26"/>
			</v:userDefs>
			<title>PC.78</title>
			<g id="shape128-2" v:mID="128" v:groupContext="shape" transform="translate(0,-5.29331)">
				<title>Sheet.128</title>
				<g id="shadow128-3" v:groupContext="shadow" v:shadowOffsetX="0.345598" v:shadowOffsetY="-1.97279" v:shadowType="1"
						transform="matrix(1,0,0,1,0.345598,1.97279)" class="st1">
					<path d="M53.77 243.63 L53.77 250.33 L57.82 250.33 L61.65 255.12 L79.37 255.12 L79.37 194.33 L53.77 194.33 L53.77
								 203.05 L64.75 203.05 L64.75 243.63 L53.77 243.63 ZM64.75 203.05 L3.96 203.05 L3.96 243.63 L64.75
								 243.63 L64.75 203.05 ZM68.02 263.12 L57.82 250.33 L10.2 250.33 L0 263.12 L68.02 263.12 ZM39.35 243.63
								 L28.67 243.63 L28.67 250.33 L39.35 250.33 L39.35 243.63 Z" class="st2"/>
				</g>
				<path d="M53.77 243.63 L53.77 250.33 L57.82 250.33 L61.65 255.12 L79.37 255.12 L79.37 194.33 L53.77 194.33 L53.77
							 203.05 L64.75 203.05 L64.75 243.63 L53.77 243.63 ZM64.75 203.05 L3.96 203.05 L3.96 243.63 L64.75 243.63
							 L64.75 203.05 ZM68.02 263.12 L57.82 250.33 L10.2 250.33 L0 263.12 L68.02 263.12 ZM39.35 243.63 L28.67
							 243.63 L28.67 250.33 L39.35 250.33 L39.35 243.63 Z" class="st3"/>
			</g>
			<g id="shape129-7" v:mID="129" v:groupContext="shape" transform="translate(7.89916,-28.4401)">
				<title>Sheet.129</title>
				<v:userDefs>
					<v:ud v:nameU="SurroundingRegionColor" v:prompt="" v:val="VT0(1):26"/>
					<v:ud v:nameU="SurroundingRegionColor" v:prompt="" v:val="VT5(#1e4e79)"/>
				</v:userDefs>
				<g id="shadow129-8" v:groupContext="shadow" v:shadowOffsetX="0.345598" v:shadowOffsetY="-1.97279" v:shadowType="1"
						transform="matrix(1,0,0,1,0.345598,1.97279)" class="st1">
					<path d="M52.99 230.23 L0 230.23 L0 263.12 L52.99 263.12 L52.99 230.23 Z" class="st2"/>
				</g>
				<path d="M52.99 230.23 L0 230.23 L0 263.12 L52.99 263.12 L52.99 230.23 Z" class="st4"/>
			</g>
			<g id="shape130-12" v:mID="130" v:groupContext="shape" transform="translate(9.25711,-7.93368)">
				<title>Sheet.130</title>
				<v:userDefs>
					<v:ud v:nameU="SurroundingRegionColor" v:prompt="" v:val="VT0(1):26"/>
					<v:ud v:nameU="SurroundingRegionColor" v:prompt="" v:val="VT5(#1e4e79)"/>
				</v:userDefs>
				<g id="shadow130-13" v:groupContext="shadow" v:shadowOffsetX="0.345598" v:shadowOffsetY="-1.97279" v:shadowType="1"
						transform="matrix(1,0,0,1,0.345598,1.97279)" class="st1">
					<path d="M59.86 203.78 L65.34 203.78 L65.34 201.65 L59.86 201.65 L59.86 203.78 ZM59.86 207.59 L65.34 207.59 L65.34
								 205.45 L59.86 205.45 L59.86 207.59 ZM46.45 258.16 L43.43 258.16 L45.12 260.04 L48.38 260.04 L46.45
								 258.16 ZM43.03 254.82 L40.43 254.82 L42.25 256.84 L45.1 256.84 L43.03 254.82 ZM41.8 258.16 L38.78
								 258.16 L40.1 260.04 L43.36 260.04 L41.8 258.16 ZM39.03 254.82 L36.42 254.82 L37.85 256.84 L40.71
								 256.84 L39.03 254.82 ZM37.15 258.16 L34.12 258.16 L35.09 260.04 L38.35 260.04 L37.15 258.16 ZM35.03
								 254.82 L32.42 254.82 L33.46 256.88 L36.33 256.88 L35.03 254.82 ZM32.5 258.16 L29.48 258.16 L30.08
								 260.04 L33.34 260.04 L32.5 258.16 ZM31.08 254.96 L28.45 254.96 L29.07 256.88 L31.93 256.88 L31.08
								 254.96 ZM27.85 258.16 L24.83 258.16 L25.07 260.04 L28.33 260.04 L27.85 258.16 ZM27.08 255.12 L24.44
								 255.12 L24.68 257 L27.56 257 L27.08 255.12 ZM23.02 255.12 L20.38 255.12 L20.25 257 L23.13 257 L23.02
								 255.12 ZM23.2 258.16 L20.18 258.16 L20.05 260.04 L23.31 260.04 L23.2 258.16 ZM18.96 255.12 L16.31
								 255.12 L15.83 257 L18.7 257 L18.96 255.12 ZM18.55 258.16 L15.53 258.16 L15.04 260.04 L18.3 260.04
								 L18.55 258.16 ZM35.13 261.24 L13.8 261.24 L13.25 263.12 L36.06 263.12 L35.13 261.24 ZM14.89 255.12
								 L12.25 255.12 L11.4 257 L14.28 257 L14.89 255.12 ZM13.9 258.16 L10.88 258.16 L10.03 260.04 L13.29
								 260.04 L13.9 258.16 ZM10.83 255.12 L8.19 255.12 L6.97 257 L9.85 257 L10.83 255.12 ZM9.25 258.16
								 L6.23 258.16 L5.01 260.04 L8.27 260.04 L9.25 258.16 ZM6.76 255.12 L4.12 255.12 L2.54 257 L5.42 257
								 L6.76 255.12 ZM4.6 258.16 L1.58 258.16 L0 260.04 L3.26 260.04 L4.6 258.16 Z" class="st5"/>
				</g>
				<path d="M59.86 203.78 L65.34 203.78 L65.34 201.65 L59.86 201.65 L59.86 203.78 ZM59.86 207.59 L65.34 207.59 L65.34
							 205.45 L59.86 205.45 L59.86 207.59 ZM46.45 258.16 L43.43 258.16 L45.12 260.04 L48.38 260.04 L46.45 258.16
							 ZM43.03 254.82 L40.43 254.82 L42.25 256.84 L45.1 256.84 L43.03 254.82 ZM41.8 258.16 L38.78 258.16 L40.1
							 260.04 L43.36 260.04 L41.8 258.16 ZM39.03 254.82 L36.42 254.82 L37.85 256.84 L40.71 256.84 L39.03 254.82
							 ZM37.15 258.16 L34.12 258.16 L35.09 260.04 L38.35 260.04 L37.15 258.16 ZM35.03 254.82 L32.42 254.82
							 L33.46 256.88 L36.33 256.88 L35.03 254.82 ZM32.5 258.16 L29.48 258.16 L30.08 260.04 L33.34 260.04 L32.5
							 258.16 ZM31.08 254.96 L28.45 254.96 L29.07 256.88 L31.93 256.88 L31.08 254.96 ZM27.85 258.16 L24.83
							 258.16 L25.07 260.04 L28.33 260.04 L27.85 258.16 ZM27.08 255.12 L24.44 255.12 L24.68 257 L27.56 257
							 L27.08 255.12 ZM23.02 255.12 L20.38 255.12 L20.25 257 L23.13 257 L23.02 255.12 ZM23.2 258.16 L20.18
							 258.16 L20.05 260.04 L23.31 260.04 L23.2 258.16 ZM18.96 255.12 L16.31 255.12 L15.83 257 L18.7 257 L18.96
							 255.12 ZM18.55 258.16 L15.53 258.16 L15.04 260.04 L18.3 260.04 L18.55 258.16 ZM35.13 261.24 L13.8 261.24
							 L13.25 263.12 L36.06 263.12 L35.13 261.24 ZM14.89 255.12 L12.25 255.12 L11.4 257 L14.28 257 L14.89 255.12
							 ZM13.9 258.16 L10.88 258.16 L10.03 260.04 L13.29 260.04 L13.9 258.16 ZM10.83 255.12 L8.19 255.12 L6.97
							 257 L9.85 257 L10.83 255.12 ZM9.25 258.16 L6.23 258.16 L5.01 260.04 L8.27 260.04 L9.25 258.16 ZM6.76
							 255.12 L4.12 255.12 L2.54 257 L5.42 257 L6.76 255.12 ZM4.6 258.16 L1.58 258.16 L0 260.04 L3.26 260.04
							 L4.6 258.16 Z" class="st6"/>
			</g>
		</g>
		<g id="shape131-20" v:mID="131" v:groupContext="shape" v:layerMember="0" transform="translate(133.198,-34.3193)">
			<title>Person.82</title>
			<v:userDefs>
				<v:ud v:nameU="visVersion" v:prompt="" v:val="VT0(15):26"/>
				<v:ud v:nameU="ConnGap" v:prompt="" v:val="VT0(0.00012908222537757):24"/>
			</v:userDefs>
			<g id="shadow131-21" v:groupContext="shadow" v:shadowOffsetX="0.345598" v:shadowOffsetY="-1.97279" v:shadowType="1"
					transform="matrix(1,0,0,1,0.345598,1.97279)" class="st1">
				<path d="M30.77 207.79 L7.32 207.79 C5.63 207.79 4.08 208.35 2.84 209.29 C1.98 209.95 1.27 210.79 0.77 211.75 C0.28
							 212.71 0 213.8 0 214.95 L0 242.13 L6.42 242.13 L6.42 263.12 L31.43 263.12 L31.43 242.13 L38.1 242.13
							 L38.1 214.95 C38.1 213.29 37.52 211.77 36.56 210.56 C35.89 209.72 35.03 209.03 34.04 208.54 C33.06 208.06
							 31.95 207.79 30.77 207.79 ZM30.01 194.34 A10.9569 10.588 -180 1 0 8.09 194.34 A10.9569 10.588 -180 1
							 0 30.01 194.34 Z" class="st5"/>
				<path d="M30.77 207.79 L7.32 207.79 C5.63 207.79 4.08 208.35 2.84 209.29 C1.98 209.95 1.27 210.79 0.77 211.75 C0.28
							 212.71 0 213.8 0 214.95 L0 242.13 L6.42 242.13 L6.42 263.12 L31.43 263.12 L31.43 242.13 L38.1 242.13
							 L38.1 214.95 C38.1 213.29 37.52 211.77 36.56 210.56 C35.89 209.72 35.03 209.03 34.04 208.54 C33.06 208.06
							 31.95 207.79 30.77 207.79" class="st7"/>
				<path d="M19.05 263.12 L19.05 246.34" class="st7"/>
				<path d="M6.42 242.13 L6.42 227.65" class="st7"/>
				<path d="M31.43 242.13 L31.43 227.65" class="st7"/>
				<path d="M30.01 194.34 A10.9569 10.588 -180 1 0 8.09 194.34 A10.9569 10.588 -180 1 0 30.01 194.34" class="st7"/>
			</g>
			<path d="M30.77 207.79 L7.32 207.79 C5.63 207.79 4.08 208.35 2.84 209.29 C1.98 209.95 1.27 210.79 0.77 211.75 C0.28 212.71
						 0 213.8 0 214.95 L0 242.13 L6.42 242.13 L6.42 263.12 L31.43 263.12 L31.43 242.13 L38.1 242.13 L38.1 214.95
						 C38.1 213.29 37.52 211.77 36.56 210.56 C35.89 209.72 35.03 209.03 34.04 208.54 C33.06 208.06 31.95 207.79
						 30.77 207.79 ZM30.01 194.34 A10.9569 10.588 -180 1 0 8.09 194.34 A10.9569 10.588 -180 1 0 30.01 194.34 Z"
					class="st8"/>
			<path d="M30.77 207.79 L7.32 207.79 C5.63 207.79 4.08 208.35 2.84 209.29 C1.98 209.95 1.27 210.79 0.77 211.75 C0.28 212.71
						 0 213.8 0 214.95 L0 242.13 L6.42 242.13 L6.42 263.12 L31.43 263.12 L31.43 242.13 L38.1 242.13 L38.1 214.95
						 C38.1 213.29 37.52 211.77 36.56 210.56 C35.89 209.72 35.03 209.03 34.04 208.54 C33.06 208.06 31.95 207.79
						 30.77 207.79" class="st9"/>
			<path d="M19.05 263.12 L19.05 246.34" class="st9"/>
			<path d="M6.42 242.13 L6.42 227.65" class="st9"/>
			<path d="M31.43 242.13 L31.43 227.65" class="st9"/>
			<path d="M30.01 194.34 A10.9569 10.588 -180 1 0 8.09 194.34 A10.9569 10.588 -180 1 0 30.01 194.34" class="st9"/>
		</g>
		<g id="shape134-36" v:mID="134" v:groupContext="shape" transform="translate(178.977,-74.0043)">
			<title>Sheet.134</title>
			<path d="M191.76 263.12 L191.76 76.03 L0 76.03 C0.43 84.54 -0.26 87.47 0.78 93.84 C1.13 95.98 1.67 98.5 3.05 99.69 C4.59
						 101.02 7.18 100.69 9.54 101.46 C12.7 102.49 15.45 105.49 18.83 106.63 C22.99 108.02 28.1 106.58 30.94 107.5
						 C32.35 107.96 33.2 109 33.35 112.86 C33.37 113.18 33.37 113.52 33.39 113.85 C33.87 126.01 42.2 127.71 44.45
						 131.44 C46.61 135.04 43.14 140.53 45.75 144.7 C47.09 146.84 50.05 148.63 51.22 151.27 C52.59 154.35 51.53
						 158.59 53.99 160.35 C55.35 161.33 57.8 161.54 60.04 162.08 C64.64 163.19 68.33 165.67 69.84 169.05 C72.6
						 175.26 67.99 184.53 76.77 191.37 C79.77 193.72 84.35 195.78 86.34 199.15 C87.57 201.22 87.81 203.8 88.18
						 205.64 C89.67 213.16 93.29 208.57 99.59 207.15 C103.62 206.24 108.73 206.62 113.45 206.8 C119.77 207.03
						 125.37 206.88 129.97 207.97 C133.2 208.73 135.94 210.09 137.07 213.08 C139.29 218.91 135.39 230.93 137.1
						 237.46 C138.39 242.39 142.87 244.19 147.59 246.54 C151.43 248.44 155.43 250.7 160.63 250.5 C164.58 250.35
						 169.23 248.78 172.53 249.37 C175.7 249.94 177.62 252.51 179.62 255.04 C182.9 259.2 186.38 263.27 191.76
						 263.12 Z" class="st10"/>
		</g>
		<g id="group135-38" transform="translate(283.204,-171.298)" v:mID="135" v:groupContext="group">
			<v:custProps>
				<v:cp v:nameU="AssetNumber" v:lbl="Asset Number" v:prompt="" v:type="0" v:format="" v:sortKey="Asset"
						v:invis="false" v:ask="false" v:langID="1033" v:cal="0"/>
				<v:cp v:nameU="SerialNumber" v:lbl="Serial Number" v:prompt="" v:type="0" v:format="" v:sortKey="Asset"
						v:invis="false" v:ask="false" v:langID="1033" v:cal="0"/>
				<v:cp v:nameU="Location" v:lbl="Location" v:prompt="" v:type="0" v:format="" v:sortKey="Asset" v:invis="false"
						v:ask="false" v:langID="1033" v:cal="0"/>
				<v:cp v:nameU="Building" v:lbl="Building" v:prompt="" v:type="0" v:format="" v:sortKey="Asset" v:invis="false"
						v:ask="false" v:langID="1033" v:cal="0"/>
				<v:cp v:nameU="Room" v:lbl="Room" v:prompt="" v:type="0" v:format="" v:sortKey="Asset" v:invis="false"
						v:ask="false" v:langID="1033" v:cal="0"/>
				<v:cp v:nameU="Manufacturer" v:lbl="Manufacturer" v:prompt="" v:type="0" v:format="" v:sortKey="Equipment"
						v:invis="false" v:ask="false" v:langID="1033" v:cal="0"/>
				<v:cp v:nameU="ProductNumber" v:lbl="Product Number" v:prompt="" v:type="0" v:format="" v:sortKey="Equipment"
						v:invis="false" v:ask="false" v:langID="1033" v:cal="0"/>
				<v:cp v:nameU="PartNumber" v:lbl="Part Number" v:prompt="" v:type="0" v:format="" v:sortKey="Equipment"
						v:invis="false" v:ask="false" v:langID="1033" v:cal="0"/>
				<v:cp v:nameU="ProductDescription" v:lbl="Product Description" v:prompt="" v:type="0" v:format=""
						v:sortKey="Equipment" v:invis="false" v:ask="false" v:langID="1033" v:cal="0"/>
				<v:cp v:nameU="NetworkName" v:lbl="Network Name" v:prompt="" v:type="0" v:format="" v:sortKey="Network"
						v:invis="false" v:ask="false" v:langID="1033" v:cal="0"/>
				<v:cp v:nameU="IPAddress" v:lbl="IP Address" v:prompt="" v:type="0" v:format="" v:sortKey="Network" v:invis="false"
						v:ask="false" v:langID="1033" v:cal="0"/>
				<v:cp v:nameU="SubnetMask" v:lbl="Subnet Mask" v:prompt="" v:type="0" v:format="" v:sortKey="Network"
						v:invis="false" v:ask="false" v:langID="1033" v:cal="0"/>
				<v:cp v:nameU="AdminInterface" v:lbl="Administrative Interface" v:prompt="" v:type="0" v:format=""
						v:sortKey="Network" v:invis="false" v:ask="false" v:langID="1033" v:cal="0"/>
				<v:cp v:nameU="NumberofPorts" v:lbl="Number of Ports" v:prompt="" v:type="0" v:format="" v:sortKey="Network"
						v:invis="false" v:ask="false" v:langID="1033" v:cal="0"/>
				<v:cp v:nameU="CommunityString" v:lbl="Community String" v:prompt="" v:type="0" v:format="" v:sortKey="Network"
						v:invis="false" v:ask="false" v:langID="1033" v:cal="0"/>
				<v:cp v:nameU="NetworkDescription" v:lbl="Network Description" v:prompt="" v:type="0" v:format=""
						v:sortKey="Network" v:invis="false" v:ask="false" v:langID="1033" v:cal="0"/>
				<v:cp v:nameU="MACAddress" v:lbl="MAC Address" v:prompt="" v:type="0" v:format="" v:sortKey="Network"
						v:invis="false" v:ask="false" v:langID="1033" v:cal="0"/>
				<v:cp v:nameU="CPU" v:lbl="CPU" v:prompt="" v:type="0" v:format="" v:sortKey="Workstation" v:invis="false"
						v:ask="false" v:langID="1033" v:cal="0"/>
				<v:cp v:nameU="Memory" v:lbl="Memory" v:prompt="" v:type="0" v:format="" v:sortKey="Workstation" v:invis="false"
						v:ask="false" v:langID="1033" v:cal="0"/>
				<v:cp v:nameU="OperatingSystem" v:lbl="Operating System" v:prompt="" v:type="0" v:format="" v:sortKey="Workstation"
						v:invis="false" v:ask="false" v:langID="1033" v:cal="0"/>
				<v:cp v:nameU="HardDriveSize" v:lbl="Hard Drive Capacity" v:prompt="" v:type="0" v:format=""
						v:sortKey="Workstation" v:invis="false" v:ask="false" v:langID="1033" v:cal="0"/>
				<v:cp v:nameU="ShapeClass" v:lbl="ShapeClass" v:prompt="" v:type="0" v:format="" v:sortKey="" v:invis="true"
						v:ask="false" v:langID="1033" v:cal="0" v:val="VT4(Equipment)"/>
				<v:cp v:nameU="ShapeType" v:lbl="ShapeType" v:prompt="" v:type="0" v:format="" v:sortKey="" v:invis="true"
						v:ask="false" v:langID="1033" v:cal="0" v:val="VT4(Computer)"/>
				<v:cp v:nameU="SubShapeType" v:lbl="SubShapeType" v:prompt="" v:type="0" v:format="" v:sortKey="" v:invis="true"
						v:ask="false" v:langID="1033" v:cal="0" v:val="VT4(Laptop)"/>
			</v:custProps>
			<v:userDefs>
				<v:ud v:nameU="visVersion" v:prompt="" v:val="VT0(15):26"/>
				<v:ud v:nameU="ShapeClass" v:prompt="" v:val="VT0(5):26"/>
				<v:ud v:nameU="SolSH" v:prompt="" v:val="VT15({BF0433D9-CD73-4EB5-8390-8653BE590246}):41"/>
				<v:ud v:nameU="visLegendShape" v:prompt="" v:val="VT0(2):26"/>
			</v:userDefs>
			<title>Laptop</title>
			<g id="shape136-39" v:mID="136" v:groupContext="shape" transform="translate(0,-6.56146)">
				<title>Sheet.136</title>
				<g id="shadow136-40" v:groupContext="shadow" v:shadowOffsetX="0.345598" v:shadowOffsetY="-1.97279" v:shadowType="1"
						transform="matrix(1,0,0,1,0.345598,1.97279)" class="st1">
					<path d="M0 263.12 L70.87 263.12 L70.87 255.69 L64.8 245.43 L5.71 245.43 L0 255.69 L0 263.12 ZM64.99 243.74 L64.99
								 211.3 C64.99 208.03 62.34 205.37 59.06 205.37 L11.64 205.37 C8.37 205.37 5.71 208.03 5.71 211.3
								 L5.71 243.74 L64.99 243.74 Z" class="st2"/>
				</g>
				<path d="M0 263.12 L70.87 263.12 L70.87 255.69 L64.8 245.43 L5.71 245.43 L0 255.69 L0 263.12 ZM64.99 243.74 L64.99
							 211.3 C64.99 208.03 62.34 205.37 59.06 205.37 L11.64 205.37 C8.37 205.37 5.71 208.03 5.71 211.3 L5.71
							 243.74 L64.99 243.74 Z" class="st3"/>
			</g>
			<g id="shape137-44" v:mID="137" v:groupContext="shape" transform="translate(6.97248,-14.8259)">
				<title>Sheet.137</title>
				<v:userDefs>
					<v:ud v:nameU="SurroundingRegionColor" v:prompt="" v:val="VT0(1):26"/>
					<v:ud v:nameU="SurroundingRegionColor" v:prompt="" v:val="VT5(#1e4e79)"/>
				</v:userDefs>
				<g id="shadow137-45" v:groupContext="shadow" v:shadowOffsetX="0.345598" v:shadowOffsetY="-1.97279" v:shadowType="1"
						transform="matrix(1,0,0,1,0.345598,1.97279)" class="st1">
					<path d="M2.86 258 L0 263.12 L56.8 263.12 L53.93 258 L2.86 258 Z" class="st5"/>
				</g>
				<path d="M2.86 258 L0 263.12 L56.8 263.12 L53.93 258 L2.86 258 Z" class="st6"/>
			</g>
			<g id="shape138-52" v:mID="138" v:groupContext="shape" transform="translate(11.4259,-32.1061)">
				<title>Sheet.138</title>
				<v:userDefs>
					<v:ud v:nameU="SurroundingRegionColor" v:prompt="" v:val="VT0(1):26"/>
					<v:ud v:nameU="SurroundingRegionColor" v:prompt="" v:val="VT5(#1e4e79)"/>
				</v:userDefs>
				<g id="shadow138-53" v:groupContext="shadow" v:shadowOffsetX="0.345598" v:shadowOffsetY="-1.97279" v:shadowType="1"
						transform="matrix(1,0,0,1,0.345598,1.97279)" class="st1">
					<rect x="0" y="236.467" width="48.0152" height="26.6509" class="st2"/>
				</g>
				<rect x="0" y="236.467" width="48.0152" height="26.6509" class="st4"/>
			</g>
		</g>
		<g id="shape139-57" v:mID="139" v:groupContext="shape" v:layerMember="0" transform="translate(320.054,-151.388)">
			<title>Person.83</title>
			<v:userDefs>
				<v:ud v:nameU="visVersion" v:prompt="" v:val="VT0(15):26"/>
				<v:ud v:nameU="ConnGap" v:prompt="" v:val="VT0(0.00012908222537757):24"/>
			</v:userDefs>
			<g id="shadow139-58" v:groupContext="shadow" v:shadowOffsetX="0.345598" v:shadowOffsetY="-1.97279" v:shadowType="1"
					transform="matrix(1,0,0,1,0.345598,1.97279)" class="st1">
				<path d="M27.48 213.72 L6.54 213.72 C5.03 213.72 3.64 214.22 2.54 215.06 C1.77 215.64 1.13 216.4 0.69 217.25 C0.25
							 218.11 0 219.08 0 220.11 L0 244.38 L5.73 244.38 L5.73 263.12 L28.07 263.12 L28.07 244.38 L34.02 244.38
							 L34.02 220.11 C34.02 218.63 33.5 217.27 32.64 216.19 C32.04 215.44 31.27 214.82 30.39 214.39 C29.52
							 213.96 28.53 213.72 27.48 213.72 ZM26.79 201.71 A9.78293 9.45354 -180 1 0 7.22 201.71 A9.78293 9.45354
							 -180 1 0 26.79 201.71 Z" class="st5"/>
				<path d="M27.48 213.72 L6.54 213.72 C5.03 213.72 3.64 214.22 2.54 215.06 C1.77 215.64 1.13 216.4 0.69 217.25 C0.25
							 218.11 0 219.08 0 220.11 L0 244.38 L5.73 244.38 L5.73 263.12 L28.07 263.12 L28.07 244.38 L34.02 244.38
							 L34.02 220.11 C34.02 218.63 33.5 217.27 32.64 216.19 C32.04 215.44 31.27 214.82 30.39 214.39 C29.52
							 213.96 28.53 213.72 27.48 213.72" class="st7"/>
				<path d="M17.01 263.12 L17.01 248.14" class="st7"/>
				<path d="M5.73 244.38 L5.73 231.45" class="st7"/>
				<path d="M28.07 244.38 L28.07 231.45" class="st7"/>
				<path d="M26.79 201.71 A9.78293 9.45354 -180 1 0 7.22 201.71 A9.78293 9.45354 -180 1 0 26.79 201.71" class="st7"/>
			</g>
			<path d="M27.48 213.72 L6.54 213.72 C5.03 213.72 3.64 214.22 2.54 215.06 C1.77 215.64 1.13 216.4 0.69 217.25 C0.25 218.11
						 0 219.08 0 220.11 L0 244.38 L5.73 244.38 L5.73 263.12 L28.07 263.12 L28.07 244.38 L34.02 244.38 L34.02 220.11
						 C34.02 218.63 33.5 217.27 32.64 216.19 C32.04 215.44 31.27 214.82 30.39 214.39 C29.52 213.96 28.53 213.72
						 27.48 213.72 ZM26.79 201.71 A9.78293 9.45354 -180 1 0 7.22 201.71 A9.78293 9.45354 -180 1 0 26.79 201.71
						 Z" class="st11"/>
			<path d="M27.48 213.72 L6.54 213.72 C5.03 213.72 3.64 214.22 2.54 215.06 C1.77 215.64 1.13 216.4 0.69 217.25 C0.25 218.11
						 0 219.08 0 220.11 L0 244.38 L5.73 244.38 L5.73 263.12 L28.07 263.12 L28.07 244.38 L34.02 244.38 L34.02 220.11
						 C34.02 218.63 33.5 217.27 32.64 216.19 C32.04 215.44 31.27 214.82 30.39 214.39 C29.52 213.96 28.53 213.72
						 27.48 213.72" class="st9"/>
			<path d="M17.01 263.12 L17.01 248.14" class="st9"/>
			<path d="M5.73 244.38 L5.73 231.45" class="st9"/>
			<path d="M28.07 244.38 L28.07 231.45" class="st9"/>
			<path d="M26.79 201.71 A9.78293 9.45354 -180 1 0 7.22 201.71 A9.78293 9.45354 -180 1 0 26.79 201.71" class="st9"/>
		</g>
		<g id="group140-73" transform="translate(30.5835,-168.965)" v:mID="140" v:groupContext="group">
			<v:custProps>
				<v:cp v:nameU="AssetNumber" v:lbl="Asset Number" v:prompt="" v:type="0" v:format="" v:sortKey="Asset"
						v:invis="false" v:ask="false" v:langID="1033" v:cal="0"/>
				<v:cp v:nameU="SerialNumber" v:lbl="Serial Number" v:prompt="" v:type="0" v:format="" v:sortKey="Asset"
						v:invis="false" v:ask="false" v:langID="1033" v:cal="0"/>
				<v:cp v:nameU="Location" v:lbl="Location" v:prompt="" v:type="0" v:format="" v:sortKey="Asset" v:invis="false"
						v:ask="false" v:langID="1033" v:cal="0"/>
				<v:cp v:nameU="Building" v:lbl="Building" v:prompt="" v:type="0" v:format="" v:sortKey="Asset" v:invis="false"
						v:ask="false" v:langID="1033" v:cal="0"/>
				<v:cp v:nameU="Room" v:lbl="Room" v:prompt="" v:type="0" v:format="" v:sortKey="Asset" v:invis="false"
						v:ask="false" v:langID="1033" v:cal="0"/>
				<v:cp v:nameU="Manufacturer" v:lbl="Manufacturer" v:prompt="" v:type="0" v:format="" v:sortKey="Equipment"
						v:invis="false" v:ask="false" v:langID="1033" v:cal="0"/>
				<v:cp v:nameU="ProductNumber" v:lbl="Product Number" v:prompt="" v:type="0" v:format="" v:sortKey="Equipment"
						v:invis="false" v:ask="false" v:langID="1033" v:cal="0"/>
				<v:cp v:nameU="PartNumber" v:lbl="Part Number" v:prompt="" v:type="0" v:format="" v:sortKey="Equipment"
						v:invis="false" v:ask="false" v:langID="1033" v:cal="0"/>
				<v:cp v:nameU="ProductDescription" v:lbl="Product Description" v:prompt="" v:type="0" v:format=""
						v:sortKey="Equipment" v:invis="false" v:ask="false" v:langID="1033" v:cal="0"/>
				<v:cp v:nameU="NetworkName" v:lbl="Network Name" v:prompt="" v:type="0" v:format="" v:sortKey="Network"
						v:invis="false" v:ask="false" v:langID="1033" v:cal="0"/>
				<v:cp v:nameU="IPAddress" v:lbl="IP Address" v:prompt="" v:type="0" v:format="" v:sortKey="Network" v:invis="false"
						v:ask="false" v:langID="1033" v:cal="0"/>
				<v:cp v:nameU="SubnetMask" v:lbl="Subnet Mask" v:prompt="" v:type="0" v:format="" v:sortKey="Network"
						v:invis="false" v:ask="false" v:langID="1033" v:cal="0"/>
				<v:cp v:nameU="AdminInterface" v:lbl="Administrative Interface" v:prompt="" v:type="0" v:format=""
						v:sortKey="Network" v:invis="false" v:ask="false" v:langID="1033" v:cal="0"/>
				<v:cp v:nameU="NumberofPorts" v:lbl="Number of Ports" v:prompt="" v:type="0" v:format="" v:sortKey="Network"
						v:invis="false" v:ask="false" v:langID="1033" v:cal="0"/>
				<v:cp v:nameU="CommunityString" v:lbl="Community String" v:prompt="" v:type="0" v:format="" v:sortKey="Network"
						v:invis="false" v:ask="false" v:langID="1033" v:cal="0"/>
				<v:cp v:nameU="NetworkDescription" v:lbl="Network Description" v:prompt="" v:type="0" v:format=""
						v:sortKey="Network" v:invis="false" v:ask="false" v:langID="1033" v:cal="0"/>
				<v:cp v:nameU="MACAddress" v:lbl="MAC Address" v:prompt="" v:type="0" v:format="" v:sortKey="Network"
						v:invis="false" v:ask="false" v:langID="1033" v:cal="0"/>
				<v:cp v:nameU="CPU" v:lbl="CPU" v:prompt="" v:type="0" v:format="" v:sortKey="Workstation" v:invis="false"
						v:ask="false" v:langID="1033" v:cal="0"/>
				<v:cp v:nameU="Memory" v:lbl="Memory" v:prompt="" v:type="0" v:format="" v:sortKey="Workstation" v:invis="false"
						v:ask="false" v:langID="1033" v:cal="0"/>
				<v:cp v:nameU="OperatingSystem" v:lbl="Operating System" v:prompt="" v:type="0" v:format="" v:sortKey="Workstation"
						v:invis="false" v:ask="false" v:langID="1033" v:cal="0"/>
				<v:cp v:nameU="HardDriveSize" v:lbl="Hard Drive Capacity" v:prompt="" v:type="0" v:format=""
						v:sortKey="Workstation" v:invis="false" v:ask="false" v:langID="1033" v:cal="0"/>
				<v:cp v:nameU="Department" v:lbl="Department" v:prompt="" v:type="0" v:format="" v:sortKey="" v:invis="false"
						v:ask="false" v:langID="1033" v:cal="0"/>
				<v:cp v:nameU="ShapeClass" v:lbl="ShapeClass" v:prompt="" v:type="0" v:format="" v:sortKey="" v:invis="true"
						v:ask="false" v:langID="1033" v:cal="0" v:val="VT4(Equipment)"/>
				<v:cp v:nameU="ShapeType" v:lbl="ShapeType" v:prompt="" v:type="0" v:format="" v:sortKey="" v:invis="true"
						v:ask="false" v:langID="1033" v:cal="0" v:val="VT4(Server)"/>
				<v:cp v:nameU="SubShapeType" v:lbl="SubShapeType" v:prompt="" v:type="0" v:format="" v:sortKey="" v:invis="true"
						v:ask="false" v:langID="1033" v:cal="0" v:val="VT4(FTP)"/>
			</v:custProps>
			<v:userDefs>
				<v:ud v:nameU="visVersion" v:prompt="" v:val="VT0(15):26"/>
				<v:ud v:nameU="ShapeClass" v:prompt="" v:val="VT0(5):26"/>
				<v:ud v:nameU="SolSH" v:prompt="" v:val="VT15({BF0433D9-CD73-4EB5-8390-8653BE590246}):41"/>
				<v:ud v:nameU="visLegendShape" v:prompt="" v:val="VT0(2):26"/>
			</v:userDefs>
			<title>FTP server</title>
			<g id="shape141-74" v:mID="141" v:groupContext="shape" transform="translate(23.0197,-19.3775)">
				<title>Sheet.141</title>
				<g id="shadow141-75" v:groupContext="shadow" v:shadowOffsetX="0.345598" v:shadowOffsetY="-1.97279" v:shadowType="1"
						transform="matrix(1,0,0,1,0.345598,1.97279)" class="st1">
					<path d="M0 263.12 L28.27 263.12" class="st7"/>
				</g>
				<path d="M0 263.12 L28.27 263.12" class="st9"/>
			</g>
			<g id="shape142-82" v:mID="142" v:groupContext="shape" transform="translate(51.2927,-4.42269)">
				<title>Sheet.142</title>
				<g id="shadow142-83" v:groupContext="shadow" v:shadowOffsetX="0.345598" v:shadowOffsetY="-1.97279" v:shadowType="1"
						transform="matrix(1,0,0,1,0.345598,1.97279)" class="st1">
					<rect x="0" y="232.457" width="19.5734" height="30.6607" class="st2"/>
				</g>
				<rect x="0" y="232.457" width="19.5734" height="30.6607" class="st12"/>
			</g>
			<g id="shape143-87" v:mID="143" v:groupContext="shape" transform="translate(-3.51719E-13,-9.4486)">
				<title>Sheet.143</title>
				<g id="shadow143-88" v:groupContext="shadow" v:shadowOffsetX="0.345598" v:shadowOffsetY="-1.97279" v:shadowType="1"
						transform="matrix(1,0,0,1,0.345598,1.97279)" class="st1">
					<path d="M58.33 263.12 L67.87 263.12 L67.87 262.35 L58.33 262.35 L58.33 263.12 ZM58.33 260.79 L67.87 260.79 L67.87
								 260.03 L58.33 260.03 L58.33 260.79 ZM58.33 258.47 L67.87 258.47 L67.87 257.7 L58.33 257.7 L58.33
								 258.47 ZM67.67 253.87 A1.18337 1.18337 -180 1 0 65.31 253.87 A1.18337 1.18337 -180 1 0 67.67 253.87
								 ZM42.98 209.75 L41.56 209.75 L41.56 208.25 C41.56 207.07 40.61 206.12 39.44 206.12 L29.54 206.12
								 C28.36 206.12 27.41 207.07 27.41 208.25 L27.41 209.75 L2.12 209.75 C0.95 209.75 0 210.7 0 211.87
								 L0 244.52 C0 245.7 0.95 246.65 2.12 246.65 L42.98 246.65 C44.15 246.65 45.1 245.7 45.1 244.52 L45.1
								 211.87 C45.1 210.7 44.15 209.75 42.98 209.75 Z" class="st2"/>
				</g>
				<path d="M58.33 263.12 L67.87 263.12 L67.87 262.35 L58.33 262.35 L58.33 263.12 ZM58.33 260.79 L67.87 260.79 L67.87
							 260.03 L58.33 260.03 L58.33 260.79 ZM58.33 258.47 L67.87 258.47 L67.87 257.7 L58.33 257.7 L58.33 258.47
							 ZM67.67 253.87 A1.18337 1.18337 -180 1 0 65.31 253.87 A1.18337 1.18337 -180 1 0 67.67 253.87 ZM42.98
							 209.75 L41.56 209.75 L41.56 208.25 C41.56 207.07 40.61 206.12 39.44 206.12 L29.54 206.12 C28.36 206.12
							 27.41 207.07 27.41 208.25 L27.41 209.75 L2.12 209.75 C0.95 209.75 0 210.7 0 211.87 L0 244.52 C0 245.7
							 0.95 246.65 2.12 246.65 L42.98 246.65 C44.15 246.65 45.1 245.7 45.1 244.52 L45.1 211.87 C45.1 210.7
							 44.15 209.75 42.98 209.75 Z" class="st13"/>
			</g>
			<g id="shape144-92" v:mID="144" v:groupContext="shape" transform="translate(12.2434,-32.4826)">
				<title>Sheet.144</title>
				<g id="shadow144-93" v:groupContext="shadow" v:shadowOffsetX="0.345598" v:shadowOffsetY="-1.97279" v:shadowType="1"
						transform="matrix(1,0,0,1,0.345598,1.97279)" class="st1">
					<path d="M21.08 258.42 L21.08 254.15 L17.51 257.77 L17.51 243.44 L14.45 243.44 L14.45 257.81 L10.84 254.17 L10.84
								 258.4 L15.96 263.12 L21.08 258.42 ZM10.24 247.2 L10.24 242.97 L5.12 238.25 L0 242.95 L0 247.22 L3.58
								 243.6 L3.58 257.93 L6.64 257.93 L6.64 243.56 L10.24 247.2 Z" class="st2"/>
				</g>
				<path d="M21.08 258.42 L21.08 254.15 L17.51 257.77 L17.51 243.44 L14.45 243.44 L14.45 257.81 L10.84 254.17 L10.84
							 258.4 L15.96 263.12 L21.08 258.42 ZM10.24 247.2 L10.24 242.97 L5.12 238.25 L0 242.95 L0 247.22 L3.58
							 243.6 L3.58 257.93 L6.64 257.93 L6.64 243.56 L10.24 247.2 Z" class="st14"/>
			</g>
		</g>
		<g id="shape147-97" v:mID="147" v:groupContext="shape" transform="translate(3.65441,-5.97281)">
			<title>Sheet.147</title>
			<g id="shadow147-98" v:groupContext="shadow" v:shadowOffsetX="0.345598" v:shadowOffsetY="-1.97279" v:shadowType="1"
					transform="matrix(1,0,0,1,0.345598,1.97279)" class="st1">
				<rect x="0" y="8.00002" width="368.504" height="255.118" class="st7"/>
			</g>
			<rect x="0" y="8.00002" width="368.504" height="255.118" class="st15"/>
		</g>
	</g>
</svg>
