<?xml version="1.0" encoding="UTF-8" standalone="no"?>
<!DOCTYPE svg PUBLIC "-//W3C//DTD SVG 1.1//EN" "http://www.w3.org/Graphics/SVG/1.1/DTD/svg11.dtd">
<!-- Generated by Microsoft Visio, SVG Export pass-queue.svg Page-1 -->
<svg xmlns="http://www.w3.org/2000/svg" xmlns:xlink="http://www.w3.org/1999/xlink" xmlns:ev="http://www.w3.org/2001/xml-events"
		xmlns:v="http://schemas.microsoft.com/visio/2003/SVGExtensions/" width="5.22922in" height="3.65442in"
		viewBox="0 0 376.504 263.118" xml:space="preserve" color-interpolation-filters="sRGB" class="st11">
	<v:documentProperties v:langID="1033" v:viewMarkup="false"/>

	<style type="text/css">
	<![CDATA[
		.st1 {visibility:visible}
		.st2 {fill:#5b9bd5;fill-opacity:0.22;filter:url(#filter_2);stroke:#5b9bd5;stroke-opacity:0.22}
		.st3 {fill:#1e4e79;stroke:#c7c8c8;stroke-width:0.25}
		.st4 {fill:#1e4e79;stroke:#ffffff;stroke-width:0.25}
		.st5 {fill:#5b9bd5;fill-opacity:0.22;filter:url(#filter_2)}
		.st6 {fill:#ffffff}
		.st7 {fill:none;filter:url(#filter_2);stroke:#5b9bd5;stroke-opacity:0.22}
		.st8 {fill:#5b9bd5}
		.st9 {stroke:#c7c8c8;stroke-width:0.25}
		.st10 {fill:none;stroke:#7f7f7f;stroke-width:2}
		.st11 {fill:none;fill-rule:evenodd;font-size:12px;overflow:visible;stroke-linecap:square;stroke-miterlimit:3}
	]]>
	</style>

	<defs id="Filters">
		<filter id="filter_2">
			<feGaussianBlur stdDeviation="2"/>
		</filter>
	</defs>
	<g v:mID="0" v:index="1" v:groupContext="foregroundPage">
		<title>Page-1</title>
		<v:pageProperties v:drawingScale="0.0393701" v:pageScale="0.0393701" v:drawingUnits="24" v:shadowOffsetX="8.50394"
				v:shadowOffsetY="-8.50394"/>
		<v:layer v:name="Flowchart" v:index="0"/>
		<g id="group89-1" transform="translate(230.426,-112.272)" v:mID="89" v:groupContext="group">
			<v:custProps>
				<v:cp v:nameU="AssetNumber" v:lbl="Asset Number" v:prompt="" v:type="0" v:format="" v:sortKey="Asset"
						v:invis="false" v:ask="false" v:langID="1033" v:cal="0"/>
				<v:cp v:nameU="SerialNumber" v:lbl="Serial Number" v:prompt="" v:type="0" v:format="" v:sortKey="Asset"
						v:invis="false" v:ask="false" v:langID="1033" v:cal="0"/>
				<v:cp v:nameU="Location" v:lbl="Location" v:prompt="" v:type="0" v:format="" v:sortKey="Asset" v:invis="false"
						v:ask="false" v:langID="1033" v:cal="0"/>
				<v:cp v:nameU="Building" v:lbl="Building" v:prompt="" v:type="0" v:format="" v:sortKey="Asset" v:invis="false"
						v:ask="false" v:langID="1033" v:cal="0"/>
				<v:cp v:nameU="Room" v:lbl="Room" v:prompt="" v:type="0" v:format="" v:sortKey="Asset" v:invis="false"
						v:ask="false" v:langID="1033" v:cal="0"/>
				<v:cp v:nameU="Manufacturer" v:lbl="Manufacturer" v:prompt="" v:type="0" v:format="" v:sortKey="Equipment"
						v:invis="false" v:ask="false" v:langID="1033" v:cal="0"/>
				<v:cp v:nameU="ProductNumber" v:lbl="Product Number" v:prompt="" v:type="0" v:format="" v:sortKey="Equipment"
						v:invis="false" v:ask="false" v:langID="1033" v:cal="0"/>
				<v:cp v:nameU="PartNumber" v:lbl="Part Number" v:prompt="" v:type="0" v:format="" v:sortKey="Equipment"
						v:invis="false" v:ask="false" v:langID="1033" v:cal="0"/>
				<v:cp v:nameU="ProductDescription" v:lbl="Product Description" v:prompt="" v:type="0" v:format=""
						v:sortKey="Equipment" v:invis="false" v:ask="false" v:langID="1033" v:cal="0"/>
				<v:cp v:nameU="NetworkName" v:lbl="Network Name" v:prompt="" v:type="0" v:format="" v:sortKey="Network"
						v:invis="false" v:ask="false" v:langID="1033" v:cal="0"/>
				<v:cp v:nameU="IPAddress" v:lbl="IP Address" v:prompt="" v:type="0" v:format="" v:sortKey="Network" v:invis="false"
						v:ask="false" v:langID="1033" v:cal="0"/>
				<v:cp v:nameU="SubnetMask" v:lbl="Subnet Mask" v:prompt="" v:type="0" v:format="" v:sortKey="Network"
						v:invis="false" v:ask="false" v:langID="1033" v:cal="0"/>
				<v:cp v:nameU="AdminInterface" v:lbl="Administrative Interface" v:prompt="" v:type="0" v:format=""
						v:sortKey="Network" v:invis="false" v:ask="false" v:langID="1033" v:cal="0"/>
				<v:cp v:nameU="NumberofPorts" v:lbl="Number of Ports" v:prompt="" v:type="0" v:format="" v:sortKey="Network"
						v:invis="false" v:ask="false" v:langID="1033" v:cal="0"/>
				<v:cp v:nameU="CommunityString" v:lbl="Community String" v:prompt="" v:type="0" v:format="" v:sortKey="Network"
						v:invis="false" v:ask="false" v:langID="1033" v:cal="0"/>
				<v:cp v:nameU="NetworkDescription" v:lbl="Network Description" v:prompt="" v:type="0" v:format=""
						v:sortKey="Network" v:invis="false" v:ask="false" v:langID="1033" v:cal="0"/>
				<v:cp v:nameU="MACAddress" v:lbl="MAC Address" v:prompt="" v:type="0" v:format="" v:sortKey="Network"
						v:invis="false" v:ask="false" v:langID="1033" v:cal="0"/>
				<v:cp v:nameU="CPU" v:lbl="CPU" v:prompt="" v:type="0" v:format="" v:sortKey="Workstation" v:invis="false"
						v:ask="false" v:langID="1033" v:cal="0"/>
				<v:cp v:nameU="Memory" v:lbl="Memory" v:prompt="" v:type="0" v:format="" v:sortKey="Workstation" v:invis="false"
						v:ask="false" v:langID="1033" v:cal="0"/>
				<v:cp v:nameU="OperatingSystem" v:lbl="Operating System" v:prompt="" v:type="0" v:format="" v:sortKey="Workstation"
						v:invis="false" v:ask="false" v:langID="1033" v:cal="0"/>
				<v:cp v:nameU="HardDriveSize" v:lbl="Hard Drive Capacity" v:prompt="" v:type="0" v:format=""
						v:sortKey="Workstation" v:invis="false" v:ask="false" v:langID="1033" v:cal="0"/>
				<v:cp v:nameU="Department" v:lbl="Department" v:prompt="" v:type="0" v:format="" v:sortKey="" v:invis="false"
						v:ask="false" v:langID="1033" v:cal="0"/>
				<v:cp v:nameU="ShapeClass" v:lbl="ShapeClass" v:prompt="" v:type="0" v:format="" v:sortKey="" v:invis="true"
						v:ask="false" v:langID="1033" v:cal="0" v:val="VT4(Equipment)"/>
				<v:cp v:nameU="ShapeType" v:lbl="ShapeType" v:prompt="" v:type="0" v:format="" v:sortKey="" v:invis="true"
						v:ask="false" v:langID="1033" v:cal="0" v:val="VT4(Computer)"/>
				<v:cp v:nameU="SubShapeType" v:lbl="SubShapeType" v:prompt="" v:type="0" v:format="" v:sortKey="" v:invis="true"
						v:ask="false" v:langID="1033" v:cal="0" v:val="VT4(Desktop)"/>
				<v:cp v:nameU="BelongsTo" v:lbl="Belongs To" v:prompt="" v:type="0" v:format="" v:sortKey="" v:invis="true"
						v:ask="false" v:langID="1033" v:cal="0"/>
			</v:custProps>
			<v:userDefs>
				<v:ud v:nameU="visVersion" v:prompt="" v:val="VT0(15):26"/>
				<v:ud v:nameU="ShapeClass" v:prompt="" v:val="VT0(5):26"/>
				<v:ud v:nameU="SolSH" v:prompt="" v:val="VT15({BF0433D9-CD73-4EB5-8390-8653BE590246}):41"/>
				<v:ud v:nameU="visLegendShape" v:prompt="" v:val="VT0(2):26"/>
			</v:userDefs>
			<title>PC</title>
			<g id="shape90-2" v:mID="90" v:groupContext="shape" transform="translate(0,-4.72617)">
				<title>Sheet.90</title>
				<g id="shadow90-3" v:groupContext="shadow" v:shadowOffsetX="0.345598" v:shadowOffsetY="-1.97279" v:shadowType="1"
						transform="matrix(1,0,0,1,0.345598,1.97279)" class="st1">
					<path d="M48.01 245.71 L48.01 251.7 L51.62 251.7 L55.04 255.98 L70.87 255.98 L70.87 201.7 L48.01 201.7 L48.01
								 209.49 L57.81 209.49 L57.81 245.71 L48.01 245.71 ZM57.81 209.49 L3.53 209.49 L3.53 245.71 L57.81
								 245.71 L57.81 209.49 ZM60.73 263.12 L51.62 251.7 L9.11 251.7 L0 263.12 L60.73 263.12 ZM35.14 245.71
								 L25.59 245.71 L25.59 251.7 L35.14 251.7 L35.14 245.71 Z" class="st2"/>
				</g>
				<path d="M48.01 245.71 L48.01 251.7 L51.62 251.7 L55.04 255.98 L70.87 255.98 L70.87 201.7 L48.01 201.7 L48.01 209.49
							 L57.81 209.49 L57.81 245.71 L48.01 245.71 ZM57.81 209.49 L3.53 209.49 L3.53 245.71 L57.81 245.71 L57.81
							 209.49 ZM60.73 263.12 L51.62 251.7 L9.11 251.7 L0 263.12 L60.73 263.12 ZM35.14 245.71 L25.59 245.71
							 L25.59 251.7 L35.14 251.7 L35.14 245.71 Z" class="st3"/>
			</g>
			<g id="shape91-7" v:mID="91" v:groupContext="shape" transform="translate(7.05282,-25.393)">
				<title>Sheet.91</title>
				<v:userDefs>
					<v:ud v:nameU="SurroundingRegionColor" v:prompt="" v:val="VT0(1):26"/>
					<v:ud v:nameU="SurroundingRegionColor" v:prompt="" v:val="VT5(#1e4e79)"/>
				</v:userDefs>
				<g id="shadow91-8" v:groupContext="shadow" v:shadowOffsetX="0.345598" v:shadowOffsetY="-1.97279" v:shadowType="1"
						transform="matrix(1,0,0,1,0.345598,1.97279)" class="st1">
					<path d="M47.32 233.75 L0 233.75 L0 263.12 L47.32 263.12 L47.32 233.75 Z" class="st2"/>
				</g>
				<path d="M47.32 233.75 L0 233.75 L0 263.12 L47.32 263.12 L47.32 233.75 Z" class="st4"/>
			</g>
			<g id="shape92-12" v:mID="92" v:groupContext="shape" transform="translate(8.26528,-7.08364)">
				<title>Sheet.92</title>
				<v:userDefs>
					<v:ud v:nameU="SurroundingRegionColor" v:prompt="" v:val="VT0(1):26"/>
					<v:ud v:nameU="SurroundingRegionColor" v:prompt="" v:val="VT5(#1e4e79)"/>
				</v:userDefs>
				<g id="shadow92-13" v:groupContext="shadow" v:shadowOffsetX="0.345598" v:shadowOffsetY="-1.97279" v:shadowType="1"
						transform="matrix(1,0,0,1,0.345598,1.97279)" class="st1">
					<path d="M53.45 210.14 L58.34 210.14 L58.34 208.23 L53.45 208.23 L53.45 210.14 ZM53.45 213.54 L58.34 213.54 L58.34
								 211.63 L53.45 211.63 L53.45 213.54 ZM41.47 258.69 L38.77 258.69 L40.28 260.37 L43.19 260.37 L41.47
								 258.69 ZM38.42 255.71 L36.1 255.71 L37.72 257.51 L40.27 257.51 L38.42 255.71 ZM37.32 258.69 L34.62
								 258.69 L35.81 260.37 L38.72 260.37 L37.32 258.69 ZM34.84 255.71 L32.52 255.71 L33.79 257.51 L36.35
								 257.51 L34.84 255.71 ZM33.17 258.69 L30.47 258.69 L31.33 260.37 L34.24 260.37 L33.17 258.69 ZM31.27
								 255.71 L28.95 255.71 L29.88 257.55 L32.44 257.55 L31.27 255.71 ZM29.02 258.69 L26.32 258.69 L26.86
								 260.37 L29.77 260.37 L29.02 258.69 ZM27.75 255.84 L25.4 255.84 L25.95 257.55 L28.51 257.55 L27.75
								 255.84 ZM24.87 258.69 L22.17 258.69 L22.38 260.37 L25.29 260.37 L24.87 258.69 ZM24.18 255.98 L21.82
								 255.98 L22.04 257.66 L24.61 257.66 L24.18 255.98 ZM20.55 255.98 L18.19 255.98 L18.08 257.66 L20.65
								 257.66 L20.55 255.98 ZM20.71 258.69 L18.01 258.69 L17.9 260.37 L20.81 260.37 L20.71 258.69 ZM16.93
								 255.98 L14.57 255.98 L14.13 257.66 L16.7 257.66 L16.93 255.98 ZM16.56 258.69 L13.86 258.69 L13.43
								 260.37 L16.34 260.37 L16.56 258.69 ZM31.37 261.44 L12.32 261.44 L11.83 263.12 L32.19 263.12 L31.37
								 261.44 ZM13.3 255.98 L10.94 255.98 L10.18 257.66 L12.75 257.66 L13.3 255.98 ZM12.41 258.69 L9.71
								 258.69 L8.95 260.37 L11.86 260.37 L12.41 258.69 ZM9.67 255.98 L7.31 255.98 L6.22 257.66 L8.79 257.66
								 L9.67 255.98 ZM8.26 258.69 L5.56 258.69 L4.48 260.37 L7.39 260.37 L8.26 258.69 ZM6.04 255.98 L3.68
								 255.98 L2.27 257.66 L4.84 257.66 L6.04 255.98 ZM4.11 258.69 L1.41 258.69 L0 260.37 L2.91 260.37
								 L4.11 258.69 Z" class="st5"/>
				</g>
				<path d="M53.45 210.14 L58.34 210.14 L58.34 208.23 L53.45 208.23 L53.45 210.14 ZM53.45 213.54 L58.34 213.54 L58.34
							 211.63 L53.45 211.63 L53.45 213.54 ZM41.47 258.69 L38.77 258.69 L40.28 260.37 L43.19 260.37 L41.47 258.69
							 ZM38.42 255.71 L36.1 255.71 L37.72 257.51 L40.27 257.51 L38.42 255.71 ZM37.32 258.69 L34.62 258.69 L35.81
							 260.37 L38.72 260.37 L37.32 258.69 ZM34.84 255.71 L32.52 255.71 L33.79 257.51 L36.35 257.51 L34.84 255.71
							 ZM33.17 258.69 L30.47 258.69 L31.33 260.37 L34.24 260.37 L33.17 258.69 ZM31.27 255.71 L28.95 255.71
							 L29.88 257.55 L32.44 257.55 L31.27 255.71 ZM29.02 258.69 L26.32 258.69 L26.86 260.37 L29.77 260.37 L29.02
							 258.69 ZM27.75 255.84 L25.4 255.84 L25.95 257.55 L28.51 257.55 L27.75 255.84 ZM24.87 258.69 L22.17 258.69
							 L22.38 260.37 L25.29 260.37 L24.87 258.69 ZM24.18 255.98 L21.82 255.98 L22.04 257.66 L24.61 257.66 L24.18
							 255.98 ZM20.55 255.98 L18.19 255.98 L18.08 257.66 L20.65 257.66 L20.55 255.98 ZM20.71 258.69 L18.01
							 258.69 L17.9 260.37 L20.81 260.37 L20.71 258.69 ZM16.93 255.98 L14.57 255.98 L14.13 257.66 L16.7 257.66
							 L16.93 255.98 ZM16.56 258.69 L13.86 258.69 L13.43 260.37 L16.34 260.37 L16.56 258.69 ZM31.37 261.44
							 L12.32 261.44 L11.83 263.12 L32.19 263.12 L31.37 261.44 ZM13.3 255.98 L10.94 255.98 L10.18 257.66 L12.75
							 257.66 L13.3 255.98 ZM12.41 258.69 L9.71 258.69 L8.95 260.37 L11.86 260.37 L12.41 258.69 ZM9.67 255.98
							 L7.31 255.98 L6.22 257.66 L8.79 257.66 L9.67 255.98 ZM8.26 258.69 L5.56 258.69 L4.48 260.37 L7.39 260.37
							 L8.26 258.69 ZM6.04 255.98 L3.68 255.98 L2.27 257.66 L4.84 257.66 L6.04 255.98 ZM4.11 258.69 L1.41 258.69
							 L0 260.37 L2.91 260.37 L4.11 258.69 Z" class="st6"/>
			</g>
		</g>
		<g id="shape93-20" v:mID="93" v:groupContext="shape" v:layerMember="0" transform="translate(258.773,-76.8389)">
			<title>Person</title>
			<v:userDefs>
				<v:ud v:nameU="visVersion" v:prompt="" v:val="VT0(15):26"/>
				<v:ud v:nameU="ConnGap" v:prompt="" v:val="VT0(0.00012908222537757):24"/>
			</v:userDefs>
			<g id="shadow93-21" v:groupContext="shadow" v:shadowOffsetX="0.345598" v:shadowOffsetY="-1.97279" v:shadowType="1"
					transform="matrix(1,0,0,1,0.345598,1.97279)" class="st1">
				<path d="M27.48 213.72 L6.54 213.72 C5.03 213.72 3.64 214.22 2.54 215.06 C1.77 215.64 1.13 216.4 0.69 217.25 C0.25
							 218.11 0 219.08 0 220.11 L0 244.38 L5.73 244.38 L5.73 263.12 L28.07 263.12 L28.07 244.38 L34.02 244.38
							 L34.02 220.11 C34.02 218.63 33.5 217.27 32.64 216.19 C32.04 215.44 31.27 214.82 30.39 214.39 C29.52
							 213.96 28.53 213.72 27.48 213.72 ZM26.79 201.71 A9.78293 9.45354 -180 1 0 7.22 201.71 A9.78293 9.45354
							 -180 1 0 26.79 201.71 Z" class="st5"/>
				<path d="M27.48 213.72 L6.54 213.72 C5.03 213.72 3.64 214.22 2.54 215.06 C1.77 215.64 1.13 216.4 0.69 217.25 C0.25
							 218.11 0 219.08 0 220.11 L0 244.38 L5.73 244.38 L5.73 263.12 L28.07 263.12 L28.07 244.38 L34.02 244.38
							 L34.02 220.11 C34.02 218.63 33.5 217.27 32.64 216.19 C32.04 215.44 31.27 214.82 30.39 214.39 C29.52
							 213.96 28.53 213.72 27.48 213.72" class="st7"/>
				<path d="M17.01 263.12 L17.01 248.14" class="st7"/>
				<path d="M5.73 244.38 L5.73 231.45" class="st7"/>
				<path d="M28.07 244.38 L28.07 231.45" class="st7"/>
				<path d="M26.79 201.71 A9.78293 9.45354 -180 1 0 7.22 201.71 A9.78293 9.45354 -180 1 0 26.79 201.71" class="st7"/>
			</g>
			<path d="M27.48 213.72 L6.54 213.72 C5.03 213.72 3.64 214.22 2.54 215.06 C1.77 215.64 1.13 216.4 0.69 217.25 C0.25 218.11
						 0 219.08 0 220.11 L0 244.38 L5.73 244.38 L5.73 263.12 L28.07 263.12 L28.07 244.38 L34.02 244.38 L34.02 220.11
						 C34.02 218.63 33.5 217.27 32.64 216.19 C32.04 215.44 31.27 214.82 30.39 214.39 C29.52 213.96 28.53 213.72
						 27.48 213.72 ZM26.79 201.71 A9.78293 9.45354 -180 1 0 7.22 201.71 A9.78293 9.45354 -180 1 0 26.79 201.71
						 Z" class="st8"/>
			<path d="M27.48 213.72 L6.54 213.72 C5.03 213.72 3.64 214.22 2.54 215.06 C1.77 215.64 1.13 216.4 0.69 217.25 C0.25 218.11
						 0 219.08 0 220.11 L0 244.38 L5.73 244.38 L5.73 263.12 L28.07 263.12 L28.07 244.38 L34.02 244.38 L34.02 220.11
						 C34.02 218.63 33.5 217.27 32.64 216.19 C32.04 215.44 31.27 214.82 30.39 214.39 C29.52 213.96 28.53 213.72
						 27.48 213.72" class="st9"/>
			<path d="M17.01 263.12 L17.01 248.14" class="st9"/>
			<path d="M5.73 244.38 L5.73 231.45" class="st9"/>
			<path d="M28.07 244.38 L28.07 231.45" class="st9"/>
			<path d="M26.79 201.71 A9.78293 9.45354 -180 1 0 7.22 201.71 A9.78293 9.45354 -180 1 0 26.79 201.71" class="st9"/>
		</g>
		<g id="shape94-36" v:mID="94" v:groupContext="shape" v:layerMember="0" transform="translate(139.202,-83.9256)">
			<title>Person.20</title>
			<v:userDefs>
				<v:ud v:nameU="visVersion" v:prompt="" v:val="VT0(15):26"/>
				<v:ud v:nameU="ConnGap" v:prompt="" v:val="VT0(0.00012908222537757):24"/>
			</v:userDefs>
			<g id="shadow94-37" v:groupContext="shadow" v:shadowOffsetX="0.345598" v:shadowOffsetY="-1.97279" v:shadowType="1"
					transform="matrix(1,0,0,1,0.345598,1.97279)" class="st1">
				<path d="M22.17 223.26 L5.28 223.26 C4.06 223.26 2.94 223.66 2.05 224.34 C1.42 224.82 0.91 225.42 0.56 226.11 C0.2
							 226.81 0 227.59 0 228.42 L0 248 L4.62 248 L4.62 263.12 L22.64 263.12 L22.64 248 L27.44 248 L27.44 228.42
							 C27.44 227.22 27.03 226.13 26.33 225.26 C25.85 224.65 25.23 224.15 24.52 223.8 C23.81 223.46 23.02 223.26
							 22.17 223.26 ZM21.62 213.57 A7.89305 7.62729 -180 1 0 5.83 213.57 A7.89305 7.62729 -180 1 0 21.62 213.57
							 Z" class="st5"/>
				<path d="M22.17 223.26 L5.28 223.26 C4.06 223.26 2.94 223.66 2.05 224.34 C1.42 224.82 0.91 225.42 0.56 226.11 C0.2
							 226.81 0 227.59 0 228.42 L0 248 L4.62 248 L4.62 263.12 L22.64 263.12 L22.64 248 L27.44 248 L27.44 228.42
							 C27.44 227.22 27.03 226.13 26.33 225.26 C25.85 224.65 25.23 224.15 24.52 223.8 C23.81 223.46 23.02 223.26
							 22.17 223.26" class="st7"/>
				<path d="M13.72 263.12 L13.72 251.03" class="st7"/>
				<path d="M4.62 248 L4.62 237.57" class="st7"/>
				<path d="M22.64 248 L22.64 237.57" class="st7"/>
				<path d="M21.62 213.57 A7.89305 7.62729 -180 1 0 5.83 213.57 A7.89305 7.62729 -180 1 0 21.62 213.57" class="st7"/>
			</g>
			<path d="M22.17 223.26 L5.28 223.26 C4.06 223.26 2.94 223.66 2.05 224.34 C1.42 224.82 0.91 225.42 0.56 226.11 C0.2 226.81
						 0 227.59 0 228.42 L0 248 L4.62 248 L4.62 263.12 L22.64 263.12 L22.64 248 L27.44 248 L27.44 228.42 C27.44
						 227.22 27.03 226.13 26.33 225.26 C25.85 224.65 25.23 224.15 24.52 223.8 C23.81 223.46 23.02 223.26 22.17
						 223.26 ZM21.62 213.57 A7.89305 7.62729 -180 1 0 5.83 213.57 A7.89305 7.62729 -180 1 0 21.62 213.57 Z"
					class="st8"/>
			<path d="M22.17 223.26 L5.28 223.26 C4.06 223.26 2.94 223.66 2.05 224.34 C1.42 224.82 0.91 225.42 0.56 226.11 C0.2 226.81
						 0 227.59 0 228.42 L0 248 L4.62 248 L4.62 263.12 L22.64 263.12 L22.64 248 L27.44 248 L27.44 228.42 C27.44
						 227.22 27.03 226.13 26.33 225.26 C25.85 224.65 25.23 224.15 24.52 223.8 C23.81 223.46 23.02 223.26 22.17
						 223.26" class="st9"/>
			<path d="M13.72 263.12 L13.72 251.03" class="st9"/>
			<path d="M4.62 248 L4.62 237.57" class="st9"/>
			<path d="M22.64 248 L22.64 237.57" class="st9"/>
			<path d="M21.62 213.57 A7.89305 7.62729 -180 1 0 5.83 213.57 A7.89305 7.62729 -180 1 0 21.62 213.57" class="st9"/>
		</g>
		<g id="shape95-52" v:mID="95" v:groupContext="shape" v:layerMember="0" transform="translate(102.609,-83.9256)">
			<title>Person.22</title>
			<v:userDefs>
				<v:ud v:nameU="visVersion" v:prompt="" v:val="VT0(15):26"/>
				<v:ud v:nameU="ConnGap" v:prompt="" v:val="VT0(0.00012908222537757):24"/>
			</v:userDefs>
			<g id="shadow95-53" v:groupContext="shadow" v:shadowOffsetX="0.345598" v:shadowOffsetY="-1.97279" v:shadowType="1"
					transform="matrix(1,0,0,1,0.345598,1.97279)" class="st1">
				<path d="M22.17 223.26 L5.28 223.26 C4.06 223.26 2.94 223.66 2.05 224.34 C1.42 224.82 0.91 225.42 0.56 226.11 C0.2
							 226.81 0 227.59 0 228.42 L0 248 L4.62 248 L4.62 263.12 L22.64 263.12 L22.64 248 L27.44 248 L27.44 228.42
							 C27.44 227.22 27.03 226.13 26.33 225.26 C25.85 224.65 25.23 224.15 24.52 223.8 C23.81 223.46 23.02 223.26
							 22.17 223.26 ZM21.62 213.57 A7.89305 7.62729 -180 1 0 5.83 213.57 A7.89305 7.62729 -180 1 0 21.62 213.57
							 Z" class="st5"/>
				<path d="M22.17 223.26 L5.28 223.26 C4.06 223.26 2.94 223.66 2.05 224.34 C1.42 224.82 0.91 225.42 0.56 226.11 C0.2
							 226.81 0 227.59 0 228.42 L0 248 L4.62 248 L4.62 263.12 L22.64 263.12 L22.64 248 L27.44 248 L27.44 228.42
							 C27.44 227.22 27.03 226.13 26.33 225.26 C25.85 224.65 25.23 224.15 24.52 223.8 C23.81 223.46 23.02 223.26
							 22.17 223.26" class="st7"/>
				<path d="M13.72 263.12 L13.72 251.03" class="st7"/>
				<path d="M4.62 248 L4.62 237.57" class="st7"/>
				<path d="M22.64 248 L22.64 237.57" class="st7"/>
				<path d="M21.62 213.57 A7.89305 7.62729 -180 1 0 5.83 213.57 A7.89305 7.62729 -180 1 0 21.62 213.57" class="st7"/>
			</g>
			<path d="M22.17 223.26 L5.28 223.26 C4.06 223.26 2.94 223.66 2.05 224.34 C1.42 224.82 0.91 225.42 0.56 226.11 C0.2 226.81
						 0 227.59 0 228.42 L0 248 L4.62 248 L4.62 263.12 L22.64 263.12 L22.64 248 L27.44 248 L27.44 228.42 C27.44
						 227.22 27.03 226.13 26.33 225.26 C25.85 224.65 25.23 224.15 24.52 223.8 C23.81 223.46 23.02 223.26 22.17
						 223.26 ZM21.62 213.57 A7.89305 7.62729 -180 1 0 5.83 213.57 A7.89305 7.62729 -180 1 0 21.62 213.57 Z"
					class="st8"/>
			<path d="M22.17 223.26 L5.28 223.26 C4.06 223.26 2.94 223.66 2.05 224.34 C1.42 224.82 0.91 225.42 0.56 226.11 C0.2 226.81
						 0 227.59 0 228.42 L0 248 L4.62 248 L4.62 263.12 L22.64 263.12 L22.64 248 L27.44 248 L27.44 228.42 C27.44
						 227.22 27.03 226.13 26.33 225.26 C25.85 224.65 25.23 224.15 24.52 223.8 C23.81 223.46 23.02 223.26 22.17
						 223.26" class="st9"/>
			<path d="M13.72 263.12 L13.72 251.03" class="st9"/>
			<path d="M4.62 248 L4.62 237.57" class="st9"/>
			<path d="M22.64 248 L22.64 237.57" class="st9"/>
			<path d="M21.62 213.57 A7.89305 7.62729 -180 1 0 5.83 213.57 A7.89305 7.62729 -180 1 0 21.62 213.57" class="st9"/>
		</g>
		<g id="shape96-68" v:mID="96" v:groupContext="shape" v:layerMember="0" transform="translate(66.0166,-83.9256)">
			<title>Person.23</title>
			<v:userDefs>
				<v:ud v:nameU="visVersion" v:prompt="" v:val="VT0(15):26"/>
				<v:ud v:nameU="ConnGap" v:prompt="" v:val="VT0(0.00012908222537757):24"/>
			</v:userDefs>
			<g id="shadow96-69" v:groupContext="shadow" v:shadowOffsetX="0.345598" v:shadowOffsetY="-1.97279" v:shadowType="1"
					transform="matrix(1,0,0,1,0.345598,1.97279)" class="st1">
				<path d="M22.17 223.26 L5.28 223.26 C4.06 223.26 2.94 223.66 2.05 224.34 C1.42 224.82 0.91 225.42 0.56 226.11 C0.2
							 226.81 0 227.59 0 228.42 L0 248 L4.62 248 L4.62 263.12 L22.64 263.12 L22.64 248 L27.44 248 L27.44 228.42
							 C27.44 227.22 27.03 226.13 26.33 225.26 C25.85 224.65 25.23 224.15 24.52 223.8 C23.81 223.46 23.02 223.26
							 22.17 223.26 ZM21.62 213.57 A7.89305 7.62729 -180 1 0 5.83 213.57 A7.89305 7.62729 -180 1 0 21.62 213.57
							 Z" class="st5"/>
				<path d="M22.17 223.26 L5.28 223.26 C4.06 223.26 2.94 223.66 2.05 224.34 C1.42 224.82 0.91 225.42 0.56 226.11 C0.2
							 226.81 0 227.59 0 228.42 L0 248 L4.62 248 L4.62 263.12 L22.64 263.12 L22.64 248 L27.44 248 L27.44 228.42
							 C27.44 227.22 27.03 226.13 26.33 225.26 C25.85 224.65 25.23 224.15 24.52 223.8 C23.81 223.46 23.02 223.26
							 22.17 223.26" class="st7"/>
				<path d="M13.72 263.12 L13.72 251.03" class="st7"/>
				<path d="M4.62 248 L4.62 237.57" class="st7"/>
				<path d="M22.64 248 L22.64 237.57" class="st7"/>
				<path d="M21.62 213.57 A7.89305 7.62729 -180 1 0 5.83 213.57 A7.89305 7.62729 -180 1 0 21.62 213.57" class="st7"/>
			</g>
			<path d="M22.17 223.26 L5.28 223.26 C4.06 223.26 2.94 223.66 2.05 224.34 C1.42 224.82 0.91 225.42 0.56 226.11 C0.2 226.81
						 0 227.59 0 228.42 L0 248 L4.62 248 L4.62 263.12 L22.64 263.12 L22.64 248 L27.44 248 L27.44 228.42 C27.44
						 227.22 27.03 226.13 26.33 225.26 C25.85 224.65 25.23 224.15 24.52 223.8 C23.81 223.46 23.02 223.26 22.17
						 223.26 ZM21.62 213.57 A7.89305 7.62729 -180 1 0 5.83 213.57 A7.89305 7.62729 -180 1 0 21.62 213.57 Z"
					class="st8"/>
			<path d="M22.17 223.26 L5.28 223.26 C4.06 223.26 2.94 223.66 2.05 224.34 C1.42 224.82 0.91 225.42 0.56 226.11 C0.2 226.81
						 0 227.59 0 228.42 L0 248 L4.62 248 L4.62 263.12 L22.64 263.12 L22.64 248 L27.44 248 L27.44 228.42 C27.44
						 227.22 27.03 226.13 26.33 225.26 C25.85 224.65 25.23 224.15 24.52 223.8 C23.81 223.46 23.02 223.26 22.17
						 223.26" class="st9"/>
			<path d="M13.72 263.12 L13.72 251.03" class="st9"/>
			<path d="M4.62 248 L4.62 237.57" class="st9"/>
			<path d="M22.64 248 L22.64 237.57" class="st9"/>
			<path d="M21.62 213.57 A7.89305 7.62729 -180 1 0 5.83 213.57 A7.89305 7.62729 -180 1 0 21.62 213.57" class="st9"/>
		</g>
		<g id="shape148-84" v:mID="148" v:groupContext="shape" transform="translate(3.6544,-5.9728)">
			<title>Sheet.148</title>
			<g id="shadow148-85" v:groupContext="shadow" v:shadowOffsetX="0.345598" v:shadowOffsetY="-1.97279" v:shadowType="1"
					transform="matrix(1,0,0,1,0.345598,1.97279)" class="st1">
				<rect x="0" y="8" width="368.504" height="255.118" class="st7"/>
			</g>
			<rect x="0" y="8" width="368.504" height="255.118" class="st10"/>
		</g>
	</g>
</svg>
